<svg width="452" height="638" viewBox="0 0 452 638" fill="none" xmlns="http://www.w3.org/2000/svg">
<g clip-path="url(#clip0_2_5)">
<mask id="mask0_2_5" style="mask-type:luminance" maskUnits="userSpaceOnUse" x="0" y="0" width="452" height="638">
<path d="M451.558 0.0397949H0.55835V637.04H451.558V0.0397949Z" fill="white"/>
</mask>
<g mask="url(#mask0_2_5)">
<path d="M142.57 502.817C140.982 499.973 140.824 497.006 137.822 495.64C137.822 498.879 137.93 502.55 137.122 505.446C138.31 504.487 141.063 502.618 142.57 502.817Z" fill="#418A91" fill-opacity="0.46"/>
<path d="M137.822 530.963C136.998 527.902 134.714 521.781 132.177 521.781C129.005 521.781 130.361 521.781 126.593 515.889C125.128 513.598 128.87 525.45 126.971 532.988C130.671 532.015 134.333 531.362 137.822 530.963Z" fill="#418A91" fill-opacity="0.46"/>
<path d="M77.4605 498.264C76.0299 498.436 74.4623 497.981 73.052 498.302C72.7825 498.364 72.4327 498.449 72.0342 498.556C69.3216 503.769 64.7102 515.711 67.9653 521.781C66.4581 513.365 73.6674 502.596 77.4605 498.264Z" fill="#418A91" fill-opacity="0.46"/>
<path d="M88.4353 547.582C87.1583 545.858 83.1754 542.028 77.4604 540.494C80.5249 543.311 86.6542 549.851 86.6542 553.473C86.6542 557.095 88.8738 561.243 89.9837 562.864C92.2268 557.683 95.1314 553.276 98.4855 549.542C93.0597 552.327 89.5246 549.396 88.4353 547.582Z" fill="#418A91" fill-opacity="0.46"/>
<path d="M134.036 452.879C135.662 450.981 136.646 449.122 137.154 447.352C136.605 446.848 136.142 446.581 134.481 447.145C133.222 447.573 131.157 450.272 130.007 451.183C127.858 452.478 122.263 454.369 117.08 451.568C118.674 453.12 120.597 454.591 122.671 455.519C126.312 457.148 130.42 457.102 134.036 452.879Z" fill="#418A91" fill-opacity="0.46"/>
<path d="M117.08 451.568C115.966 450.483 115.012 449.358 114.279 448.352C113.409 449.974 110.469 453.449 105.676 454.369C110.093 454.427 119.675 454.737 122.671 455.519C120.597 454.591 118.674 453.12 117.08 451.568Z" fill="#418A91" fill-opacity="0.46"/>
<path d="M105.676 454.369C110.469 453.449 113.409 449.974 114.279 448.352C108.134 443.825 97.6112 446.087 94.1545 445.167C91.3891 444.431 91.5181 439.952 91.9283 437.805C89.2154 443.498 91.1801 450.136 105.676 454.369Z" fill="#418A91" fill-opacity="0.46"/>
<path d="M51.7867 459.89C53.2371 463.562 57.3208 464.546 59.8175 464.491C66.0427 462.419 74.3436 460.218 76.6393 454.35C72.4913 453.18 65.3474 458.97 61.6603 461.04C58.7105 462.696 53.8489 460.963 51.7867 459.89Z" fill="#418A91" fill-opacity="0.46"/>
<path d="M78.0221 454.139C82.8159 456.347 90.0055 452.145 93.0011 449.768C91.9852 448.051 91.3585 446.436 91.0258 444.937C88.5547 443.669 83.028 448.675 79.5355 452.441C79.1845 453.217 78.6124 453.785 78.0221 454.139Z" fill="#418A91" fill-opacity="0.46"/>
<path d="M88.1276 425.76C90.7086 430.361 94.58 430.898 96.1931 430.591C100.648 430.974 109.743 430.545 110.481 425.76C105.872 423.459 98.728 427.831 94.8104 428.061C91.6763 428.245 88.6363 423.076 87.508 420.469C87.062 422.123 87.1107 423.947 88.1276 425.76Z" fill="#418A91" fill-opacity="0.46"/>
<path d="M154.388 467.605C158.045 470.118 165.753 473.652 167.325 467.682C168.253 464.161 169.751 460.581 170.426 457.077C169.381 458.766 167.098 462.265 166.321 462.759C165.348 463.376 164.339 467.451 160.433 467.149C157.308 466.907 152.081 464.565 149.858 463.424C151.839 464.971 153.458 466.559 154.388 467.605Z" fill="#418A91" fill-opacity="0.46"/>
<path d="M133.603 432.571C135.749 433.885 139.107 436.581 138.584 438.925C138.017 441.466 138.499 443.995 138.811 444.942C141.113 442.558 146.08 438.471 150.167 438.109C146.032 437.482 139.314 435.857 133.603 432.571Z" fill="#418A91" fill-opacity="0.46"/>
<path d="M86.2769 450.335C86.0122 450.335 85.7735 450.378 85.5555 450.455M85.5555 450.455C84.0016 451.007 83.5034 453.323 82.2076 454.503C80.9913 455.61 77.0764 456.399 75.4253 456.587C70.0216 457.202 66.1021 462.837 61.5216 464.922C59.5465 465.821 56.8714 466.559 54.7394 467.045C52.2558 467.61 49.8448 471.473 48.2962 473.258C46.3146 475.541 48.7538 477.542 46.9398 479.509C44.8349 481.792 42.5875 484.044 40.5344 486.147C39.0881 487.628 37.5695 491.318 40.4967 491.318C43.2901 491.318 38.0637 494.622 37.5953 495.486C36.291 497.89 34.7318 499.508 34.7318 502.432C34.7318 506.422 33.9455 508.193 32.3715 511.74L32.358 511.771C29.2715 518.725 27.9494 525.557 27.9494 533.149C27.9494 539.818 24.5583 545.077 24.5583 551.711C24.5583 555.396 25.0407 556.348 26.254 559.082C27.4482 561.773 26.5015 565.217 27.7987 567.726C29.2873 570.606 30.6623 572.183 30.6623 575.907C30.6623 578.08 29.8592 582.561 31.6798 584.011C33.0241 585.082 35.5254 585.235 37.1055 586.134C39.018 587.222 39.3514 589.98 40.6851 591.498C41.9603 592.949 42.736 595.482 45.0559 593.582C46.834 592.125 51.3074 595.366 52.7425 596.206C54.9837 597.517 58.2637 598.984 60.8434 598.984C65.725 598.984 67.8618 601.015 72.0341 603.152C77.6139 606.009 83.3243 605.236 89.6303 605.236C96.7842 605.236 103.068 610.336 110.014 606.779C115.501 603.97 122.979 605.236 128.967 605.236C132.137 605.236 135.14 603.847 138.462 603.847C141.595 603.847 144.33 604.066 147.317 604.503C154.102 605.495 156.603 600.443 161.032 596.36C162.509 594.999 167.551 592.724 167.664 590.649C167.901 586.28 168.226 586.57 172.034 584.088C174.459 582.509 175.508 579.881 176.481 577.142C176.996 575.69 177.837 575.314 177.837 573.631C177.837 571.866 180.841 571.596 181.906 570.505C183.703 568.664 184.619 565.389 184.619 562.864C184.619 561.662 184.732 560.868 184.092 559.931C183.744 559.422 186.559 556.787 186.955 556.265C190.395 551.736 185.193 545.796 185.298 541.176C185.346 539.034 186.577 537.271 186.654 535.233C186.695 534.14 186.363 532.625 186.805 531.606C187.423 530.182 188.353 529.753 189.216 528.673C190.143 527.513 188.921 524.861 188.651 523.618C188.045 520.825 186.623 518.093 186.013 515.282C185.35 512.222 182.525 512.508 181.077 509.378C179.027 504.944 183.168 494.268 176.142 492.668C172.904 491.932 172.411 487.777 172.411 485.066C172.411 482.872 169.216 477.552 166.985 477.425C164.879 477.306 162.667 470.683 161.032 472.023C158.744 473.898 155.914 470.818 154.777 468.781C152.446 464.603 146.416 460.754 141.891 460.754C140.491 460.754 139.399 461.8 137.972 461.295C136.661 460.83 135.677 459.225 134.431 458.516C133.056 457.734 131.816 456.752 130.361 456.046C128.936 455.355 127.861 456.51 126.593 456.51C124.679 456.51 123.175 454.503 121.168 454.503C119.871 454.503 118.381 454.303 117.098 454.541C114.366 455.05 112.154 455.892 109.336 455.892C107.128 455.892 105.579 453.114 103.232 453.114C101.466 453.114 97.9362 452.521 96.1865 451.724C94.4036 450.913 92.0045 450.721 90.6478 449.332C89.4706 448.126 86.1252 449.428 85.5555 450.455ZM85.5555 450.455C85.4385 450.666 85.4386 450.866 85.5986 451.03M67.9652 500.348C67.4064 500.992 66.8834 501.846 66.3986 502.713M66.3986 502.713C65.9886 503.447 65.6059 504.19 65.2523 504.824C64.5137 506.148 62.7531 506.47 62.012 507.989C60.6369 510.805 62.5227 513.576 60.8438 516.671C59.2669 519.579 57.7919 521.556 57.7919 525.007C57.7919 525.986 57.3372 528.592 57.9426 529.367C58.6825 530.315 60.4358 531.03 60.5047 532.3C60.8424 538.525 61.8612 545.394 61.8612 551.402C61.8612 552.899 61.7754 554.424 61.8612 555.917C61.906 556.698 64.2366 556.889 64.951 557.307C68.4836 559.374 67.7566 563.117 69.8493 565.797C72.2136 568.823 72.3878 569.662 76.104 571.354C79.4802 572.89 82.8464 573.283 86.6542 573.283M66.3986 502.713C66.448 502.848 66.5174 502.986 66.6087 503.126M66.3986 502.713C65.6347 500.626 69.682 499.193 72.0341 498.556M86.6542 573.283C90.1164 573.283 93.1482 572.916 96.1494 574.672C98.9382 576.304 102.095 576.756 105.267 576.756C108.361 576.756 110.931 575.367 114.235 575.367C115.762 575.367 117.673 575.065 119.171 575.405C120.61 575.733 123.098 577.361 124.597 576.679C126.541 575.794 126.485 573.426 129.005 573.283C130.651 573.189 131.767 573.283 133.414 573.283C135.938 573.283 142.435 571.082 144.454 569.81C148.205 567.446 150.219 566.259 152.216 562.169C153.809 558.905 154.311 556.061 154.816 552.444C155.083 550.524 155.864 549.217 156.662 547.582C157.38 546.112 156.352 543.848 156.097 542.411C155.74 540.402 155.534 538.781 155.456 536.622C155.379 534.483 153.62 532.615 152.894 530.757M86.6542 573.283C87.4832 569.504 88.6093 566.038 89.9837 562.864M72.0341 498.556C72.4326 498.449 72.7824 498.364 73.0519 498.302C74.4622 497.981 76.0298 498.436 77.4604 498.264M72.0341 498.556C69.3215 503.769 64.7101 515.711 67.9652 521.781M152.894 530.757C150.116 523.643 154.25 515.089 148.335 509.03M152.894 530.757C148.72 530.339 143.501 530.314 137.822 530.963M89.9837 562.864C88.8739 561.243 86.6542 557.095 86.6542 553.473C86.6542 549.851 80.5249 543.311 77.4604 540.494M89.9837 562.864C92.2268 557.683 95.1314 553.276 98.4855 549.542M148.335 509.03C146.753 507.411 143.685 504.816 142.57 502.817M148.335 509.03C151.15 511.914 151.689 515.363 151.78 518.952M137.822 530.963C136.998 527.902 134.714 521.781 132.177 521.781C129.005 521.781 130.361 521.781 126.593 515.889C125.128 513.598 128.87 525.45 126.971 532.988M137.822 530.963C134.333 531.362 130.671 532.015 126.971 532.988M142.57 502.817C140.982 499.973 140.824 497.006 137.822 495.64M142.57 502.817C141.063 502.618 138.31 504.487 137.122 505.446C137.93 502.55 137.822 498.879 137.822 495.64M137.822 495.64C136.429 495.006 134.94 494.791 133.414 494.791C130.68 494.791 129.412 492.957 126.971 492.707C123.584 492.36 121.072 489.59 118.493 487.536C116.031 485.575 111.456 487.941 108.998 488.501L108.922 488.518C107.177 488.915 105.777 489.234 103.911 489.234C101.88 489.234 100.428 490.623 98.4855 490.623C97.384 490.623 95.8134 490.576 94.0335 490.569M94.0335 490.569C88.7951 490.548 81.743 490.871 79.495 493.749C78.7952 494.645 78.6597 498.119 77.4604 498.264M94.0335 490.569C91.499 495.32 87.8332 505.734 93.4454 509.378C100.461 513.933 99.5699 514.882 101.401 516.671C103.232 518.461 101.613 522.229 105.267 523.618M77.4604 498.264C73.6673 502.596 66.458 513.365 67.9652 521.781M67.9652 521.781C71.2203 527.85 70.5776 531.323 69.8493 532.3C70.0051 534.393 71.7453 538.961 77.4604 540.494M100.461 490.473C100.461 493.653 101.416 495.493 104.191 497.072C106.389 498.323 110.462 499.689 109.956 502.281M108.599 488.389C109.853 488.549 112.763 491.959 113.686 492.904L113.691 492.909C116.081 495.357 117.416 496.724 117.416 500.198M85.7831 452.36C85.6133 453.751 84.6041 454.442 84.6041 456.284C84.6041 457.735 87.304 458.173 88.4353 458.43C90.1731 458.826 91.5914 459 93.4454 459C94.5035 459 96.3924 456.709 96.3924 457.793M100.517 466.244C103.175 463.522 109.947 460.838 109.947 467.15C109.947 471.139 103.715 469.292 101.106 471.073M94.0335 475.299C94.3106 472.745 99.5763 471.206 101.401 470.168C103.828 468.787 107.59 471.958 107.59 474.091M64.5632 473.488C64.374 475.038 61.2158 476.164 61.0267 477.714C60.7625 479.878 58.5242 481.229 58.669 483.75C58.7533 485.218 64.3369 484.479 65.0217 483.147C66.015 481.214 67.5102 474.926 67.5102 477.11M46.2912 510.311C49.3786 506.798 53.9811 507.532 51.596 513.028C50.1112 516.449 42.1653 518.763 42.1653 518.763M43.9342 519.97C44.108 518.368 46.4367 517.555 47.7654 517.555C50.1316 517.555 49.8283 520.083 49.8283 521.781C49.8283 526.014 42.7552 526.09 42.7552 529.025M50.4175 567.056C49.1718 567.056 46.8118 566.588 45.7023 567.19C44.0174 568.103 45.5514 570.433 46.4226 571.147C48.3364 572.715 53.3489 571.885 55.7222 571.885M56.3122 567.056C56.3122 570.567 56.7006 572.218 59.8488 573.83C62.8469 575.366 64.4588 574.3 67.5111 574.3M79.2987 593.013C81.4139 590.847 83.1927 589.391 86.3716 589.391H90.2028C91.0343 589.391 92.9765 590.598 92.2657 590.598M127.63 574.3C127.63 577.145 124.462 580.337 129.399 580.337C132.261 580.337 135.363 580.725 136.472 577.318M167.711 589.995C167.711 586.73 168.205 585.769 164.764 585.769C161.821 585.769 161.448 588.713 160.638 591.202M160.638 588.788C158.511 588.788 157.319 586.493 155.333 586.373C153.317 586.252 151.207 589.193 151.207 591.202M167.122 558.001C167.122 556.22 167.873 554.776 168.89 553.473C169.388 552.836 172.9 550.556 173.016 552.568C173.136 554.663 173.016 556.808 173.016 558.906C173.016 561.073 171.336 560.839 170.658 562.226M167.122 540.494C167.122 542.136 167.832 549.694 171.379 546.061C172.235 545.185 173.863 539.891 173.605 539.891M145.313 477.11C147.869 476.872 149.914 475.638 151.208 478.619C151.868 480.142 152.69 484.203 150.029 484.354C146.044 484.581 142.422 482.543 138.83 482.543M151.798 484.958C151.798 486.822 151.132 489.58 152.976 490.525C154.417 491.262 156.667 492.201 158.281 492.201M162.995 503.067C162.995 505.12 161.321 508.497 162.995 510.311C164.288 511.713 168.335 512.798 168.889 513.933M165.352 512.122C163.624 514.335 165.173 516.689 165.942 518.461C166.557 519.879 170.425 520.092 171.836 520.574M105.267 523.618C108.922 525.007 107.904 534.33 121.168 534.782M105.267 523.618C107.607 528.484 111.477 538.809 108.239 541.176M121.168 534.782C116.733 536.368 112.346 538.462 108.239 541.176M121.168 534.782C123.099 534.091 125.04 533.496 126.971 532.988M108.239 541.176C104.736 543.491 101.436 546.256 98.4855 549.542M77.4604 540.494C83.1754 542.028 87.1583 545.858 88.4353 547.582C89.5246 549.396 93.0597 552.327 98.4855 549.542M114.279 448.352C111.789 444.698 110.608 436.67 117.538 433.145M114.279 448.352C115.012 449.358 115.966 450.483 117.08 451.568M114.279 448.352C113.409 449.974 110.469 453.449 105.676 454.369M114.279 448.352C108.134 443.825 97.6111 446.087 94.1544 445.167C91.389 444.431 91.5181 439.952 91.9283 437.805M117.538 433.145C124.469 429.62 131.76 432.552 134.54 434.459M117.538 433.145C116.689 431.02 113.96 427.369 109.133 426.843M117.08 451.568C122.263 454.369 127.858 452.478 130.007 451.183C131.157 450.272 133.222 447.573 134.481 447.145C136.142 446.581 136.605 446.848 137.154 447.352M117.08 451.568C118.674 453.12 120.597 454.591 122.671 455.519M105.676 454.369C110.093 454.427 119.675 454.737 122.671 455.519M105.676 454.369C91.18 450.136 89.2154 443.498 91.9283 437.805M91.9283 437.805C94.5228 432.361 101.395 427.78 105.676 426.993C106.93 426.763 108.081 426.729 109.133 426.843M134.54 434.459C137.229 436.566 138.869 441.375 137.154 447.352M134.54 434.459C134.54 429.022 136.96 424.762 138.17 423.312C136.403 420.628 130.829 415.353 122.671 415.721C114.512 416.089 110.246 423.289 109.133 426.843M137.154 447.352C136.646 449.122 135.662 450.981 134.036 452.879C130.42 457.102 126.312 457.148 122.671 455.519M51.7868 459.89C53.2372 463.562 57.3209 464.546 59.8176 464.491C66.0428 462.419 74.3437 460.218 76.6394 454.35M51.7868 459.89C51.2292 458.478 51.0607 456.669 51.5215 454.369C53.1807 446.087 58.9721 441.716 61.6604 440.566C65.5011 438.894 73.874 437.87 76.6394 447.145C77.5023 450.039 77.4031 452.398 76.6394 454.35M51.7868 459.89C53.849 460.963 58.7106 462.696 61.6604 461.04C65.3475 458.97 72.4914 453.18 76.6394 454.35M78.022 454.139C82.8158 456.347 90.0055 452.145 93.0011 449.768C91.9852 448.051 91.3584 446.436 91.0257 444.937M78.022 454.139C78.6123 453.785 79.1844 453.217 79.5354 452.441M78.022 454.139C78.4589 453.626 78.9705 453.05 79.5354 452.441M91.0257 444.937C89.7889 439.364 92.6166 435.405 94.6143 433.894C94.6143 430.444 87.0089 427.913 79.4042 430.214C73.3204 432.054 71.953 437.882 72.0298 440.566C79.7084 446.178 80.5541 450.187 79.5354 452.441M91.0257 444.937C88.5546 443.669 83.0279 448.675 79.5354 452.441M110.481 425.76C109.743 430.545 100.648 430.974 96.1932 430.591C94.5801 430.898 90.7086 430.361 88.1276 425.76C87.1107 423.947 87.062 422.123 87.508 420.469M110.481 425.76C111.402 419.779 111.172 417.708 107.485 414.718C103.798 411.727 94.5802 410.611 91.3539 414.718C90.0505 415.787 88.1941 417.926 87.508 420.469M110.481 425.76C105.872 423.459 98.728 427.831 94.8104 428.061C91.6763 428.245 88.6363 423.076 87.508 420.469M152.495 438.385C150.22 438.209 142.032 439.192 139.058 447.729C137.73 450.934 136.391 457.676 141.65 459.005C144.53 459.733 147.46 461.55 149.858 463.424M152.495 438.385C153.54 438.466 154.951 438.575 156.61 438.971M152.495 438.385C151.773 438.113 150.988 438.036 150.167 438.109M152.495 438.385C151.871 438.337 151.082 438.247 150.167 438.109M149.858 463.424C151.839 464.971 153.458 466.559 154.388 467.605C158.045 470.118 165.753 473.652 167.325 467.682C168.253 464.161 169.751 460.581 170.426 457.077M149.858 463.424C152.081 464.565 157.308 466.907 160.433 467.149C164.339 467.451 165.348 463.376 166.321 462.759C167.098 462.265 169.381 458.766 170.426 457.077M156.61 438.971C159.689 439.705 163.619 441.426 167.638 445.786C170.903 449.329 171.18 453.156 170.426 457.077M156.61 438.971C163.778 434.755 160.298 428.169 157.662 425.403C156.367 424.226 151.942 421.684 144.604 420.932C137.267 420.18 133.872 428.178 133.091 432.271M150.167 438.109C146.08 438.471 141.113 442.558 138.811 444.942C138.499 443.995 138.017 441.466 138.584 438.925C139.107 436.581 135.749 433.885 133.603 432.571M150.167 438.109C146.032 437.482 139.314 435.857 133.603 432.571M133.091 432.271C133.261 432.372 133.431 432.472 133.603 432.571M133.091 432.271C133.251 432.36 133.423 432.461 133.603 432.571" stroke="#418A91" stroke-opacity="0.46" stroke-width="3"/>
<path d="M236.932 289.718C236.755 290.82 236.472 291.846 235.969 292.717C235.184 294.076 233.976 296.36 233.339 298.36C236.41 293.88 253.223 294.567 261.961 295.683C258.421 293.996 254.66 292.695 251.014 291.314C246.397 289.566 241.718 288.436 236.932 289.718Z" fill="#418A91" fill-opacity="0.46"/>
<path d="M325.623 349.233C327.086 347.928 328.516 346.564 329.83 345.122C332.992 341.388 334.951 337.44 335.662 335.485C331.843 337.268 327.11 328.33 323.738 319.825L323.967 322.785C324.269 324.635 324.075 326.681 324.094 328.555C324.136 332.803 323.795 337.019 324.178 341.291C324.399 343.756 325.623 349.233 325.623 349.233Z" fill="#418A91" fill-opacity="0.46"/>
<path d="M225.198 265.212C225.136 265.228 225.075 265.245 225.014 265.263M225.014 265.263C224.77 265.333 224.534 265.411 224.307 265.496M225.014 265.263C225.455 265.051 225.892 264.693 225.813 264.147C225.708 263.432 225.724 260.93 226.22 260.439C228.135 258.542 229.68 256.069 231.124 253.727C234.131 248.849 240.797 248.436 245.989 247.044C247.985 246.51 246.472 242.416 250.325 241.384C252.921 240.688 255.302 239.151 258.08 238.406C260.445 237.772 260.308 234.013 263.481 233.36C264.781 233.092 265.569 235.11 267.083 235.044C268.319 234.991 269.684 234.397 270.876 234.078C275.523 232.833 279.919 229.605 285.207 230.438C290.898 231.334 295.212 233.221 300.783 233.312C302.984 233.348 305.624 233.228 307.363 235.098C308.748 236.587 312.075 238.334 314.182 237.77C316.609 237.119 318.751 239.28 320.401 240.944L320.446 240.99C322.44 243 325.573 242.174 326.895 244.71C329.679 250.049 335.608 250.81 339.056 254.998C340.215 256.406 341.584 257.113 342.629 258.439C343.3 259.292 342.209 261.485 342.44 262.589C343.069 265.592 345.852 267.867 348 269.897C350.018 271.803 350.482 275.184 351.901 277.549C352.647 278.793 353.747 277.905 354.434 280.469C354.849 282.017 355.356 283.565 355.684 285.133C356.149 287.359 354.087 290.819 354.189 293.181C354.335 296.592 355.223 297.021 356.841 299.718C359.454 304.076 360.057 311.536 361.374 316.449C362.644 321.19 359.463 326.117 360.885 331.426C361.951 335.404 361.745 336.348 360.128 340.176C359.132 342.535 360.508 345.457 359.302 347.545C358.218 349.42 356.926 350.597 355.99 352.732C354.768 355.517 356.188 357.613 352.062 358.982C350.277 359.575 350.898 363.727 350.958 365.127C351.062 367.541 344.813 368.123 342.942 368.624C337.657 370.04 330.545 370.532 327.111 375.066C325.684 376.95 322.059 377.525 320.782 379.261C319.357 381.196 316.656 383.397 314.067 383.509C312.191 383.59 308.003 381.543 305.765 381.085C303.88 380.7 300.127 380.174 298.233 380.604C294.974 381.344 292.35 383.789 288.972 383.935C286.125 384.059 283.167 383.008 280.329 383.602C277.395 384.216 275.096 385.212 272.561 386.533C270.176 387.776 266.989 385.377 264.339 386.087C261.514 386.844 259.422 388.462 256.583 389.065C253.306 389.761 250.637 385.724 246.833 386.279C240.637 387.182 237.911 382.122 235.35 377.209C233.718 374.08 230.445 372.051 227.516 370.561C224.565 369.059 223.771 367.238 221.699 364.721C219.357 361.875 217.3 363.425 216.22 359.392C215.592 357.047 214.423 353.101 212.944 351.272C210.426 348.16 208.514 347.433 207.408 343.308C206.638 340.431 204.974 338.195 204.431 335.558C204.197 334.418 205.671 333.729 205.437 332.589C205.175 331.32 204.76 330.063 204.424 328.812C203.674 326.012 203.208 324.458 203.885 321.758C204.639 318.752 205.269 315.546 205.715 312.72C206.065 310.505 203.83 306.443 205.651 304.64C207.867 302.445 204.357 299.17 205.68 296.534C206.865 294.173 207.732 291.601 209.145 289.308C211.418 285.622 209.745 285.572 209.813 281.531C209.833 280.282 211.566 279.309 212.415 278.734C213.91 277.723 213.784 276.248 214.863 275.179C218.354 271.721 219.771 267.192 224.307 265.496M225.014 265.263C224.738 265.395 224.461 265.47 224.307 265.496M224.307 265.496C224.149 265.524 224.121 265.501 224.358 265.437M241.232 278.011C241.061 278.077 240.898 278.149 240.742 278.226M240.742 278.226C235.698 280.724 238.394 288.521 235.969 292.717M240.742 278.226C242.574 275.099 250.009 268.724 252.033 267.919C254.972 266.749 257.314 262.905 260.794 261.972C266.229 260.516 271.755 259.935 277.213 258.472C280.818 257.506 284.136 258.592 287.769 258.293C291.513 257.985 296.047 257.252 299.8 258.019C308.705 259.839 314.593 266.12 322.114 270.734C328.721 274.788 331.414 285.281 333.278 292.236C335.28 299.709 338.52 306.741 340.141 314.49C340.73 317.306 339.661 324.35 338.511 327.074C337.33 329.871 336.48 332.714 335.662 335.485M240.742 278.226C240.209 279.138 240.151 279.773 240.842 279.915M235.969 292.717C236.472 291.846 236.755 290.82 236.932 289.718C241.718 288.436 246.397 289.566 251.014 291.314C254.66 292.695 258.421 293.996 261.961 295.683M235.969 292.717C235.184 294.076 233.976 296.36 233.339 298.36M335.662 335.485C331.843 337.268 327.11 328.33 323.738 319.825M335.662 335.485C334.951 337.44 332.992 341.388 329.83 345.122M335.662 335.485C334.598 339.09 332.441 342.258 329.83 345.122M261.961 295.683C263.607 296.468 265.205 297.335 266.722 298.334C271.448 301.444 274.054 306.61 277.269 311.083C278.513 312.814 279.612 314.833 280.497 316.778C281.556 319.104 283.058 321.441 283.767 323.897C285.114 328.565 287.765 333.009 289.776 337.428C291.76 341.788 294.289 345.656 296.796 349.649C297.703 351.095 298.888 352.118 300.009 353.381C300.96 354.453 302.322 354.924 303.313 355.898C304.465 357.032 306.758 357.089 307.672 358.473M261.961 295.683C253.223 294.567 236.41 293.88 233.339 298.36M233.339 298.36C232.913 298.981 232.751 299.702 232.912 300.534M233.339 298.36C233.085 299.155 232.922 299.905 232.912 300.534M232.912 300.534C232.871 302.969 237.015 306.223 235.818 308.953C235 310.817 235.023 314.384 233.849 315.979C232.356 318.007 236.409 322.142 235.441 324.35C233.657 328.42 234.52 337.465 238.525 339.219C244.766 341.951 246.588 348.533 252.406 352.195C255.429 354.097 257.705 357.144 260.638 358.836C262.196 359.735 263.621 360.97 265.051 362.053C267.023 363.544 267.904 362.136 270.292 362.198C277.489 362.386 283.649 364.717 290.951 362.761C299.625 360.437 311.709 361.016 318.622 355.146C322.175 352.13 326.395 348.889 329.83 345.122M232.912 300.534C238.673 298.991 243.478 303.11 248.155 306.188C251.016 308.071 253.048 310.786 255.33 313.253C257.172 315.244 259.404 317 260.12 319.674M329.83 345.122C328.516 346.564 327.086 347.928 325.623 349.233M329.83 345.122C328.607 346.567 327.203 347.98 325.623 349.233M323.738 319.825C322.494 316.689 321.436 313.61 320.677 311.151M323.738 319.825L323.967 322.785M277.468 259.728C288.616 263.61 297.206 270.5 303.857 280.066C306.298 283.577 309.209 286.841 311.512 290.491C313.86 294.212 315.549 298.058 317.548 301.936C319.774 306.253 319.459 306.604 320.677 311.151M320.677 311.151C321.291 313.443 323.584 320.441 323.967 322.785M320.677 311.151C320.856 309.649 320.364 313.082 320.49 313.552C320.849 314.891 320.96 316.391 320.73 317.774C320.291 320.41 320.787 324.261 319.574 326.658C318.183 329.405 317.717 332.685 317 335.645C316.401 338.115 315.746 341.204 313.954 343.098C313.113 343.987 311.095 344.141 309.949 344.448C308.34 344.879 306.98 345.084 305.34 344.577C303.678 344.063 302.103 343.391 300.489 342.711C299.084 342.119 297.469 341.951 296.127 341.176C293.838 339.856 292.569 337.628 290.942 335.713C289.7 334.251 287.569 332.19 287.085 330.385M323.967 322.785C324.269 324.635 324.075 326.681 324.094 328.555C324.136 332.803 323.795 337.019 324.178 341.291C324.399 343.756 325.623 349.233 325.623 349.233M260.609 262.885C262.671 263.4 264.82 265.316 266.398 266.702C268.474 268.525 270.983 270.146 272.81 272.205C276.167 275.989 283.747 282.393 276.62 286.495C270.097 290.249 261.455 284.307 256.503 280.317C254.38 278.606 252.195 276.98 250.264 275.032C249.714 274.478 249.141 273.856 248.362 273.652C247.532 273.434 246.315 272.477 247.55 273.869M299.26 274.985C300.069 278.004 302.024 280.217 304.013 282.557C305.353 284.134 306.266 286.527 307.265 288.34C308.672 290.893 309.671 293.508 310.425 296.321C311.886 301.773 312.894 306.602 311.944 312.227C311.298 316.052 308.858 316.985 305.321 317.933C301.494 318.959 297.673 318.184 293.902 317.25C289.497 316.159 285.828 314.768 282.05 312.411C279.639 310.907 273.876 304.517 276.012 306.392M289.138 266.777C289.453 267.634 290.139 268.145 290.543 268.92L290.544 268.922C291.111 270.011 291.681 271.104 292.354 272.122C294.059 274.704 294.509 277.782 295.665 280.577C297.719 285.542 300.419 291.403 297.493 296.466C296.63 297.96 294.385 299.494 292.859 300.289C290.157 301.698 287.464 303.398 284.388 303.85C282.205 304.17 280.017 303.787 277.934 303.459C277.16 303.337 276.296 303.428 275.49 303.407C275.009 303.394 273.326 303.666 274.712 303.831M235.408 308.962C244.049 314.648 250.833 325.769 253.462 335.582M271.496 342.948C274.068 352.549 282.753 357.525 289.304 363.855M213.231 314.904C212.551 312.366 213.865 310.101 216.739 310.148C218.58 310.178 219.83 315.557 220.188 316.892M217.126 331.836C214.359 332.578 216.188 336.041 216.933 338.308C217.816 340.999 221.964 341.309 223.932 342.852M248.537 365.149C251.094 364.464 254.935 365.051 255.735 368.035C256.107 369.422 256.845 370.964 255.544 372.117C254.138 373.363 252.265 372.069 252.304 374.412M281.705 241.987C283.148 244.906 290.676 243.301 292.536 241.653M291.38 244.531C292.023 246.932 293.537 247.805 295.939 247.161C296.921 246.898 298.743 246.767 299.5 246.064C299.968 245.63 299.756 242.227 299.932 242.881M338.781 279.979C338.183 277.122 341.168 271.527 343.42 275.847C344.948 278.778 343.763 281.788 344.582 284.845M348.294 317.876C348.823 319.848 350.998 322.034 350.526 324.34C350.072 326.555 347.783 327.281 347.426 329.022M346.024 326.188C346.651 327.729 347.488 329.254 347.988 331.118C348.835 334.281 346.126 333.76 346.954 336.852M329.827 356.849C331.52 356.396 333.31 356.53 335.041 356.594C337.35 356.678 337.35 353.286 338.219 354.601" stroke="#418A91" stroke-opacity="0.46" stroke-width="3" stroke-linecap="round"/>
<path d="M244.846 101.91C245.583 100.959 245.297 99.3782 245.482 98.2034C245.246 98.5747 244.777 99.1211 244.525 99.2641C243.815 99.6663 243.454 100.895 242.616 101.098L236.536 102.569C235.728 102.765 234.215 102.893 233.358 102.737C232.219 102.53 231.171 103.473 230.218 103.76C229.467 103.987 228.908 104.489 228.301 104.812C228.131 105.126 227.944 105.448 227.736 105.789C227.68 105.881 227.608 105.977 227.523 106.076C228.667 105.779 229.891 105.47 230.925 105.28C232.728 104.948 234.506 105.565 236.355 105.318C237.859 105.117 240.265 105.681 241.612 104.647C242.273 104.139 243.321 104.212 243.803 103.59C244.036 103.289 244.239 102.907 244.44 102.551C244.573 102.315 244.705 102.091 244.846 101.91Z" fill="#418A91" fill-opacity="0.46"/>
<path d="M225.485 106.597C226.37 106.382 226.805 105.326 227.813 105.019C227.981 104.967 228.143 104.895 228.301 104.812C228.912 103.679 229.298 102.649 229.671 101.188C229.778 100.77 229.816 100.372 229.806 99.9891C229.805 99.9344 229.802 99.8798 229.799 99.8257C229.384 100.176 228.791 101.722 228.514 102.313C228.164 103.061 227.233 103.351 226.903 104.056C226.38 105.172 223.58 106.381 222.451 106.655C219.177 107.447 215.592 109.11 212.157 109.941H212.163C212.253 109.937 212.343 109.937 212.435 109.938H212.482C212.516 109.939 212.551 109.939 212.586 109.939C212.832 109.94 213.097 109.933 213.402 109.859C215.253 109.411 217.062 110.664 218.908 110.217L221.948 109.481C222.817 109.271 223.459 108.486 224.194 108.262C225.07 107.994 226.785 106.936 227.523 106.076C226.786 106.266 226.082 106.452 225.485 106.597Z" fill="#418A91" fill-opacity="0.46"/>
<path d="M193.144 125.845C194.358 124.077 195.606 121.708 195.08 119.535C194.001 120.977 191.093 124.218 188.088 125.641C185.083 127.065 179.7 134.59 177.384 138.174C178.574 137.44 179.683 136.559 180.858 135.656C182.833 134.139 184.066 130.256 186.727 129.502C188.077 129.12 188.964 128.02 190.265 127.632C191.143 127.37 192.604 126.633 193.144 125.845Z" fill="#418A91" fill-opacity="0.46"/>
<path d="M249.028 68.1007C248.928 67.2261 250.961 66.9564 251.593 66.8035C252.953 66.4744 254.017 67.7527 255.296 68.1051C257.647 68.7529 260.242 68.751 262.673 69.1934C264.021 69.4387 265.285 69.2861 266.508 70.0309C268.175 71.0459 269.68 72.0159 270.988 73.4549C272.859 75.514 276.017 78.1066 276.873 80.9719C277.548 83.2344 280.461 86.575 279.721 89.2425C278.895 92.2236 279.067 95.088 276.583 97.2716C274.398 99.1929 272.381 98.9649 269.858 99.5758C268.58 99.8849 267.264 99.8653 265.94 100.186C264.776 100.468 264.321 101.761 263.491 101.962M233.225 67.192C232.832 65.5701 235.822 65.2109 236.916 64.9462C238.587 64.5416 240.024 66.2225 241.54 65.8557C242.894 65.5278 244.819 65.8549 246.086 66.4457C247.335 67.0282 248.061 68.8969 249.177 69.417C249.916 69.7618 251.322 72.1637 251.545 72.9013C251.806 73.7684 253.612 76.3804 254.281 76.8976C255.247 77.6437 256.858 79.7622 257.23 80.9927C257.701 82.5559 259.146 83.6781 259.592 85.1546C259.822 85.9165 260.579 86.4324 260.773 87.2355C260.942 87.9352 261.347 88.9879 261.833 89.5148C262.861 90.6287 264.183 92.925 264.51 94.2768L264.516 94.3005C264.838 95.6338 265.26 97.3749 264.356 98.5405C263.638 99.4672 264.121 101.917 262.945 102.583C259.776 104.377 256.645 103.729 253.494 102.259C253 102.029 251.819 101.723 251.24 101.734C250.348 101.751 249.481 101.227 248.604 101.339C246.827 101.566 245.741 101.556 244.44 102.551M244.44 102.551C244.361 102.611 244.281 102.675 244.201 102.743M244.44 102.551C244.239 102.907 244.036 103.289 243.803 103.59C243.321 104.212 242.273 104.139 241.612 104.647C240.265 105.681 237.859 105.117 236.355 105.318C234.506 105.565 232.728 104.948 230.925 105.28C229.891 105.47 228.667 105.779 227.523 106.076M244.44 102.551C244.573 102.315 244.705 102.091 244.846 101.91C245.583 100.959 245.297 99.3782 245.482 98.2034M264.711 95.1483C264.491 94.2377 265.173 96.5565 265.586 97.3975C266.194 98.6359 267.407 97.8121 268.23 98.448C268.451 98.619 270.561 98.7874 271.044 98.8753C272.273 99.0992 273.479 98.7759 274.684 98.4842M214.266 71.4425C214.145 70.3736 217.448 69.1882 218.204 68.8175C219.746 68.0619 221.444 67.7029 222.729 66.52C223.77 65.5626 226.6 65.414 227.971 65.0822C229.517 64.7079 231.715 64.4657 232.844 65.9315C234.72 68.3673 235.321 71.6565 236.078 74.785C236.406 76.1381 237.207 78.095 237.86 79.4255C238.385 80.4949 239.269 83.1584 240.439 83.704C241.018 83.9742 241.024 85.357 241.514 85.7355C241.897 86.031 242.745 87.0505 242.884 87.5077C243.436 89.3137 244.702 90.8202 245.158 92.7053C245.571 94.4103 246.032 96.1343 245.557 97.8497M245.557 97.8497C245.682 97.8194 245.624 97.9796 245.482 98.2034M245.557 97.8497C245.525 97.9624 245.501 98.0807 245.482 98.2034M245.482 98.2034C245.246 98.5747 244.777 99.1211 244.525 99.264C243.815 99.6663 243.454 100.895 242.616 101.098L236.536 102.569C235.728 102.765 234.215 102.893 233.358 102.737C232.219 102.53 231.171 103.473 230.218 103.76C229.467 103.987 228.908 104.489 228.301 104.812M195.795 84.7043C194.866 80.8654 200.293 78.8923 202.741 77.0121C204.103 75.9659 205.341 74.8749 206.68 73.6919C208.208 72.3424 209.53 71.9125 211.551 71.4234C213.199 71.0246 214.473 71.4236 215.684 72.79C216.923 74.1886 218.127 74.7996 218.615 76.8142C219.5 80.4698 221.035 83.2167 223.02 86.3048C225.027 89.4273 227.682 91.8795 228.606 95.6974C228.965 97.1838 230.384 97.6527 229.806 99.9891M229.806 99.9891C229.805 99.9344 229.802 99.8798 229.799 99.8257C229.384 100.176 228.791 101.722 228.514 102.313C228.164 103.061 227.233 103.351 226.903 104.056C226.38 105.172 223.58 106.381 222.451 106.655C219.177 107.447 215.592 109.11 212.157 109.941M229.806 99.9891C229.816 100.372 229.778 100.77 229.671 101.188C229.298 102.649 228.912 103.679 228.301 104.812M209.783 113.102C209.746 112.196 210.329 111.087 211.019 110.436C211.438 110.041 211.792 109.957 212.163 109.941M212.163 109.941C212.161 109.941 212.159 109.941 212.157 109.941M212.163 109.941H212.157M212.163 109.941C212.253 109.937 212.343 109.937 212.435 109.938M181.706 99.2726C181.381 97.9297 182.618 96.3946 183.272 95.3245C184.054 94.0457 185.123 93.066 185.997 91.8097C186.446 91.1647 187.344 90.8948 187.784 90.1749C188.056 89.7306 188.66 88.6152 189.081 88.3771C190.485 87.582 191.619 86.3915 193.23 86.0017C194.505 85.693 195.974 84.9647 197.118 85.6615C198.397 86.4404 199.454 87.6447 200.537 88.5908C201.913 89.7922 202.494 91.6608 203.256 93.2114C203.986 94.6978 204.852 96.0793 205.674 97.5286C207.202 100.22 208.897 102.446 209.643 105.528C210.272 108.126 210.747 111.436 209.385 113.95C207.852 116.781 205.602 117.514 202.874 118.851C201.523 119.513 200.132 119.834 198.627 120.198C197.379 120.5 195.08 119.535 195.08 119.535M195.08 119.535C194.57 117.427 194.289 115.261 192.811 113.66C190.89 111.578 188.864 109.658 187.143 107.424C185.92 105.837 184.853 103.371 183.982 101.596C183.536 100.688 182.213 99.4878 181.144 99.7465C180.278 99.956 179.604 100.796 178.738 101.005C176.537 101.538 175.296 104.284 174.138 106.101C173.141 107.663 171.814 109.089 170.7 110.559C169.865 111.66 168.706 113.785 167.594 114.522C164.989 116.25 163.339 118.904 162.244 121.734C161.128 124.621 161.416 127.547 159.741 130.286C159.073 131.379 158.112 132.256 157.436 133.361C156.912 134.219 155.615 137.033 155.615 137.033C155.615 137.033 154.508 138.334 153.869 138.996M195.08 119.535C195.606 121.708 194.358 124.077 193.144 125.845C192.604 126.633 191.143 127.37 190.265 127.632C188.964 128.02 188.077 129.12 186.727 129.502C184.066 130.256 182.833 134.139 180.858 135.656C179.683 136.559 178.574 137.44 177.384 138.174M195.08 119.535C194.001 120.977 191.093 124.218 188.088 125.641C185.083 127.065 179.7 134.59 177.384 138.174M153.869 138.996C153.053 139.193 157.348 138.215 157.966 137.647C158.882 136.804 160.64 136.493 161.85 136.2C164.653 135.521 166.485 135.754 167.198 138.7C167.951 141.814 171.323 140.331 173.719 139.751C175.092 139.419 176.273 138.86 177.384 138.174M153.869 138.996C153.238 139.65 151.713 140.342 151.307 141.006C150.473 142.369 149.827 143.722 148.738 144.934C145.4 148.649 143.473 153.604 140.131 157.348C138.692 158.961 137.342 160.543 135.738 161.981C134.207 163.352 132.342 163.967 130.775 165.192C129.741 166 127.671 166.788 126.381 167.101C123.978 167.682 125.908 165.915 126.729 164.65C127.685 163.178 128.866 161.734 129.935 160.323C131.415 158.371 132.752 155.927 134.57 154.28C136.509 152.524 138.185 150.367 140.024 148.508C140.886 147.636 141.747 146.571 142.522 145.612C143.142 144.845 144.636 143.903 144.938 142.998M208.423 102.273C209.006 104.681 208.685 108.452 208.585 110.875C208.522 112.394 207.809 113.199 207.42 114.538C206.996 115.999 205.864 116.849 204.915 117.876M144.938 142.998C145.528 141.229 147.702 139.298 148.865 137.84C149.858 136.595 151.083 135.615 152.087 134.355C153.902 132.08 155.934 129.968 158.401 128.423C159.566 127.694 160.647 127.06 161.014 126.971M144.938 142.998C143.164 143.788 134.731 158.017 130.736 165.032M139.309 159.238C140.077 162.414 138.034 163.804 136.998 166.485C135.789 169.611 135.93 172.071 136.118 175.35L136.119 175.376C136.165 176.163 136.322 177.543 137.249 177.319M137.249 177.319C138.225 177.082 139.388 176.966 140.302 176.561C141.291 176.123 142.39 174.525 142.77 173.54C143.342 172.062 144.42 170.965 144.888 169.383C145.705 166.628 147.772 163.782 149.22 161.31C151.182 157.962 153.942 154.376 156.793 151.775C157.501 151.129 157.881 150.07 158.634 149.507C159.334 148.985 160.044 148.379 160.561 147.67C161.261 146.709 162.887 145.877 163.816 145.022C165.618 143.364 169.003 140.562 169.003 140.562C169.003 140.562 167.013 142.139 167.039 143.566C167.073 145.388 168.616 145.958 168.948 147.33C169.169 148.246 167.821 148.274 167.977 148.918C168.141 149.597 169.46 149.452 169.955 149.472C170.38 149.489 170.56 151.286 170.67 151.647C170.798 152.067 172.4 152.635 172.838 152.982C173.985 153.894 175.147 156.532 177.182 156.157C178.309 155.95 182.144 154.474 182.875 155.963C183.296 156.82 183.265 157.39 184.681 157.047C185.359 156.883 187.038 156.106 187.667 156.399C189.544 157.275 191.611 155.031 193.084 154.675C194.788 154.263 193.878 155.31 194.804 155.874C195.557 156.332 196.912 155.777 197.69 155.589C198.968 155.28 198.961 154.226 199.821 153.739C200.796 153.187 201.564 153.927 202.485 154.015C203.488 154.111 204.861 154.138 205.785 153.968C206.316 153.87 207.56 154.031 207.943 153.708C208.281 153.423 207.674 152.788 207.954 152.428C208.829 151.299 210.913 149.538 212.462 149.985C214.298 150.514 216.799 151.717 218.277 149.592C219.574 147.726 222.628 149.215 224.352 148.797C226.407 148.3 229.029 148.257 230.128 146.46C231.289 144.561 233.885 144.039 235.431 142.397C236.241 141.535 237.301 141.804 238.216 142.399C239.168 143.016 239.608 142.738 240.771 142.456C241.887 142.186 244.789 141.991 245.422 141.068C245.93 140.328 247.018 140.268 247.817 140.075C249.217 139.736 248.611 138.595 250.631 138.717C251.285 138.757 251.742 139.757 252.452 139.629C253.257 139.484 254.056 139.241 254.852 139.048C255.844 138.808 256.522 138.453 257.348 138.087C257.925 137.832 258.17 137.231 258.798 137.079C259.33 136.95 259.975 136.886 260.452 136.603C261.23 136.142 261.665 135.958 262.14 135.18C262.599 134.429 262.17 133.22 263.222 132.965C264.228 132.721 266.015 132.552 266.367 131.34C266.626 130.448 266.874 129.376 267.866 129.136C269.69 128.694 271.284 128.753 272.892 127.506C274.377 126.355 273.954 125.508 274.773 124.083C275.378 123.031 276.329 122.572 277.064 121.65C278.086 120.368 277.976 120.603 279.453 120.245C280.776 119.925 280.874 119.054 281.792 118.402C282.457 117.93 284.073 114.918 283.91 114.245C283.694 113.353 283.201 112.716 283.015 111.945C282.805 111.077 283.796 111.163 284.206 110.492C284.925 109.317 283.806 106.817 283.466 105.411C283.168 104.182 283.366 104.08 284.299 103.256C284.805 102.809 284.243 101.624 284.099 101.031C283.631 99.0946 282.914 98.2813 281.662 96.8687C281.213 96.3626 279.028 93.6904 278.608 93.7382M137.249 177.319C141.391 167.638 151.638 146.989 159.489 141.843M183.673 112.998C182.228 113.544 181.546 115.95 181.412 117.339C181.159 119.959 179.599 122.286 177.44 123.635M209.603 95.5633C210.862 93.5054 212.119 92.9256 214.419 92.3688L217.122 91.7148C217.551 91.6108 217.997 91.5296 218.42 91.4006C218.873 91.2624 218.597 90.6915 218.982 90.9263M230.999 85.989C232.416 85.646 235.295 84.4582 236.351 85.7079M246.813 85.5423C248.95 85.0252 250.996 85.9301 252.387 87.5745M252.495 83.829C252.676 83.5695 252.808 83.5111 253.058 83.3547M192.268 106.522C195.145 107.181 196.942 108.096 199.927 107.373M197.642 103.53C197.611 103.207 197.771 103.409 197.962 103.453M188.279 138.321C188.195 137.578 189.583 137.544 190.138 137.41C191.328 137.122 191.199 138.572 191.942 139.024C193.954 140.25 190.545 141.007 190.207 142.468M204.66 133.434C205.361 133.354 205.664 134.147 206.263 134.327C207.343 134.654 208.131 134.439 209.206 134.179C210.95 133.757 209.814 131.813 209.478 130.422M203.397 141.583C202.604 141.824 200.951 143.979 201.304 144.396M233.503 118.339C234.603 118.003 236.877 116.443 237.379 118.517C237.845 120.442 236.061 121.865 234.149 122.328M237.707 119.872C238.073 121.384 239.505 121.809 240.85 122.3M258.468 113.253C257.962 114.177 257.257 115.857 258.13 116.842C258.746 117.537 260.868 115.691 261.539 115.379M262.089 112.376C262.666 114.756 263.8 116.216 265.129 118.337M248.179 128.817C249.126 128.709 249.855 129.367 250.963 129.099C252.273 128.782 252.29 127.324 252.039 126.288M219.261 147.933C218.196 148.055 218.826 145.91 219.179 145.544C220.11 144.579 220.514 144.441 221.851 144.118M282.28 111.316C280.165 111.827 279.629 112.242 280.147 114.383M193.983 154.37C193.687 153.147 193.638 153.01 194.565 152.157C195.003 151.754 196.385 150.977 196.792 151.458M226.626 130.845C227.585 130.613 229.245 129.722 229.809 130.871C230.733 132.753 228.39 133.078 228.104 134.313M222.962 127.586C223.082 128.218 223.072 128.827 223.097 129.467M227.523 106.076C226.786 106.266 226.082 106.452 225.485 106.597C226.37 106.382 226.805 105.326 227.813 105.019C227.981 104.967 228.143 104.895 228.301 104.812M227.523 106.076C226.785 106.936 225.07 107.994 224.194 108.262C223.459 108.486 222.817 109.271 221.948 109.481L218.908 110.217C217.062 110.664 215.253 109.411 213.402 109.859C213.097 109.933 212.832 109.94 212.586 109.939C212.551 109.939 212.516 109.939 212.482 109.938M227.523 106.076C227.608 105.977 227.68 105.881 227.736 105.789C227.944 105.448 228.131 105.126 228.301 104.812M212.482 109.938C212.466 109.938 212.451 109.938 212.435 109.938M212.482 109.938H212.435" stroke="#418A91" stroke-opacity="0.46" stroke-width="3" stroke-linecap="round"/>
<path fill-rule="evenodd" clip-rule="evenodd" d="M73.155 270.354C72.7372 271.439 72.3146 272.536 72.0004 273.677C71.6408 274.982 71.5111 276.312 71.3818 277.637C71.2533 278.955 71.1251 280.268 70.7719 281.551C70.4019 282.894 69.9118 284.314 69.4106 285.767C68.3593 288.814 67.2592 292.003 67.1164 294.915C67.0909 295.434 67.2053 295.993 67.3201 296.555C67.4749 297.313 67.6306 298.075 67.4452 298.748L64.2712 310.269C63.6235 312.62 64.0654 314.706 65.213 316.714C65.9642 318.028 66.9537 319.145 67.9293 320.246C68.5297 320.924 69.1249 321.596 69.6561 322.304C70.893 323.953 74.3195 325.813 76.1853 326.675C76.9941 327.049 77.7483 327.48 78.5016 327.91C79.8244 328.665 81.1445 329.419 82.7535 329.862C84.2421 330.272 85.7518 330.736 87.2758 331.203L87.2762 331.204C92.3725 332.768 97.6294 334.382 102.795 334.214C104.047 334.173 105.288 334.386 106.528 334.598C107.884 334.83 109.24 335.063 110.61 334.963C112.729 334.809 115.583 334.813 117.585 335.248C120.626 335.907 127.275 334.216 128.184 330.917L130.16 323.743C130.362 323.012 130.729 322.235 131.108 321.433C131.835 319.894 132.607 318.258 132.349 316.653C132.025 314.648 131.765 311.09 132.305 309.131C132.629 307.952 133.181 306.782 133.729 305.617C134.342 304.316 134.952 303.021 135.239 301.729C136.007 298.272 137.123 294.454 138.189 290.807H138.19C138.704 289.045 139.208 287.324 139.654 285.702C139.839 285.031 139.665 284.568 139.236 284.261C138.896 284.572 138.456 284.772 137.682 284.923C136.607 285.133 135.435 284.619 134.37 284.494C131.886 284.202 130.082 286.266 127.715 285.707C126.597 285.443 125.461 285.557 124.345 285.249C123.547 285.029 122.82 284.875 122.022 284.787C121.8 284.8 121.579 284.813 121.363 284.826C120.729 284.864 120.126 284.901 119.59 284.916C116.886 284.992 114.809 283.867 112.64 282.692C112.342 282.53 112.043 282.368 111.74 282.208C111.716 282.195 111.693 282.183 111.669 282.171C111.484 282.153 111.306 282.128 111.142 282.082C110.788 281.985 110.488 281.786 110.201 281.569C109.13 281.214 107.952 280.965 106.817 280.725C106.016 280.555 105.238 280.39 104.534 280.197C102.649 279.677 99.278 278.742 97.7539 277.497C96.7583 276.684 94.7646 276.307 93.0716 275.987C92.3745 275.855 91.7284 275.733 91.2239 275.594C90.7261 275.457 90.237 275.256 89.755 275.014C88.7664 274.734 87.9748 274.12 87.2249 273.46C87.2022 273.445 87.1795 273.429 87.1568 273.414C86.4025 272.905 85.6595 272.403 84.9212 272.013C84.2631 271.665 83.6303 271.347 83.0052 271.033C82.6149 270.837 82.2276 270.642 81.839 270.443C80.3647 270.463 78.7296 269.943 77.5222 269.304C76.7365 268.889 75.5192 268.365 75.2582 267.493C75.1458 267.457 75.04 267.423 74.9422 267.392C74.5686 267.273 74.176 267.489 74.0581 267.861C73.7942 268.694 73.476 269.52 73.155 270.354ZM75.8524 306.235C75.2021 305.976 74.6885 305.235 74.3229 304.463C73.9813 303.741 72.9931 303.454 72.58 304.136C71.3458 306.171 72.3595 308.03 73.6582 309.264C74.4855 310.05 75.7087 310.098 76.8506 310.1C77.6423 310.101 78.4974 310.253 79.1286 310.73C80.623 311.86 81.7979 312.184 82.8211 311.747C83.4808 311.466 84.8189 311.418 85.7476 311.435C86.0115 311.44 86.1873 311.168 86.0157 310.968C85.3703 310.216 84.3371 310.068 83.7168 309.979C83.5533 309.955 83.4185 309.936 83.327 309.911C83.1823 309.871 82.953 309.867 82.6922 309.863C82.0456 309.852 81.2049 309.838 80.9772 309.263C80.6577 308.457 77.317 306.818 75.8524 306.235ZM129.16 292.447C128.45 292.923 127.629 293.297 126.938 293.186C125.382 292.937 121.673 292.634 120.986 293.163C120.496 293.54 119.767 293.122 119.206 292.8C118.979 292.67 118.781 292.556 118.636 292.516C118.544 292.491 118.419 292.438 118.266 292.375C117.688 292.133 116.724 291.732 115.785 292.047C115.535 292.131 115.547 292.455 115.776 292.586C116.583 293.046 117.707 293.773 118.13 294.352C118.785 295.251 119.96 295.575 121.822 295.369C122.609 295.283 123.421 295.59 124.102 295.995C125.083 296.578 126.159 297.163 127.272 296.912C129.019 296.517 130.842 295.439 130.824 293.059C130.818 292.262 129.823 292.002 129.16 292.447ZM72.41 312.831C71.1041 312.327 70.8604 311.027 70.9018 310.439C71.7094 309.081 72.581 310.243 72.9159 310.994C73.2914 311.816 73.7159 313.334 72.41 312.831ZM127.551 300.123C126.839 300.393 125.371 300.566 122.94 299.98C119.805 299.225 121.888 298.743 123.322 298.596C124.47 298.471 126.764 298.505 127.7 299.471C127.908 299.686 127.83 300.017 127.551 300.123Z" fill="#418A91" fill-opacity="0.46"/>
<path d="M77.202 264.026C75.9 263.668 75.5099 265.875 75.2591 266.785C75.1877 267.044 75.1943 267.279 75.2582 267.493M75.2582 267.493C75.1458 267.457 75.04 267.423 74.9422 267.392C74.5686 267.273 74.176 267.489 74.0581 267.861C73.7942 268.694 73.476 269.52 73.155 270.354C72.7372 271.439 72.3146 272.536 72.0004 273.677C71.6408 274.982 71.5111 276.312 71.3818 277.637C71.2533 278.955 71.1251 280.268 70.7719 281.551C70.4019 282.894 69.9118 284.314 69.4106 285.767C68.3593 288.814 67.2592 292.003 67.1164 294.915C67.0909 295.434 67.2053 295.993 67.3201 296.555C67.4749 297.313 67.6306 298.075 67.4452 298.748L64.2712 310.269C63.6235 312.62 64.0654 314.706 65.213 316.714C65.9642 318.028 66.9537 319.145 67.9293 320.246C68.5297 320.924 69.1249 321.596 69.6561 322.304C70.893 323.953 74.3195 325.813 76.1853 326.675C76.9941 327.049 77.7483 327.48 78.5016 327.91C79.8244 328.665 81.1445 329.419 82.7535 329.862C84.2421 330.272 85.7518 330.736 87.2758 331.203L87.2762 331.204C92.3725 332.768 97.6294 334.382 102.795 334.214C104.047 334.173 105.288 334.386 106.528 334.598C107.884 334.83 109.24 335.063 110.61 334.963C112.729 334.809 115.583 334.813 117.585 335.248C120.626 335.907 127.275 334.216 128.184 330.917L130.16 323.743C130.362 323.012 130.729 322.235 131.108 321.433C131.835 319.894 132.607 318.258 132.349 316.653C132.025 314.648 131.765 311.09 132.305 309.131C132.629 307.952 133.181 306.782 133.729 305.617C134.342 304.316 134.952 303.021 135.239 301.729C136.007 298.272 137.123 294.454 138.189 290.807H138.19C138.704 289.045 139.208 287.324 139.654 285.702C139.839 285.031 139.665 284.568 139.236 284.261M75.2582 267.493C75.5192 268.365 76.7365 268.889 77.5222 269.304C78.7296 269.943 80.3647 270.463 81.839 270.443M75.2582 267.493C76.4977 267.891 78.5309 268.576 79.1986 268.981C80.1157 269.538 80.9804 270.002 81.839 270.443M76.3827 263.565C75.3467 262.873 75.2343 262.582 75.5455 261.452C75.7615 260.668 75.8779 259.967 76.4744 259.368C77.1817 258.658 77.4998 258.373 78.4688 258.14C79.3218 257.935 79.9615 257.456 80.7541 256.952C81.527 256.461 82.731 256.986 83.301 256.294C83.8345 255.647 84.1282 255.487 84.8856 254.979C85.7138 254.424 86.9262 254.843 87.7912 254.355C88.4117 254.004 89.1402 253.915 89.7716 253.606C90.4148 253.291 91.3709 253.85 92.0306 253.993C92.5883 254.114 93.0921 253.447 93.7164 253.503C94.2216 253.549 94.5679 253.28 95.0795 253.421L96.7896 253.892C97.8472 254.184 98.5175 254.189 99.6089 253.963C101.452 253.582 103.252 254.967 104.995 255.447C106.113 255.755 107.13 256.178 108.286 256.001C109.153 255.868 110.319 255.737 111.172 255.972C112.085 256.224 113.044 256.412 113.93 256.745C114.535 256.972 114.956 257.536 115.525 257.825C116.637 258.389 118.104 258.548 119.321 258.452C120.16 258.386 120.887 258.648 121.69 258.869C123.086 259.254 123.467 260.471 124.518 261.244C125.967 262.309 127.881 261.987 129.561 262.45C130.599 262.736 132.101 262.853 132.553 263.993C132.915 264.906 132.651 265.37 133.504 266.124C134.16 266.705 134.937 266.998 135.706 267.385C138.066 268.569 140.846 269.146 139.987 272.263C139.717 273.243 139.077 274.105 138.969 275.147C138.908 275.742 140.064 275.981 140.314 276.419C141.162 277.903 137.442 277.662 136.806 277.753C136.47 277.801 134.465 278.546 135.77 278.984C136.451 279.213 137.166 279.369 137.859 279.56C139.216 279.934 141.076 281.51 140.166 282.967C139.805 283.544 139.568 283.956 139.236 284.261M139.236 284.261C138.896 284.572 138.456 284.772 137.682 284.923C136.607 285.133 135.435 284.619 134.37 284.494C131.886 284.202 130.082 286.266 127.715 285.707C126.597 285.443 125.461 285.557 124.345 285.249C123.547 285.029 122.82 284.875 122.022 284.787M139.236 284.261C137.792 283.225 133.463 283.959 130.266 284.501C128.59 284.785 127.226 285.017 126.749 284.913C125.442 284.63 123.673 284.693 122.022 284.787M92.591 253.677C92.0249 255.732 91.0292 258.659 88.3469 257.92M91.5663 257.395C90.7601 257.173 93.3184 257.557 93.9849 258.061M132.626 266.353C130.763 267.405 129.304 266.614 127.268 266.053M83.4191 265.504C84.5523 265.685 86.0919 264.213 87.0004 263.667C88.6094 262.7 90.5412 262.793 92.3274 262.363C94.0953 261.938 95.4353 261.189 97.3388 261.155C98.1736 261.14 99.0124 261.657 99.8353 261.778C101.065 261.957 102.313 262.211 103.567 262.113C105.688 261.947 107.67 262.347 109.728 261.692C111.233 261.214 113.109 261.683 114.587 262.09C116.083 262.502 117.345 263.891 118.658 264.675C119.901 265.418 120.861 267.583 122.247 267.965M107.83 267.052C109.456 267.192 110.935 267.719 112.508 268.105C114.013 268.476 115.717 268.189 117.219 268.227M117.219 268.227C118.248 268.252 119.601 267.471 120.549 267.732M117.219 268.227C117.344 266.877 116.719 263.685 113.217 261.714C115.382 262.282 119.879 264.28 120.549 267.732M120.549 267.732C121.477 267.988 122.405 268.244 123.334 268.499C124.419 268.798 125.642 268.979 126.585 269.578C127.359 270.069 128.042 270.736 128.795 271.193C129.774 271.788 130.692 274.698 129.056 275.017M129.155 275.515C129.003 276.067 128.249 276.348 128.074 276.864C127.815 277.624 127.63 278.389 126.663 278.123C125.823 277.891 125.119 277.462 124.304 277.238C123.572 277.036 123.082 276.236 122.396 276.006C120.794 275.468 118.951 276.733 117.19 276.441C116.186 276.275 115.235 275.798 114.227 275.651C113.235 275.506 112.264 275.803 111.228 275.518C109.518 275.047 108.243 273.284 106.594 272.829C105.597 272.555 104.92 273.394 103.987 273.275C102.904 273.136 101.912 272.49 101.073 271.831C99.7504 270.793 98.5138 269.897 96.8805 269.447C95.8468 269.163 94.4682 270.046 94.1892 271.059M86.7596 264.542C88.9628 265.148 91.1825 265.44 93.3673 266.127C94.6015 266.514 96.8087 267.455 96.8919 268.98M122.022 284.787C121.8 284.8 121.579 284.813 121.363 284.826C120.729 284.864 120.126 284.901 119.59 284.916C116.886 284.992 114.809 283.867 112.64 282.692C112.342 282.53 112.043 282.368 111.74 282.208C111.716 282.195 111.693 282.183 111.669 282.171M122.022 284.787C121.939 284.778 121.856 284.77 121.772 284.762C119.783 284.583 117.847 285.306 116.202 283.895C115.507 283.299 114.468 283.198 113.717 282.609C113.175 282.183 112.37 282.237 111.669 282.171M111.669 282.171C111.484 282.153 111.306 282.128 111.142 282.082C110.788 281.985 110.488 281.786 110.201 281.569M111.669 282.171C111.217 281.938 110.722 281.741 110.201 281.569M110.201 281.569C109.13 281.214 107.952 280.965 106.817 280.725C106.016 280.555 105.238 280.39 104.534 280.197C102.649 279.677 99.278 278.742 97.7539 277.497C96.7583 276.684 94.7646 276.307 93.0716 275.987C92.3745 275.855 91.7284 275.733 91.2239 275.594C90.7261 275.457 90.237 275.256 89.755 275.014M110.201 281.569C109.782 281.251 109.391 280.894 108.904 280.76C108.181 280.561 107.572 280.628 106.804 280.417C106.011 280.198 105.191 279.885 104.737 279.141C104.164 278.202 103.278 278.354 102.284 278.217C100.528 277.975 98.7299 278.019 97.1039 276.986C96.3939 276.535 95.6154 275.779 94.864 275.48C94.1565 275.199 93.8471 274.039 93.0251 274.046C92.4462 274.05 92.9126 275.884 91.8746 275.598L89.7858 275.023C89.7755 275.02 89.7652 275.017 89.755 275.014M89.755 275.014C88.7664 274.734 87.9748 274.12 87.2249 273.46M89.755 275.014C88.8917 274.581 88.0514 274.018 87.2249 273.46M87.2249 273.46C87.2022 273.445 87.1795 273.429 87.1568 273.414C86.4025 272.905 85.6595 272.403 84.9212 272.013C84.2631 271.665 83.6303 271.347 83.0052 271.033C82.6149 270.837 82.2276 270.642 81.839 270.443M87.2249 273.46C86.786 273.073 86.3614 272.671 85.92 272.31C85.3459 271.841 85.2529 270.715 84.5225 270.514C83.8926 270.34 83.184 270.293 82.5464 270.388C82.3166 270.422 82.0799 270.44 81.839 270.443M74.3229 304.463C74.6885 305.235 75.2021 305.976 75.8524 306.235C77.317 306.818 80.6577 308.457 80.9772 309.263C81.2049 309.838 82.0456 309.852 82.6922 309.863C82.953 309.867 83.1823 309.871 83.327 309.911C83.4185 309.936 83.5533 309.955 83.7168 309.979C84.3371 310.068 85.3703 310.216 86.0157 310.968C86.1873 311.168 86.0115 311.44 85.7476 311.435C84.8189 311.418 83.4808 311.466 82.8211 311.747C81.7979 312.184 80.623 311.86 79.1286 310.73C78.4974 310.253 77.6423 310.101 76.8506 310.1C75.7087 310.098 74.4855 310.05 73.6582 309.264C72.3595 308.03 71.3458 306.171 72.58 304.136C72.9931 303.454 73.9813 303.741 74.3229 304.463ZM126.938 293.186C127.629 293.297 128.45 292.923 129.16 292.447C129.823 292.002 130.818 292.262 130.824 293.059C130.842 295.439 129.019 296.517 127.272 296.912C126.159 297.163 125.083 296.578 124.102 295.995C123.421 295.59 122.609 295.283 121.822 295.369C119.96 295.575 118.785 295.251 118.13 294.352C117.707 293.773 116.583 293.046 115.776 292.586C115.547 292.455 115.535 292.131 115.785 292.047C116.724 291.732 117.688 292.133 118.266 292.375C118.419 292.438 118.544 292.491 118.636 292.516C118.781 292.556 118.979 292.67 119.206 292.8C119.767 293.122 120.496 293.54 120.986 293.163C121.673 292.634 125.382 292.937 126.938 293.186ZM70.9018 310.439C70.8604 311.027 71.1041 312.327 72.41 312.831C73.7159 313.334 73.2914 311.816 72.9159 310.994C72.581 310.243 71.7094 309.081 70.9018 310.439ZM122.94 299.98C125.371 300.566 126.839 300.393 127.551 300.123C127.83 300.017 127.908 299.686 127.7 299.471C126.764 298.505 124.47 298.471 123.322 298.596C121.888 298.743 119.805 299.225 122.94 299.98Z" stroke="#418A91" stroke-opacity="0.46" stroke-width="2" stroke-linecap="round"/>
<path d="M337.742 661.612L374.781 299.181L370.273 298.72L342.227 533.393M337.742 661.612L320.928 826.149C318.58 827.579 312.588 829.305 307.404 824.767L327.034 660.518M337.742 661.612C335.813 663.389 330.97 665.657 327.034 660.518M342.227 533.393L327.034 660.518M342.227 533.393C343.454 533.898 346.066 534.697 346.699 533.851M323.086 755.996L316.983 815.725M341.589 623.971C340.52 624.773 337.942 625.785 336.18 623.419" stroke="#418A91" stroke-opacity="0.46" stroke-width="3"/>
<path d="M236.692 662.961L188.558 301.836L193.05 301.237L228.278 534.941M236.692 662.961L258.544 826.905C260.935 828.263 266.976 829.804 272.019 825.109L247.362 661.539M236.692 662.961C238.675 664.678 243.585 666.797 247.362 661.539M228.278 534.941L247.362 661.539M228.278 534.941C227.067 535.483 224.481 536.361 223.822 535.535M254.235 756.851L262.168 816.365M231.693 625.456C232.786 626.225 235.394 627.157 237.083 624.738" stroke="#418A91" stroke-opacity="0.46" stroke-width="3"/>
</g>
</g>
<defs>
<clipPath id="clip0_2_5">
<rect width="451" height="637" fill="white" transform="translate(0.55835 0.0397949)"/>
</clipPath>
</defs>
</svg>
