<svg width="534" height="534" viewBox="0 0 534 454" fill="none" xmlns="http://www.w3.org/2000/svg">
<g clip-path="url(#clip0_2_35)">
<mask id="mask0_2_35" style="mask-type:luminance" maskUnits="userSpaceOnUse" x="1" y="-33" width="533" height="533">
<path d="M534 -33H1V499.96H534V-33Z" fill="white"/>
</mask>
<g mask="url(#mask0_2_35)">
<path d="M195.06 28.3063C193.275 28.2003 181.412 27.4139 180.663 28.9596C180.655 29.0394 180.647 29.1281 180.639 29.2223C180.616 29.514 180.596 29.8592 180.609 30.1586C180.614 30.268 180.623 30.3713 180.638 30.4636C180.825 31.6312 180.589 32.6793 180.778 33.8539C181.171 36.3061 180.865 38.6255 181.127 41.0722C181.198 41.733 181.21 42.4388 181.184 43.1661C181.108 45.2552 180.711 47.5234 180.444 49.4214C180.023 52.415 179.971 55.8056 179.908 58.8249C179.894 59.4975 179.847 60.1926 179.779 60.8992C180.149 61.1892 180.481 61.5172 180.706 61.8912C180.547 64.856 180.545 67.8225 180.384 70.8322C180.257 73.1961 180.006 75.5599 179.94 77.9277C179.885 79.8756 179.873 81.7024 179.427 83.6213C179.07 85.1592 178.335 85.3571 177.306 85.4111C177.374 90.8907 178.046 96.4993 179.987 101.47C181.203 104.584 182.967 107.447 184.178 110.496C184.257 110.694 184.352 110.931 184.462 111.191C184.506 111.206 184.547 111.225 184.586 111.248C185.768 111.949 188.687 110.856 189.785 110.514C192.219 109.755 194.387 108.61 196.896 108.014C199.065 107.498 201.239 107.166 203.419 106.712C205.394 106.3 207.294 106.276 209.276 105.983C210.502 105.802 212.408 105.056 213.616 105.387C214.462 105.618 215.513 105.724 216.364 105.425C217.054 105.181 217.551 104.587 218.256 104.364C218.583 104.26 219.049 104.314 219.343 104.123C219.354 104.116 219.365 104.108 219.376 104.102C218.451 103.518 216.908 103.301 215.911 102.755C211.842 100.524 211.706 95.4624 211.056 91.4097C210.316 86.804 209.83 82.5064 210.322 77.8767C210.332 77.7877 210.341 77.6977 210.35 77.6087C209.846 77.9107 209.39 78.2717 209.053 78.7666C208.108 80.1525 208.86 78.1797 209.036 77.4107C209.332 76.1198 209.162 74.8269 209.326 73.523C209.609 71.2682 209.968 68.8854 210 66.6133C210.106 59.2025 208.396 51.9152 208.57 44.511C208.685 39.6016 209.025 34.6478 208.781 29.7309C208.622 29.2417 208.46 28.7661 208.301 28.3142C208.082 27.6929 207.974 24.2834 207.172 24.3642C206.047 24.4776 205.972 25.6561 204.995 25.926C203.314 26.3907 202.034 27.2095 200.191 27.5053C198.584 27.7632 196.681 28.4025 195.06 28.3063Z" fill="#418A91" fill-opacity="0.46"/>
<path d="M215.183 108.439C217.52 107.512 220.689 108.575 220.136 105.13C220.064 104.68 219.778 104.356 219.376 104.102C219.365 104.108 219.354 104.116 219.343 104.123C219.049 104.314 218.583 104.26 218.256 104.364C217.551 104.587 217.054 105.181 216.364 105.425C215.513 105.724 214.462 105.618 213.616 105.387C212.408 105.056 210.502 105.802 209.276 105.983C207.294 106.276 205.394 106.3 203.419 106.711C201.239 107.165 199.065 107.498 196.896 108.014C194.387 108.61 192.219 109.755 189.785 110.514C188.687 110.856 185.768 111.949 184.586 111.248C184.547 111.225 184.506 111.206 184.462 111.191C185.245 113.041 186.792 116.139 188.677 115.837C190.451 115.552 191.995 114.496 193.854 114.197C196.199 113.821 198.633 113.026 201.088 112.632C206.18 111.815 210.414 110.33 215.183 108.439Z" fill="#418A91" fill-opacity="0.46"/>
<path d="M180.64 29.2234L180.639 29.2223M180.639 29.2223C180.615 29.128 180.623 29.0405 180.663 28.9595M180.639 29.2223C180.647 29.128 180.655 29.0393 180.663 28.9595M180.639 29.2223C180.616 29.514 180.596 29.8591 180.609 30.1585M180.663 28.9595C181.412 27.4138 193.275 28.2003 195.06 28.3062C196.681 28.4024 198.584 27.7631 200.191 27.5052C202.034 27.2094 203.314 26.3906 204.995 25.9259C205.972 25.656 206.047 24.4775 207.172 24.3641C207.974 24.2833 208.082 27.6928 208.301 28.3141C208.46 28.766 208.622 29.2417 208.781 29.7308M180.663 28.9595C180.711 28.4403 180.738 28.2988 180.476 29.4568M180.609 30.1585C180.704 30.1934 180.8 30.231 180.895 30.2722C181.802 30.6632 182.688 30.6059 183.556 31.1587M180.609 30.1585C180.614 30.2679 180.623 30.3712 180.638 30.4636C180.825 31.6311 180.589 32.6792 180.778 33.8538C181.171 36.3061 180.865 38.6255 181.127 41.0721C181.198 41.7329 181.21 42.4387 181.184 43.166M180.609 30.1585C180.045 29.9511 179.487 29.8406 178.902 29.657C177.95 29.3583 177.168 28.7682 176.166 28.5821C175.022 28.3697 173.5 28.5646 172.347 28.7496C171.013 28.9638 169.608 28.7884 168.264 29.0041L157.616 30.7131C156.863 30.8339 156.197 30.9682 155.478 31.212C154.359 31.5916 153.078 31.625 152.002 32.0593C150.034 32.8536 147.703 33.1056 145.604 33.4424C140.153 34.3172 134.544 34.015 129.074 34.893C122.15 36.0041 116.011 40.297 110.142 43.9539C106.787 46.0446 103.353 47.9482 100.162 50.3093C98.3159 51.675 96.8236 54.3876 96.7751 56.7085C96.7266 59.0287 96.2683 61.3772 97.1337 63.6644C97.5654 64.8054 97.9184 65.8946 98.43 67.0185C98.9715 68.2084 99.5181 68.9443 100.308 69.9682C101.503 71.5181 103.877 71.8351 105.604 72.413C107.874 73.173 110.554 73.8229 112.964 73.548C114.895 73.327 116.903 73.741 118.86 73.615C120.976 73.478 123.215 73.16 125.334 73.466C127.696 73.8069 130.049 73.8539 132.368 74.4419C134.511 74.9849 136.279 76.6907 138.478 77.1677C140.006 77.4987 141.653 77.7037 143.209 77.8226C145.767 78.0176 148.304 77.3947 150.87 77.6397C154.235 77.9596 157.492 79.1056 160.605 80.3745C165.549 82.3903 170.293 86.071 175.937 85.4841C176.436 85.4321 176.894 85.4331 177.306 85.4111M208.781 29.7308C208.741 28.9357 208.687 28.1417 208.613 27.3488C208.574 26.9323 208.273 25.3833 208.492 24.997C208.765 24.5157 208.625 23.6076 208.801 24.7024M208.781 29.7308C209.025 34.6478 208.685 39.6015 208.57 44.5109C208.396 51.9152 210.106 59.2024 210 66.6133C209.968 68.8853 209.609 71.2681 209.326 73.523C209.162 74.8269 209.332 76.1198 209.036 77.4107C208.86 78.1796 208.108 80.1525 209.053 78.7666C209.39 78.2716 209.846 77.9106 210.35 77.6087M208.781 29.7308C209.301 31.334 209.786 33.0824 210.031 34.6147C210.414 37.0006 211.188 39.2995 211.582 41.7524C212.013 44.4373 212.046 47.1646 212.466 49.7828C213.119 53.8475 212.268 58.2703 211.739 62.3377C211.077 67.4284 210.876 72.557 210.35 77.6087M183.877 31.9088C183.549 30.8503 183.414 31.5238 183.518 32.167L183.526 32.2208C183.65 32.9939 183.765 33.7072 183.735 34.4922C183.625 37.3374 183.587 40.1753 183.342 43.0159C183.158 45.1418 182.569 47.236 182.366 49.3624C182.172 51.3852 181.799 53.3945 181.427 55.3909C181.022 57.5677 180.822 59.729 180.706 61.8911M180.706 61.8911C180.844 62.12 180.942 62.3661 180.984 62.6311M180.706 61.8911C180.481 61.5172 180.149 61.1891 179.779 60.8991M180.706 61.8911C180.547 64.8559 180.545 67.8224 180.384 70.8322C180.257 73.196 180.006 75.5598 179.94 77.9276C179.885 79.8755 179.873 81.7024 179.427 83.6212C179.07 85.1591 178.334 85.3571 177.306 85.4111M164.09 29.8743C165.436 29.6582 166.907 30.6301 168.119 31.2314C170.079 32.2039 171.804 33.5876 173.396 35.0824C174.397 36.0222 175.326 37.0058 176.328 37.9295C176.898 38.4555 177.468 39.0658 178.08 39.5409C178.54 39.8981 178.702 40.4316 179.181 40.7779C180.042 41.3998 180.623 42.2795 181.184 43.166M181.184 43.166C181.623 43.8602 182.05 44.5585 182.59 45.1403M181.184 43.166C181.108 45.2552 180.711 47.5233 180.444 49.4214C180.023 52.4149 179.971 55.8055 179.908 58.8249C179.894 59.4974 179.847 60.1926 179.779 60.8991M147.396 33.355C148.277 34.5233 150.092 35.5102 151.425 35.959C153.282 36.5844 154.976 38.439 156.178 39.9498C158.606 43.0017 160.215 46.2515 162.01 49.6898C164.208 53.8975 168.146 55.6816 172.491 57.2813C174.451 58.0026 176.224 58.7483 178.033 59.7983C178.54 60.0927 179.206 60.4501 179.779 60.8991M179.779 60.8991C179.563 63.1407 179.128 65.498 178.825 67.6204C178.294 71.3271 177.701 75.1128 177.478 78.8376C177.35 80.9724 177.278 83.1812 177.306 85.4111M158.891 43.7337C159.023 44.5557 159.985 45.7133 160.511 46.3237C161.337 47.2826 162.022 48.3084 162.754 49.3258C164.453 51.6906 165.938 54.1894 167.656 56.4653C169.713 59.1913 172.165 61.6188 174.663 63.9462C175.839 65.0415 176.777 66.6726 178.071 67.6074C178.458 67.8874 179.203 69.0363 179.28 69.5173C179.384 70.1662 180.045 70.5322 180.149 71.1811M120.56 38.6636C121.733 39.2578 123.204 39.0307 124.434 39.7451C125.42 40.3174 126.668 40.6996 127.53 41.4637C129.51 43.2193 131.625 45.1648 133.271 47.2329C135.463 49.9877 137.516 52.9011 139.912 55.4851C141.967 57.7011 145.108 59.3897 147.916 60.4237C153.807 62.5926 159.652 64.9531 163.925 69.8222C166.213 72.4281 168.256 75.0299 170.233 77.8716C171.371 79.5085 171.804 81.7814 173.065 83.2952C173.511 83.8302 174.094 84.7081 174.199 85.3621M119.716 38.3985C121.936 38.0422 123.088 38.8588 125.108 39.4925C126.315 39.8712 127.261 41.0577 128.242 41.7949C128.686 42.129 128.98 42.5789 129.387 42.9582C129.815 43.3571 130.078 43.931 130.492 44.2839C131.47 45.1189 132.107 46.3843 132.988 47.3343C133.77 48.1784 134.682 48.9946 135.262 49.9752C135.837 50.9494 137.037 51.5685 137.809 52.3719C138.689 53.2887 139.48 54.5351 140.486 55.3041C142.523 56.8616 144.205 59.4512 145.843 61.458C147.412 63.3804 149.555 64.8444 150.903 67.0135C152.401 69.4243 154.592 71.5431 155.784 74.0899C156.508 75.6378 158.081 77.4317 158.347 79.0886M103.891 48.5528C105.698 47.7086 107.856 48.4499 109.227 49.8561C110.389 51.0473 112.277 51.869 113.615 52.8924C115.045 53.9848 116.021 55.6991 117.452 56.7965C118.471 57.5779 119.195 59.9406 120.426 60.3269M207.854 25.055C208.398 23.4577 211.581 21.3399 213.22 20.9877C214.776 20.6532 216.304 20.2923 217.883 20.039C219.259 19.8181 220.973 19.3793 222.335 19.7252C223.382 19.991 224.767 19.3225 225.749 19.6782C226.375 19.9047 227.547 19.4899 228.21 19.3835C229.962 19.1023 231.653 18.7365 233.373 19.0557C235.388 19.4297 237.431 19.8674 239.343 20.6917C241.641 21.6827 243.305 22.913 245.169 24.5658C245.983 25.2872 246.787 26.0703 247.639 26.6855C248.436 27.2613 249.604 27.4004 250.512 27.716C251.201 27.9553 258.13 27.6509 257.458 29.1173M217.915 20.234C222.269 20.4188 226.534 19.452 230.83 18.7625C231.695 18.6237 232.595 18.5677 233.392 18.1954C234.315 17.7641 235.491 17.9879 236.442 17.6168C238.244 16.914 240.437 17.2397 242.183 16.4395C243.011 16.0599 244.05 16.0396 244.949 15.8955C245.925 15.7388 246.9 15.2583 247.872 15.0143C250.058 14.4661 252.108 13.187 254.094 12.1791C255.043 11.6971 255.98 11.1624 256.914 10.6576C258.105 10.0144 259.338 9.07058 260.582 8.57722C262.151 7.95487 263.248 6.33279 264.754 5.54745C267.816 3.95167 271.98 3.5172 275.028 5.45735C278.19 7.4706 278.108 11.3747 278.037 14.761L278.034 14.8829C277.946 19.0946 275.116 22.0837 272.23 24.8316C270.446 26.5301 268.101 27.1133 265.864 28.0131C264.784 28.4471 263.982 29.0721 262.799 29.262L259.963 29.7171C258.841 29.8971 257.658 29.4859 256.457 29.6786C254.998 29.9127 253.645 31.9339 252.875 33.0588C252.149 34.1201 251.56 35.2406 250.56 36.1355C249.502 37.0824 248.285 38.0702 247.842 39.4773C247.466 40.6727 247.198 41.811 246.731 42.9731C246.22 44.2465 245.309 45.4731 244.678 46.7091C244.111 47.8213 243.506 48.9076 242.862 49.973C242.155 51.1431 241.582 52.6871 240.756 53.7286C239.069 55.8564 238.393 58.8195 236.958 61.1068C236.335 62.1 236.151 63.3088 235.422 64.3146C234.639 65.3959 233.95 66.5528 233.232 67.6834C232.57 68.7263 232.018 69.7183 230.863 70.2122C229.762 70.6822 228.687 71.1441 227.717 71.8631C224.942 73.9219 221.824 74.7129 218.475 75.2498C216.165 75.6208 213.394 76.0828 211.274 77.1187C210.96 77.2717 210.647 77.4297 210.35 77.6087M210.35 77.6087C210.341 77.6977 210.332 77.7877 210.322 77.8766C209.83 82.5063 210.316 86.804 211.056 91.4096C211.706 95.4623 211.842 100.524 215.911 102.755C216.908 103.301 218.451 103.518 219.376 104.102M208.56 26.9455C208.966 29.4762 210.499 32.4917 212.603 34.0114C213.967 34.9972 215.13 35.3762 216.791 35.7327C219.057 36.2189 221.45 36.6799 223.772 36.7275C231.25 36.881 239.843 40.9815 243.406 47.804M234.077 39.6829C234.766 39.6494 235.607 41.2354 236.101 41.6735C237.375 42.8024 237.944 44.2945 238.941 45.6152C239.547 46.4177 240.395 48.1298 240.597 49.0565C240.798 49.979 241.683 51.2635 241.49 52.1194M256.459 11.6435C258.133 11.3749 260.37 12.8415 261.701 13.7142L261.707 13.7179C262.617 14.3147 263.249 15.1439 264.101 15.783C264.717 16.2454 265.111 16.5045 265.38 17.2254M209.158 40.6763C209.788 44.601 211.194 48.0769 213.388 51.4082C215.136 54.0609 218.234 56.1681 220.933 57.7229C223.706 59.3198 226.194 61.7014 228.528 63.8627C229.507 64.7685 230.538 65.9996 231.116 67.2104C231.472 67.9544 232.031 68.1834 232.169 69.0453M120.51 73.339C118.764 73.619 116.263 74.3509 115.556 76.2268C115.19 77.1977 115.196 77.7297 115.363 78.7736C115.579 80.1195 116.036 80.5574 116.909 81.5314C117.601 82.3023 118.431 82.8883 118.604 83.9642C118.738 84.7991 118.713 85.994 118.245 86.727C117.39 88.0669 116.816 90.8987 118.15 92.1086C118.492 92.4186 118.548 93.2485 118.462 93.7055C118.335 94.3874 118.6 95.1884 118.71 95.8703C118.911 97.1272 119.563 97.3362 120.818 97.1352C121.604 97.0092 121.999 96.2093 122.212 95.3743M122.212 95.3743C122.313 94.9774 122.373 94.5734 122.414 94.2294C122.516 93.3775 122.035 93.1285 122.041 94.0554C122.043 94.4844 122.123 94.9314 122.212 95.3743ZM122.212 95.3743C122.273 95.6813 122.339 95.9863 122.387 96.2823C122.594 97.5722 122.127 98.1001 121.314 98.9701C120.413 99.935 120.795 101.363 120.981 102.52C121.098 103.254 121.578 103.957 122.01 104.559C122.314 104.981 122.542 105.535 122.964 105.853C123.26 106.075 123.63 106.126 123.906 106.37C125.057 107.39 126.806 106.489 127.796 107.481C129.012 108.702 128.653 110.32 128.908 111.912C129.026 112.648 128.978 113.715 129.585 114.253C130.263 114.854 131.138 114.4 131.93 114.489C133.708 114.688 135.338 114.36 137.011 115.176C137.828 115.574 140.123 117.289 141.133 116.207C141.593 115.715 141.631 115.288 142.227 114.896C142.649 114.618 143.442 114.344 143.942 114.264C145.187 114.064 146.381 114.941 147.64 114.873C148.246 114.84 148.807 115.287 149.408 115.19L151.537 114.849C152.806 114.645 154.013 113.69 155.35 113.88C156.797 114.087 158.615 115.471 160.017 114.49C160.752 113.975 160.776 113.357 160.994 112.518C161.24 111.567 160.903 111.341 161.992 111.167C162.87 111.026 163.388 111.569 164.202 111.814C164.953 112.04 165.784 112.011 166.566 112.236C168.253 112.722 169.258 111.203 170.786 110.958C172.434 110.693 173.801 111.476 175.355 111.928C177.252 112.479 179.539 112.754 181.456 112.095C182.231 111.829 183.709 110.936 184.462 111.191M184.462 111.191C184.352 110.931 184.257 110.694 184.178 110.496C182.967 107.446 181.203 104.584 179.987 101.47C178.046 96.4992 177.374 90.8907 177.306 85.4111M184.462 111.191C184.506 111.206 184.547 111.225 184.586 111.248C185.768 111.949 188.687 110.856 189.785 110.514C192.219 109.755 194.387 108.61 196.896 108.014C199.065 107.498 201.239 107.165 203.419 106.711C205.394 106.3 207.294 106.276 209.276 105.983C210.502 105.802 212.408 105.056 213.616 105.387C214.462 105.618 215.513 105.724 216.364 105.425C217.054 105.181 217.551 104.587 218.256 104.364C218.583 104.26 219.049 104.314 219.343 104.123C219.354 104.116 219.365 104.108 219.376 104.102M184.462 111.191C185.245 113.041 186.792 116.139 188.677 115.837C190.451 115.552 191.995 114.496 193.854 114.197C196.199 113.821 198.633 113.026 201.088 112.632C206.18 111.815 210.414 110.33 215.183 108.439C217.52 107.512 220.689 108.575 220.136 105.13C220.064 104.68 219.778 104.356 219.376 104.102M234.355 96.4523C232.27 97.7572 231.19 99.936 229.129 101.35C227.9 102.193 226.494 102.418 225.051 102.65L225.025 102.654C223.928 102.83 223.661 104.246 222.732 104.614C221.965 104.918 221.658 103.595 220.687 103.751C220.214 103.827 219.78 103.852 219.376 104.102M234.355 96.4523C234.657 96.2633 234.979 96.0933 235.328 95.9463C236.323 95.5273 237.549 94.7284 238.041 93.7515C238.261 93.3165 238.617 92.9575 238.825 92.5235C238.87 92.4306 238.885 91.6796 238.69 91.8886C237.894 92.7405 237.019 93.5995 236.046 94.3724C235.447 94.8474 234.855 95.4733 234.517 96.1653C234.469 96.2633 234.414 96.3583 234.355 96.4523ZM234.355 96.4523C233.929 97.1282 233.259 97.7262 233.131 98.5031C233.077 98.8321 233.156 99.821 233.46 99.998C233.951 100.283 234.481 100.019 234.992 100.097C235.332 100.149 235.603 100.493 235.935 100.491C238.269 100.475 240.77 100.107 242.646 98.6231C243.469 97.9731 244.32 97.1732 244.98 96.3563L245 96.3323C245.164 96.1293 245.332 95.9213 245.363 95.7833M245.363 95.7833C245.395 95.6413 245.281 95.5733 244.868 95.6623C244.444 95.7533 243.2 96.1303 243.628 96.0613L245.363 95.7833ZM245.363 95.7833L247.486 95.4423C248.544 95.2723 249.634 95.1604 250.678 94.9184C251.706 94.6804 252.825 94.1664 253.903 94.4564C255.413 94.8634 258.041 95.0374 259.534 94.3994C260.771 93.8704 261.113 93.5225 261.215 92.2366C261.314 90.9987 261.301 90.3557 262.066 89.3398C262.657 88.5538 263.733 87.9099 264.502 87.3009C265.348 86.632 266.048 85.905 266.864 85.2071C268.326 83.9572 266.51 81.9693 267.509 80.4065C268.653 78.6126 269.897 76.1238 270.027 73.9459C270.09 72.894 270.218 71.7041 270.134 70.6552C270.053 69.6303 269.659 68.5783 269.757 67.5434C269.853 66.5318 270.711 65.7299 271.18 64.877C271.742 63.8525 271.821 62.9053 271.883 61.7584C271.998 59.6242 271.428 57.4001 271.09 55.295C270.948 54.4064 270.608 53.2493 271.227 52.4677C271.874 51.6519 272.066 50.7996 272.123 49.7857C272.216 48.1387 272.795 46.0169 272.004 44.4612C271.109 42.7008 270.57 40.5781 271.56 38.777C272.282 37.4632 272.775 36.3051 273.926 35.3915C274.919 34.6027 275.598 32.1317 275.392 30.848C275.269 30.0838 274.989 29.8623 274.745 29.2485C274.465 28.5434 274.727 27.7485 274.77 27.0402C274.817 26.2425 274.687 24.148 273.739 24.3M135.293 89.2008C135.478 90.3517 135.559 91.2496 136.546 92.0056C136.942 92.3096 137.408 92.4756 137.754 92.7245C138.245 93.0805 138.559 92.7045 139.088 92.8445C139.901 93.0595 141.036 92.8885 141.882 92.7525C143.349 92.5175 143.945 91.7496 144.42 90.4417C144.596 89.9577 144.619 91.0567 144.659 91.3046C144.741 91.8156 144.926 91.9576 145.224 92.3276C145.753 92.9835 146.968 93.5995 147.77 93.8115C148.951 94.1244 149.578 94.1224 150.798 93.9264C151.349 93.8384 151.563 93.6315 151.999 93.2885C152.375 92.9935 152.261 91.3636 152.632 92.2296M135.485 100.392C135.807 102.404 137.421 104.334 139.543 104.706C140.445 104.864 141.74 104.398 142.625 104.256C143.08 104.183 143.495 104.17 143.872 103.9C144.291 103.599 144.353 102.92 144.616 103.536M158.8 100.658C159.011 101.78 159.279 102.689 159.96 103.578C160.608 104.425 161.109 104.744 161.962 105.361C163.03 106.132 165.573 105.912 166.653 105.209C167.115 104.908 167.409 104.295 167.517 104.97C167.576 105.335 167.558 106.432 167.882 106.614C168.377 106.895 169.088 108 169.569 108.448C170.012 108.86 170.615 109.029 171.039 109.414C171.505 109.836 173.995 110.443 174.599 110.346C176.329 110.068 176.722 109.418 176.942 107.721C177.142 106.188 176.522 104.655 175.356 103.812C174.713 103.347 171.375 101.896 171.256 103.268M221.66 88.5658C223.867 88.2119 225.414 86.374 226.083 84.2492C226.437 83.1243 227.317 79.8005 226.626 80.7554M225.53 78.9276C227.079 80.5164 229.058 80.5934 231.122 80.0225C232.283 79.7015 232.735 79.1346 233.397 78.2216C233.625 77.9066 233.907 76.4318 234.268 77.1247M247.82 76.5527C249.228 76.4757 250.259 76.8017 251.604 76.1008C252.494 75.6368 253.148 75.2638 253.695 74.4069C254.006 73.9189 254.617 72.867 254.555 72.2651C254.523 71.9651 254.199 70.2542 254.499 70.6712M253.944 49.7195C256.107 49.3724 257.739 49.6241 259.182 47.6321C259.759 46.8358 259.73 45.771 259.583 44.8514L259.325 43.2452M257.218 36.3694C256.806 36.8416 256.296 37.1655 255.924 37.6793C255.609 38.1144 255.536 38.644 255.247 39.0903C254.776 39.8195 254.797 40.7231 254.682 41.5412C254.435 43.3006 256.305 44.1307 257.779 43.8941C259.097 43.6826 260.399 43.612 260.916 42.1883C261.269 41.2187 261.92 39.9199 261.834 38.8794C261.813 38.6181 261.745 37.0761 261.835 37.6325" stroke="#418A91" stroke-opacity="0.46" stroke-width="3" stroke-linecap="round"/>
<path d="M180.619 317.234C182.087 313.8 181.864 310.433 185.195 308.463C185.642 312.114 186.022 316.267 187.369 319.415C185.844 318.504 182.359 316.793 180.619 317.234Z" fill="#418A91" fill-opacity="0.46"/>
<path d="M190.07 348.272C190.615 344.705 192.447 337.478 195.422 337.113C199.14 336.658 197.55 336.853 201.155 329.672C202.556 326.88 199.806 340.774 203.073 348.997C198.6 348.431 194.216 348.221 190.07 348.272Z" fill="#418A91" fill-opacity="0.46"/>
<path d="M256.327 302.754C258.028 302.743 259.803 302.005 261.501 302.165C261.825 302.195 262.247 302.241 262.729 302.305C266.629 307.789 273.684 320.588 270.706 327.895C271.311 318.194 261.372 307.093 256.327 302.754Z" fill="#418A91" fill-opacity="0.46"/>
<path d="M250.267 359.913C251.527 357.786 255.667 352.897 262.156 350.348C258.952 353.963 252.669 362.213 253.169 366.296C253.669 370.378 251.639 375.372 250.561 377.357C247.216 371.841 243.203 367.291 238.755 363.564C245.501 365.923 249.24 362.112 250.267 359.913Z" fill="#418A91" fill-opacity="0.46"/>
<path d="M183.731 259.727C181.563 257.821 180.153 255.867 179.313 253.946C179.887 253.299 180.393 252.932 182.418 253.329C183.953 253.63 186.747 256.376 188.221 257.237C190.92 258.388 197.74 259.715 203.429 255.815C201.775 257.793 199.724 259.727 197.421 261.071C193.376 263.429 188.554 263.968 183.731 259.727Z" fill="#418A91" fill-opacity="0.46"/>
<path d="M203.429 255.815C204.586 254.433 205.549 253.028 206.27 251.789C207.514 253.492 211.44 256.985 217.187 257.334C212.017 258.033 200.825 259.76 197.421 261.071C199.724 259.727 201.775 257.793 203.429 255.815Z" fill="#418A91" fill-opacity="0.46"/>
<path d="M217.187 257.334C211.44 256.985 207.514 253.492 206.27 251.789C212.85 245.804 225.5 246.843 229.425 245.309C232.566 244.082 231.797 239.054 231.019 236.693C234.986 242.719 233.598 250.483 217.187 257.334Z" fill="#418A91" fill-opacity="0.46"/>
<path d="M281.131 255.819C279.937 260.166 275.285 261.862 272.35 262.158C264.766 260.717 254.73 259.428 251.228 253.144C255.93 251.231 265.105 256.729 269.713 258.533C273.4 259.977 278.861 257.325 281.131 255.819Z" fill="#418A91" fill-opacity="0.46"/>
<path d="M249.578 253.105C244.262 256.281 235.253 252.578 231.413 250.329C232.367 248.249 232.879 246.338 233.062 244.601C235.784 242.817 242.955 247.665 247.569 251.408C248.088 252.233 248.837 252.791 249.578 253.105Z" fill="#418A91" fill-opacity="0.46"/>
<path d="M233.813 222.572C231.422 228.128 226.957 229.289 225.023 229.174C219.853 230.246 209.13 231.068 207.605 225.782C212.691 222.527 221.67 226.428 226.295 226.125C229.995 225.882 232.846 219.621 233.809 216.52C234.56 218.32 234.755 220.383 233.813 222.572Z" fill="#418A91" fill-opacity="0.46"/>
<path d="M161.903 279.245C157.962 282.602 149.413 287.692 146.745 281.19C145.172 277.355 142.921 273.535 141.647 269.683C143.104 271.436 146.263 275.053 147.244 275.497C148.469 276.053 150.215 280.501 154.753 279.6C158.383 278.879 164.188 275.488 166.636 273.883C164.527 275.912 162.848 277.933 161.903 279.245Z" fill="#418A91" fill-opacity="0.46"/>
<path d="M181.436 236.778C179.101 238.567 175.536 242.087 176.472 244.654C177.488 247.436 177.272 250.355 177.037 251.468C174.009 249.111 167.622 245.217 162.78 245.396C167.542 244.096 175.194 241.301 181.436 236.778Z" fill="#418A91" fill-opacity="0.46"/>
<path d="M239.375 250.003C239.685 249.965 239.971 249.979 240.237 250.035M240.237 250.035C242.135 250.434 243.039 252.973 244.721 254.117C246.3 255.189 250.998 255.516 252.96 255.49C259.381 255.408 264.754 261.197 270.412 262.889C272.852 263.619 276.09 264.067 278.657 264.307C281.646 264.588 285.006 268.595 287.068 270.384C289.707 272.673 287.123 275.279 289.522 277.235C292.304 279.506 295.25 281.721 297.948 283.796C299.848 285.258 302.138 289.199 298.706 289.619C295.43 290.02 302.014 292.994 302.682 293.9C304.544 296.422 306.595 298.022 306.999 301.317C307.549 305.814 308.716 307.698 311.051 311.468L311.071 311.501C315.649 318.896 318.142 326.406 319.19 334.962C320.111 342.478 324.813 347.919 325.728 355.395C326.237 359.548 325.803 360.691 324.758 363.945C323.729 367.15 325.314 370.895 324.14 373.91C322.792 377.368 321.398 379.343 321.912 383.541C322.212 385.99 323.772 390.924 321.838 392.82C320.409 394.22 317.498 394.751 315.769 395.991C313.677 397.492 313.667 400.649 312.313 402.55C311.018 404.369 310.458 407.336 307.476 405.526C305.19 404.14 300.393 408.435 298.826 409.588C296.38 411.388 292.736 413.512 289.712 413.883C283.989 414.583 281.764 417.179 277.167 420.186C271.019 424.208 264.218 424.156 256.824 425.061C248.437 426.088 241.773 432.739 233.138 429.727C226.318 427.349 217.724 429.848 210.704 430.708C206.988 431.163 203.276 430.029 199.38 430.506C195.707 430.956 192.531 431.595 189.089 432.516C181.271 434.61 177.641 429.274 171.885 425.309C169.966 423.987 163.74 422.148 163.322 419.824C162.441 414.936 162.099 415.308 157.292 413.059C154.232 411.626 152.638 408.815 151.12 405.868C150.315 404.305 149.278 404.002 149.045 402.105C148.802 400.117 145.243 400.244 143.843 399.167C141.482 397.35 139.956 393.79 139.607 390.944C139.442 389.59 139.2 388.711 139.821 387.564C140.158 386.941 136.495 384.375 135.958 383.843C131.3 379.233 136.579 371.792 135.819 366.599C135.466 364.192 133.779 362.381 133.408 360.097C133.209 358.871 133.389 357.115 132.731 356.03C131.81 354.514 130.659 354.164 129.498 353.071C128.252 351.896 129.319 348.732 129.463 347.293C129.788 344.058 131.078 340.775 131.405 337.519C131.761 333.976 135.112 333.892 136.377 330.157C138.169 324.865 131.84 313.427 139.858 310.616C143.552 309.32 143.556 304.568 143.182 301.512C142.879 299.039 145.891 292.586 148.489 292.122C150.941 291.685 152.621 283.903 154.723 285.178C157.664 286.963 160.557 283.085 161.608 280.628C163.765 275.583 170.303 270.38 175.609 269.73C177.251 269.529 178.675 270.551 180.278 269.777C181.752 269.064 182.683 267.116 184.047 266.137C185.55 265.059 186.869 263.774 188.477 262.769C190.053 261.785 191.472 262.932 192.958 262.75C195.203 262.475 196.689 259.998 199.043 259.71C200.563 259.523 202.282 259.084 203.819 259.169C207.092 259.35 209.802 259.981 213.106 259.577C215.695 259.259 217.128 255.905 219.879 255.569C221.949 255.315 226.007 254.141 227.948 252.992C229.926 251.821 232.713 251.261 234.112 249.5C235.325 247.972 239.427 248.959 240.237 250.035ZM240.237 250.035C240.403 250.256 240.431 250.481 240.266 250.689M267.747 303.739C268.491 304.385 269.222 305.273 269.91 306.181M269.91 306.181C270.492 306.949 271.044 307.732 271.546 308.394C272.594 309.78 274.703 309.891 275.782 311.496C277.783 314.473 275.954 317.867 278.35 321.114C280.6 324.164 282.602 326.181 283.078 330.07C283.214 331.174 284.106 334.046 283.504 335.006C282.767 336.18 280.81 337.237 280.904 338.679C281.368 345.744 281.121 353.631 281.951 360.403C282.157 362.088 282.468 363.796 282.574 365.491C282.629 366.377 279.923 366.927 279.143 367.5C275.287 370.338 276.656 374.453 274.572 377.772C272.218 381.523 272.13 382.493 268.006 384.933C264.26 387.15 260.367 388.076 255.903 388.622M269.91 306.181C269.871 306.34 269.809 306.505 269.721 306.676M269.91 306.181C270.518 303.719 265.575 302.684 262.729 302.305M255.903 388.622C251.844 389.119 248.239 389.14 244.962 391.551C241.918 393.791 238.279 394.753 234.559 395.209C230.932 395.653 227.727 394.456 223.854 394.931C222.063 395.15 219.781 395.083 218.072 395.683C216.43 396.258 213.738 398.451 211.886 397.897C209.485 397.179 209.223 394.502 206.249 394.703C204.306 394.833 203.011 395.099 201.08 395.336C198.121 395.698 190.2 394.15 187.657 393.006C182.933 390.88 180.408 389.831 177.502 385.51C175.183 382.059 174.203 378.926 173.112 374.923C172.533 372.797 171.438 371.436 170.276 369.708C169.232 368.154 170.124 365.455 170.225 363.798C170.366 361.484 170.383 359.627 170.177 357.183C169.972 354.761 171.777 352.403 172.371 350.204M255.903 388.622C254.409 384.482 252.611 380.738 250.561 377.357M262.729 302.305C262.247 302.241 261.825 302.195 261.501 302.165C259.803 302.005 258.028 302.743 256.327 302.754M262.729 302.305C266.629 307.79 273.684 320.588 270.706 327.895M172.371 350.204C174.647 341.788 168.618 332.742 174.718 325.064M172.371 350.204C177.207 349.134 183.322 348.356 190.07 348.272M250.561 377.357C251.639 375.371 253.669 370.378 253.169 366.296C252.669 362.213 258.952 353.963 262.156 350.348M250.561 377.357C247.216 371.841 243.203 367.291 238.755 363.564M174.718 325.064C176.349 323.011 179.588 319.646 180.619 317.234M174.718 325.064C171.815 328.718 171.659 332.682 172.048 336.74M190.07 348.272C190.615 344.705 192.447 337.478 195.422 337.113C199.14 336.658 197.55 336.853 201.155 329.672C202.556 326.88 199.806 340.774 203.073 348.997M190.07 348.272C194.216 348.221 198.6 348.431 203.073 348.997M180.619 317.234C182.087 313.8 181.864 310.433 185.195 308.462M180.619 317.234C182.359 316.793 185.844 318.504 187.369 319.415C186.022 316.267 185.642 312.114 185.195 308.462M185.195 308.462C186.74 307.549 188.457 307.093 190.246 306.874C193.451 306.481 194.684 304.232 197.512 303.6C201.436 302.722 203.998 299.24 206.738 296.554C209.354 293.991 215.044 296 218.004 296.278L218.095 296.287C220.196 296.484 221.881 296.642 224.069 296.374C226.449 296.083 228.344 297.44 230.622 297.161C231.913 297.003 233.748 296.724 235.834 296.461M235.834 296.461C241.973 295.685 250.285 295.036 253.318 297.957C254.263 298.867 254.901 302.763 256.327 302.754M235.834 296.461C239.461 301.452 245.197 312.662 239.12 317.575C231.524 323.715 232.699 324.657 230.799 326.937C228.899 329.217 231.317 333.231 227.225 335.32M256.327 302.754C261.372 307.093 271.311 318.194 270.706 327.895M270.706 327.895C267.727 335.202 268.96 339.024 269.949 340.021C270.055 342.402 268.645 347.801 262.156 350.348M228.285 297.275C228.724 300.859 227.858 303.071 224.823 305.249C222.417 306.974 217.832 309.098 218.783 311.947M218.455 296.095C217.008 296.456 214.066 300.717 213.115 301.914L213.11 301.921C210.645 305.023 209.269 306.756 209.748 310.67M240.233 252.215C240.624 253.758 241.903 254.392 242.157 256.467C242.357 258.103 239.252 258.983 237.961 259.436C235.978 260.131 234.34 260.532 232.166 260.798C230.926 260.95 228.395 258.639 228.544 259.86M224.875 269.977C221.383 267.291 213.072 265.239 213.943 272.352C214.494 276.848 221.546 273.872 224.851 275.505M233.726 279.252C233.049 276.413 226.663 275.435 224.38 274.526C221.344 273.318 217.371 277.433 217.666 279.837M268.028 272.979C268.464 274.699 272.322 275.515 272.758 277.234C273.366 279.636 276.177 280.837 276.355 283.699C276.459 285.365 269.811 285.334 268.824 283.931C267.393 281.895 264.771 275.023 265.073 277.485M294.534 311.856C290.429 308.34 285.134 309.828 288.689 315.68C290.902 319.323 300.537 320.79 300.537 320.79M298.63 322.403C298.205 320.624 295.363 320.042 293.805 320.233C291.031 320.572 291.735 323.377 291.97 325.291C292.554 330.062 300.857 329.132 301.262 332.44M297.528 376.401C298.989 376.222 301.691 375.356 303.075 375.875C305.177 376.663 303.7 379.509 302.777 380.439C300.749 382.481 294.758 382.265 291.975 382.605M290.617 377.247C291.102 381.205 290.875 383.122 287.406 385.391C284.103 387.552 282.066 386.582 278.487 387.02M267.25 409.802C264.471 407.664 262.185 406.279 258.458 406.735L253.966 407.286C252.991 407.405 250.881 409.045 251.714 408.943M208.001 395.651C208.394 398.858 212.549 401.999 206.762 402.708C203.405 403.119 199.823 404.003 198.052 400.323M163.176 419.094C162.725 415.415 162.014 414.403 166.048 413.909C169.498 413.487 170.342 416.75 171.635 419.439M171.303 416.718C173.796 416.413 174.877 413.656 177.189 413.236C179.536 412.809 182.415 415.821 182.693 418.085M159.451 382.951C159.205 380.945 158.125 379.424 156.753 378.102C156.081 377.455 151.648 375.39 151.79 377.674C151.938 380.053 152.376 382.453 152.665 384.818C152.964 387.261 154.902 386.755 155.888 388.221M157.034 363.221C157.261 365.071 157.472 373.692 152.812 370.107C151.687 369.242 149.047 363.509 149.35 363.472M173.854 288.655C170.825 288.754 168.257 287.657 167.152 291.202C166.587 293.014 166.185 297.707 169.325 297.496C174.028 297.179 177.994 294.363 182.205 293.848M167.335 298.43C167.592 300.532 168.754 303.544 166.721 304.874C165.134 305.912 162.626 307.294 160.733 307.526M156.707 320.448C156.99 322.761 159.418 326.327 157.707 328.612C156.384 330.378 151.789 332.182 151.296 333.541M155.193 330.992C157.525 333.238 156.033 336.112 155.377 338.22C154.851 339.906 150.345 340.702 148.758 341.447M227.225 335.32C223.132 337.411 225.612 347.773 210.124 350.185M227.225 335.32C225.153 341.141 222.041 353.333 226.165 355.536M210.124 350.185C215.542 351.337 220.974 353.067 226.165 355.536M210.124 350.185C207.763 349.684 205.406 349.292 203.073 348.997M226.165 355.536C230.591 357.642 234.841 360.285 238.755 363.564M262.156 350.348C255.667 352.897 251.527 357.786 250.267 359.913C249.24 362.112 245.501 365.923 238.755 363.564M206.27 251.789C208.685 247.313 208.961 238.096 200.349 235.118M206.27 251.789C205.549 253.028 204.586 254.433 203.429 255.815M206.27 251.789C207.514 253.492 211.44 256.985 217.187 257.334M206.27 251.789C212.85 245.804 225.5 246.843 229.425 245.309C232.566 244.082 231.797 239.054 231.019 236.693M200.349 235.118C191.738 232.139 183.594 236.492 180.598 239.04M200.349 235.118C201.052 232.601 203.747 228.094 209.334 226.809M203.429 255.815C197.74 259.715 190.92 258.388 188.221 257.237C186.747 256.376 183.953 253.63 182.418 253.329C180.393 252.932 179.887 253.299 179.313 253.946M203.429 255.815C201.775 257.793 199.724 259.727 197.421 261.071M217.187 257.334C212.017 258.033 200.825 259.76 197.421 261.071M217.187 257.334C233.598 250.483 234.986 242.719 231.019 236.693M231.019 236.693C227.226 230.929 218.536 226.755 213.408 226.482C211.907 226.402 210.552 226.529 209.334 226.809M180.598 239.04C177.735 241.8 176.477 247.456 179.313 253.946M180.598 239.04C179.848 232.912 176.422 228.458 174.804 226.999C176.505 223.72 182.311 216.974 191.927 216.217C201.543 215.46 207.539 222.963 209.334 226.809M179.313 253.946C180.153 255.867 181.563 257.821 183.731 259.727C188.554 263.968 193.376 263.429 197.421 261.071M281.131 255.819C279.937 260.166 275.285 261.862 272.35 262.158C264.766 260.717 254.73 259.428 251.228 253.144M281.131 255.819C281.59 254.149 281.537 252.086 280.68 249.559C277.591 240.464 270.198 236.369 266.887 235.459C262.154 234.126 252.196 234.174 250.234 245.024C249.621 248.41 250.063 251.054 251.228 253.144M281.131 255.819C278.861 257.325 273.4 259.977 269.713 258.533C265.105 256.729 255.93 251.231 251.228 253.144M249.578 253.105C244.262 256.281 235.253 252.578 231.413 250.329C232.367 248.249 232.879 246.338 233.062 244.601M249.578 253.105C248.837 252.791 248.088 252.233 247.569 251.408M249.578 253.105C248.995 252.59 248.315 252.014 247.569 251.408M233.062 244.601C233.743 238.143 229.881 234.087 227.33 232.671C226.854 228.782 235.421 224.839 244.655 226.339C252.042 227.54 254.449 233.912 254.73 236.948C246.502 244.375 246.064 249.015 247.569 251.408M233.062 244.601C235.784 242.817 242.955 247.665 247.569 251.408M207.605 225.782C209.13 231.068 219.853 230.246 225.023 229.174C226.957 229.289 231.422 228.128 233.813 222.572C234.755 220.383 234.56 218.32 233.809 216.52M207.605 225.782C205.699 219.173 205.683 216.806 209.593 212.907C213.503 209.007 224.156 206.425 228.506 210.591C230.182 211.608 232.653 213.753 233.809 216.52M207.605 225.782C212.691 222.527 221.67 226.428 226.295 226.125C229.995 225.882 232.846 219.621 233.809 216.52M160.089 246.043C162.732 245.518 172.467 245.449 177.133 254.644C179.131 258.065 181.633 265.471 175.65 267.725C172.374 268.958 169.19 271.426 166.636 273.883M160.089 246.043C158.875 246.284 157.235 246.61 155.346 247.293M160.089 246.043C160.897 245.632 161.808 245.432 162.78 245.396M160.089 246.043C160.813 245.899 161.726 245.684 162.78 245.396M166.636 273.883C164.527 275.912 162.848 277.933 161.903 279.245C157.962 282.602 149.413 287.692 146.745 281.19C145.172 277.355 142.921 273.535 141.647 269.683M166.636 273.883C164.188 275.488 158.383 278.879 154.753 279.6C150.215 280.501 148.469 276.053 147.244 275.497C146.263 275.053 143.104 271.436 141.647 269.683M155.346 247.293C151.837 248.563 147.466 251.067 143.357 256.557C140.018 261.019 140.22 265.372 141.647 269.683M155.346 247.293C146.359 243.571 149.53 235.649 152.238 232.153C153.595 230.64 158.432 227.141 166.931 225.24C175.43 223.338 180.514 231.864 181.994 236.365M162.78 245.396C167.622 245.217 174.009 249.111 177.037 251.468C177.272 250.355 177.488 247.436 176.472 244.654C175.536 242.087 179.101 238.567 181.436 236.778M162.78 245.396C167.542 244.096 175.194 241.301 181.436 236.778M181.994 236.365C181.81 236.504 181.623 236.642 181.436 236.778M181.994 236.365C181.819 236.49 181.632 236.627 181.436 236.778" stroke="#418A91" stroke-opacity="0.46" stroke-width="3"/>
<path d="M389.112 425.924C388.935 427.025 388.652 428.051 388.149 428.921C387.364 430.28 386.156 432.565 385.519 434.564C388.591 430.084 405.403 430.771 414.142 431.887C410.601 430.2 406.841 428.899 403.194 427.52C398.577 425.772 393.898 424.641 389.112 425.924Z" fill="#418A91" fill-opacity="0.46"/>
<path d="M477.803 485.433C479.266 484.129 480.696 482.764 482.011 481.323C485.172 477.589 487.132 473.641 487.843 471.686C484.023 473.469 479.29 464.533 475.918 456.028L476.147 458.988C476.45 460.837 476.256 462.883 476.274 464.757C476.317 469.004 475.975 473.221 476.358 477.493C476.579 479.958 477.803 485.433 477.803 485.433Z" fill="#418A91" fill-opacity="0.46"/>
<path d="M377.378 401.419C377.316 401.436 377.255 401.453 377.194 401.47M377.194 401.47C376.95 401.541 376.715 401.619 376.487 401.704M377.194 401.47C377.636 401.259 378.072 400.9 377.993 400.355C377.889 399.639 377.905 397.137 378.4 396.647C380.316 394.749 381.86 392.276 383.304 389.935C386.311 385.058 392.977 384.644 398.17 383.253C400.166 382.718 398.652 378.625 402.505 377.592C405.101 376.897 407.482 375.36 410.261 374.615C412.626 373.982 412.489 370.223 415.661 369.569C416.961 369.302 417.749 371.319 419.264 371.253C420.499 371.2 421.864 370.607 423.056 370.287C427.703 369.042 432.099 365.815 437.387 366.647C443.078 367.543 447.392 369.431 452.963 369.522C455.164 369.558 457.805 369.437 459.544 371.307C460.928 372.796 464.255 374.544 466.362 373.979C468.789 373.329 470.932 375.49 472.581 377.152L472.627 377.198C474.62 379.208 477.753 378.382 479.076 380.918C481.859 386.258 487.788 387.018 491.236 391.205C492.395 392.613 493.765 393.32 494.809 394.647C495.48 395.499 494.389 397.692 494.62 398.796C495.249 401.799 498.032 404.074 500.18 406.103C502.198 408.01 502.663 411.39 504.081 413.755C504.828 415 505.927 414.111 506.614 416.675C507.029 418.222 507.536 419.771 507.864 421.338C508.33 423.564 506.267 427.025 506.369 429.386C506.516 432.797 507.403 433.225 509.021 435.923C511.634 440.28 512.238 447.74 513.554 452.652C514.824 457.392 511.643 462.32 513.065 467.628C514.131 471.606 513.925 472.549 512.309 476.377C511.312 478.736 512.689 481.659 511.482 483.746C510.399 485.621 509.106 486.797 508.17 488.932C506.949 491.717 508.369 493.813 504.243 495.183C502.458 495.775 503.078 499.927 503.138 501.326C503.242 503.74 496.993 504.322 495.122 504.824C489.837 506.24 482.725 506.732 479.291 511.264C477.864 513.148 474.24 513.724 472.962 515.459C471.538 517.394 468.836 519.595 466.248 519.707C464.371 519.789 460.184 517.741 457.945 517.283C456.06 516.898 452.307 516.372 450.413 516.802C447.154 517.543 444.53 519.987 441.152 520.134C438.305 520.257 435.347 519.206 432.509 519.8C429.575 520.414 427.277 521.41 424.741 522.731C422.356 523.973 419.169 521.575 416.519 522.285C413.694 523.042 411.603 524.659 408.763 525.262C405.486 525.958 402.817 521.922 399.013 522.477C392.817 523.38 390.091 518.32 387.53 513.408C385.898 510.278 382.625 508.25 379.696 506.76C376.745 505.258 375.952 503.438 373.88 500.921C371.537 498.074 369.481 499.624 368.4 495.592C367.772 493.247 366.604 489.301 365.124 487.472C362.606 484.36 360.694 483.635 359.589 479.509C358.818 476.633 357.155 474.396 356.612 471.759C356.377 470.619 357.852 469.931 357.617 468.792C357.356 467.523 356.94 466.266 356.605 465.014C355.855 462.214 355.389 460.66 356.065 457.961C356.819 454.955 357.449 451.749 357.895 448.924C358.245 446.708 356.011 442.647 357.831 440.844C360.047 438.649 356.537 435.375 357.86 432.739C359.045 430.378 359.912 427.806 361.326 425.513C363.598 421.827 361.925 421.778 361.993 417.736C362.014 416.488 363.746 415.515 364.595 414.941C366.09 413.929 365.964 412.455 367.044 411.385C370.535 407.927 371.951 403.399 376.487 401.704M377.194 401.47C376.919 401.602 376.641 401.677 376.487 401.704M376.487 401.704C376.329 401.731 376.301 401.708 376.538 401.644M393.412 414.217C393.241 414.284 393.078 414.356 392.923 414.433M392.923 414.433C387.878 416.929 390.574 424.726 388.149 428.922M392.923 414.433C394.754 411.306 402.189 404.93 404.213 404.125C407.152 402.956 409.494 399.112 412.974 398.179C418.409 396.723 423.935 396.142 429.393 394.68C432.998 393.714 436.317 394.799 439.949 394.501C443.693 394.193 448.228 393.459 451.98 394.226C460.885 396.046 466.773 402.327 474.294 406.941C480.901 410.994 483.594 421.487 485.458 428.441C487.46 435.913 490.7 442.946 492.321 450.694C492.91 453.509 491.841 460.553 490.691 463.276C489.51 466.073 488.661 468.917 487.843 471.686M392.923 414.433C392.389 415.344 392.331 415.98 393.022 416.121M388.149 428.922C388.652 428.051 388.935 427.025 389.112 425.924C393.898 424.641 398.577 425.772 403.194 427.52C406.841 428.9 410.601 430.2 414.142 431.887M388.149 428.922C387.364 430.28 386.156 432.565 385.519 434.564M487.843 471.686C484.023 473.469 479.29 464.533 475.918 456.029M487.843 471.686C487.132 473.641 485.172 477.589 482.011 481.323M487.843 471.686C486.779 475.291 484.622 478.459 482.011 481.323M414.142 431.887C415.787 432.672 417.385 433.54 418.902 434.538C423.629 437.648 426.234 442.815 429.449 447.287C430.693 449.017 431.793 451.036 432.678 452.981C433.736 455.308 435.238 457.643 435.947 460.1C437.295 464.767 439.945 469.212 441.956 473.63C443.94 477.989 446.47 481.857 448.976 485.849C449.883 487.295 451.068 488.318 452.189 489.582C453.14 490.654 454.502 491.125 455.493 492.099C456.646 493.232 458.938 493.289 459.852 494.673M414.142 431.887C405.403 430.771 388.591 430.085 385.519 434.564M385.519 434.564C385.093 435.186 384.931 435.906 385.092 436.739M385.519 434.564C385.266 435.36 385.102 436.11 385.092 436.739M385.092 436.739C385.051 439.174 389.195 442.427 387.998 445.156C387.18 447.021 387.203 450.587 386.029 452.182C384.536 454.21 388.59 458.344 387.622 460.552C385.837 464.622 386.7 473.667 390.705 475.42C396.947 478.152 398.768 484.733 404.586 488.395C407.609 490.297 409.885 493.345 412.818 495.037C414.377 495.936 415.801 497.17 417.232 498.252C419.203 499.743 420.084 498.335 422.473 498.397C429.669 498.585 435.829 500.917 443.131 498.96C451.805 496.637 463.889 497.215 470.802 491.347C474.355 488.331 478.576 485.09 482.011 481.323M385.092 436.739C390.853 435.195 395.658 439.315 400.336 442.392C403.196 444.274 405.228 446.989 407.511 449.457C409.352 451.447 411.584 453.203 412.3 455.877M482.011 481.323C480.696 482.765 479.266 484.129 477.803 485.433M482.011 481.323C480.787 482.768 479.384 484.18 477.803 485.433M475.918 456.029C474.675 452.892 473.616 449.814 472.857 447.354M475.918 456.029L476.147 458.988M429.649 395.936C440.796 399.817 449.386 406.706 456.037 416.273C458.478 419.782 461.389 423.047 463.692 426.696C466.04 430.417 467.729 434.262 469.728 438.14C471.954 442.457 471.639 442.808 472.857 447.354M472.857 447.354C473.471 449.646 475.764 456.644 476.147 458.988M472.857 447.354C473.037 445.853 472.544 449.285 472.67 449.755C473.029 451.095 473.14 452.594 472.91 453.978C472.471 456.614 472.967 460.463 471.754 462.86C470.364 465.608 469.898 468.888 469.18 471.846C468.582 474.316 467.926 477.406 466.135 479.3C465.293 480.189 463.276 480.342 462.13 480.649C460.52 481.081 459.161 481.285 457.521 480.778C455.859 480.264 454.283 479.593 452.67 478.913C451.264 478.32 449.65 478.152 448.307 477.377C446.018 476.057 444.75 473.829 443.122 471.914C441.88 470.453 439.749 468.392 439.265 466.587M476.147 458.988C476.45 460.837 476.256 462.883 476.274 464.757C476.317 469.005 475.975 473.221 476.358 477.493C476.579 479.958 477.803 485.433 477.803 485.433M412.789 399.092C414.852 399.608 417.001 401.523 418.579 402.909C420.654 404.731 423.163 406.352 424.99 408.411C428.348 412.195 435.927 418.598 428.8 422.7C422.277 426.454 413.635 420.512 408.683 416.523C406.56 414.812 404.376 413.187 402.444 411.239C401.894 410.685 401.321 410.063 400.542 409.858C399.712 409.64 398.495 408.683 399.73 410.076M451.44 411.191C452.249 414.21 454.204 416.423 456.193 418.763C457.534 420.34 458.446 422.732 459.445 424.545C460.852 427.099 461.851 429.713 462.605 432.525C464.066 437.977 465.074 442.806 464.124 448.43C463.479 452.255 461.038 453.189 457.501 454.137C453.675 455.162 449.853 454.387 446.082 453.453C441.677 452.363 438.008 450.971 434.231 448.614C431.819 447.11 426.056 440.721 428.192 442.597M441.318 402.984C441.634 403.84 442.319 404.352 442.723 405.126L442.724 405.129C443.292 406.217 443.862 407.31 444.534 408.329C446.24 410.911 446.689 413.988 447.845 416.783C449.899 421.747 452.599 427.608 449.673 432.671C448.811 434.164 446.565 435.699 445.04 436.494C442.337 437.902 439.644 439.603 436.569 440.054C434.386 440.375 432.197 439.991 430.114 439.663C429.34 439.541 428.476 439.632 427.671 439.611C427.189 439.599 425.506 439.87 426.892 440.035M387.588 445.165C396.229 450.851 403.013 461.971 405.642 471.783M423.676 479.149C426.249 488.749 434.933 493.725 441.484 500.055M365.411 451.107C364.731 448.569 366.046 446.304 368.919 446.351C370.76 446.381 372.01 451.76 372.368 453.095M369.306 468.039C366.54 468.78 368.368 472.243 369.113 474.509C369.997 477.201 374.144 477.51 376.112 479.054M400.718 501.348C403.274 500.663 407.116 501.25 407.915 504.235C408.287 505.621 409.025 507.163 407.724 508.316C406.318 509.562 404.445 508.268 404.484 510.61M433.885 378.196C435.328 381.114 442.857 379.51 444.716 377.861M443.56 380.739C444.203 383.14 445.717 384.013 448.119 383.369C449.102 383.106 450.923 382.976 451.68 382.273C452.148 381.838 451.937 378.436 452.112 379.09M490.961 416.186C490.364 413.329 493.348 407.734 495.6 412.054C497.128 414.984 495.943 417.993 496.762 421.05M500.474 454.079C501.003 456.051 503.178 458.237 502.706 460.542C502.252 462.757 499.963 463.483 499.607 465.224M498.204 462.39C498.831 463.931 499.669 465.457 500.168 467.321C501.015 470.482 498.306 469.962 499.135 473.053M482.008 493.05C483.701 492.596 485.491 492.731 487.221 492.794C489.53 492.878 489.531 489.487 490.399 490.801" stroke="#418A91" stroke-opacity="0.46" stroke-width="3" stroke-linecap="round"/>
<path d="M436.335 169.586C436.451 166.485 436.163 163.48 433.832 160.836C432.523 159.351 429.953 156.941 429.077 155.155C427.829 152.612 427.851 150.045 425.273 148.698C425.096 151.492 424.99 154.664 424.117 157.116C423.704 158.278 422.274 162.098 420.847 163.92C421.075 163.853 421.309 163.821 421.55 163.836L427.845 164.236C431.41 164.462 435.587 165.519 436.335 169.586Z" fill="#418A91" fill-opacity="0.46"/>
<path fill-rule="evenodd" clip-rule="evenodd" d="M395.654 180.913C395.651 180.918 395.647 180.924 395.643 180.929C395.639 180.934 395.635 180.94 395.631 180.946C395.638 180.934 395.646 180.924 395.654 180.913Z" fill="#418A91" fill-opacity="0.46"/>
<path d="M390.588 185.661C392.658 184.697 393.871 183.778 395.321 181.417C395.42 181.255 395.523 181.099 395.631 180.947C395.638 180.935 395.646 180.924 395.654 180.913C395.662 180.902 395.669 180.892 395.677 180.882C395.665 180.898 395.654 180.913 395.643 180.929C395.647 180.924 395.651 180.918 395.654 180.913C395.646 180.924 395.638 180.935 395.631 180.947L395.643 180.929C395.654 180.913 395.665 180.898 395.677 180.882C394.437 180.441 390.638 177.826 389.867 176.727C389.619 176.373 388.788 174.365 388.152 172.886C388.334 173.615 388.445 174.374 388.782 174.853C389.462 175.823 389.322 178.278 389.521 179.545C389.806 181.364 390.705 183.81 390.588 185.661Z" fill="#418A91" fill-opacity="0.46"/>
<path d="M375.51 189.482C377.404 189.45 379.243 189.245 379.925 188.993C381.701 188.336 383.515 187.969 385.335 187.512C384.363 186.157 379.692 180.614 377.478 178.012C377.298 177.784 374.377 174.607 374.06 174.132C375.24 176.432 375.739 179.066 375.574 181.667C375.456 183.532 375.51 189.482 375.51 189.482Z" fill="#418A91" fill-opacity="0.46"/>
<path d="M382.19 106.737C381.956 106.722 381.742 106.745 381.546 106.8M381.546 106.8C380.142 107.187 379.574 109.157 378.364 110.102C377.229 110.988 373.725 111.449 372.255 111.518C367.445 111.745 363.672 116.386 359.509 117.927C357.713 118.591 355.308 119.078 353.397 119.377C351.171 119.725 348.828 122.921 347.362 124.373C345.485 126.23 347.531 128.093 345.82 129.688C343.835 131.538 341.725 133.355 339.795 135.052C338.435 136.248 336.891 139.345 339.478 139.51C341.947 139.666 337.147 142.223 336.685 142.941C335.401 144.942 333.934 146.25 333.774 148.77C333.555 152.212 332.763 153.695 331.178 156.666L331.164 156.691C328.055 162.515 326.512 168.333 326.097 174.88C325.732 180.631 322.446 184.977 322.083 190.697C321.881 193.875 322.255 194.723 323.178 197.149C324.086 199.537 323.061 202.453 324.07 204.69C325.228 207.257 326.358 208.694 326.154 211.907C326.035 213.78 325.079 217.599 326.609 218.952C327.739 219.951 329.942 220.223 331.289 221.087C332.92 222.133 333.064 224.53 334.16 225.914C335.207 227.237 335.754 229.464 337.909 227.955C339.561 226.8 343.337 229.845 344.56 230.65C346.469 231.907 349.288 233.356 351.569 233.501C355.884 233.775 357.661 235.646 361.233 237.723C366.008 240.501 371.098 240.154 376.673 240.508C382.996 240.909 388.272 245.66 394.607 242.982C399.61 240.868 406.152 242.378 411.445 242.714C414.247 242.892 416.977 241.863 419.914 242.049C422.683 242.225 425.089 242.567 427.705 243.112C433.649 244.349 436.136 240.132 440.275 236.86C441.655 235.769 446.236 234.09 446.449 232.307C446.898 228.552 447.17 228.821 450.672 226.895C452.902 225.668 453.973 223.461 454.983 221.154C455.518 219.93 456.282 219.653 456.374 218.201C456.471 216.679 459.14 216.615 460.142 215.734C461.832 214.248 462.821 211.475 462.959 209.297C463.025 208.261 463.168 207.582 462.653 206.738C462.374 206.28 465.006 204.165 465.385 203.737C468.673 200.025 464.4 194.611 464.746 190.632C464.906 188.787 466.091 187.337 466.27 185.584C466.366 184.643 466.156 183.317 466.602 182.464C467.226 181.27 468.072 180.953 468.894 180.069C469.777 179.121 468.842 176.765 468.671 175.678C468.289 173.236 467.182 170.8 466.796 168.342C466.377 165.666 463.865 165.754 462.757 162.973C461.187 159.035 465.432 150.059 459.308 148.286C456.487 147.469 456.279 143.859 456.427 141.521C456.547 139.628 454.014 134.861 452.049 134.627C450.194 134.405 448.601 128.571 447.083 129.634C444.957 131.123 442.624 128.308 441.731 126.487C439.899 122.753 434.78 119.097 430.78 118.843C429.542 118.764 428.52 119.605 427.286 119.089C426.152 118.614 425.37 117.175 424.308 116.494C423.136 115.742 422.093 114.825 420.846 114.135C419.624 113.459 418.61 114.394 417.49 114.323C415.798 114.216 414.578 112.401 412.803 112.288C411.657 112.215 410.351 111.959 409.204 112.093C406.762 112.378 404.76 112.98 402.269 112.822C400.317 112.698 399.1 110.215 397.026 110.083C395.464 109.984 392.376 109.275 390.873 108.49C389.342 107.69 387.231 107.39 386.108 106.117C385.134 105.011 382.105 105.945 381.546 106.8ZM381.546 106.8C381.431 106.975 381.42 107.146 381.552 107.297M363.265 148.838C362.735 149.362 362.226 150.069 361.75 150.79M361.75 150.79C361.348 151.4 360.969 152.02 360.622 152.546C359.896 153.647 358.322 153.826 357.584 155.094C356.214 157.446 357.73 159.941 356.076 162.516C354.523 164.934 353.111 166.557 352.922 169.533C352.868 170.377 352.324 172.6 352.816 173.302C353.418 174.161 354.929 174.875 354.92 175.975C354.878 181.362 355.403 187.344 355.074 192.524C354.992 193.815 354.832 195.126 354.826 196.418C354.823 197.094 356.873 197.389 357.481 197.79C360.491 199.771 359.643 202.958 361.347 205.386C363.271 208.129 363.379 208.862 366.571 210.529C369.471 212.044 372.425 212.572 375.791 212.785C378.852 212.98 381.552 212.833 384.109 214.515C386.484 216.08 389.251 216.646 392.055 216.824C394.79 216.998 397.137 215.944 400.058 216.129C401.408 216.215 403.114 216.062 404.419 216.44C405.673 216.803 407.783 218.347 409.145 217.843C410.912 217.189 410.993 215.143 413.228 215.161C414.688 215.173 415.67 215.316 417.125 215.409C419.356 215.55 425.22 214.018 427.074 213.034C430.519 211.205 432.365 210.294 434.354 206.879C435.941 204.154 436.54 201.729 437.184 198.639C437.526 196.998 438.287 195.915 439.082 194.549C439.797 193.322 439.013 191.312 438.866 190.058C438.661 188.305 438.567 186.897 438.617 185.031C438.665 183.182 437.213 181.472 436.673 179.828C434.607 173.538 438.73 166.393 433.832 160.836M361.75 150.79C361.094 148.635 366.205 147.62 367.873 147.36C369.137 147.163 370.498 147.642 371.772 147.574C372.84 147.516 373.15 144.528 373.818 143.795C376.691 140.638 386.936 141.921 390.776 142.165C392.493 142.274 393.853 141.157 395.648 141.271C397.297 141.376 398.552 141.179 400.116 140.935L400.184 140.924C402.388 140.58 406.562 138.796 408.63 140.625C410.798 142.541 412.866 145.071 415.841 145.561C417.986 145.913 419.006 147.565 421.423 147.718C422.772 147.804 424.076 148.073 425.273 148.698M361.75 150.79C361.787 150.909 361.84 151.032 361.914 151.158M433.832 160.836C432.523 159.351 429.953 156.941 429.077 155.155C427.829 152.612 427.851 150.045 425.273 148.698M433.832 160.836C436.163 163.48 436.451 166.485 436.335 169.586C435.587 165.519 431.41 164.462 427.845 164.236L421.55 163.836C421.309 163.821 421.075 163.853 420.847 163.92M425.273 148.698C425.096 151.492 424.99 154.664 424.117 157.116C423.704 158.278 422.274 162.098 420.847 163.92M420.847 163.92C420.438 164.443 420.029 164.8 419.644 164.884C412.665 166.406 406.858 168.088 399.741 166.027C396.624 165.124 395.254 161.723 392.579 160.327C390.029 158.994 385.299 159.153 385.098 154.906C384.986 152.545 383.606 147.034 381.463 145.788C380.249 145.081 373.307 142.317 376.114 144.713M420.847 163.92C419.516 164.312 418.368 165.877 416.902 165.947M392.53 142.146C392.356 144.889 393.1 146.529 395.466 148.046C397.341 149.248 400.866 150.655 400.277 152.862M399.838 140.806C400.938 141.014 403.324 144.118 404.088 144.985L404.092 144.99C406.07 147.235 407.176 148.488 406.986 151.484M404.759 167.581C404.354 169.881 402.352 173.368 401.248 175.478C400.07 177.729 399.551 181.143 396.914 182.12C392.002 183.938 389.665 191.282 384.315 190.942C379.33 190.626 375.31 191.862 370.15 191.246C367.391 190.917 358.111 183.176 356.104 184.942M355.847 179.512C355.658 182.499 359.853 184.499 362.07 185.789C363.375 186.548 364.795 186.718 366.174 187.519C367.529 188.307 369.348 187.729 370.445 188.725C371.689 189.857 378.464 189.534 379.925 188.993M379.925 188.993C381.701 188.336 383.515 187.969 385.335 187.513M379.925 188.993C379.243 189.245 377.404 189.45 375.51 189.482C375.51 189.482 375.456 183.532 375.574 181.667M385.335 187.513C386.599 187.196 387.866 186.835 389.125 186.303C392.148 185.025 393.56 184.284 395.321 181.417M385.335 187.513C384.363 186.157 379.692 180.614 377.478 178.012C377.298 177.784 374.377 174.607 374.06 174.132C375.24 176.432 375.739 179.066 375.574 181.667M375.574 181.667C375.793 178.229 374.849 174.732 372.708 172.03C370.157 168.808 370.565 165.766 370.815 161.818M395.321 181.417C393.871 183.778 392.658 184.697 390.588 185.661M395.321 181.417C395.42 181.255 395.523 181.099 395.631 180.947M390.588 185.661C390.705 183.81 389.806 181.364 389.521 179.545C389.322 178.278 389.462 175.823 388.782 174.853C388.445 174.373 388.334 173.615 388.152 172.886M390.588 185.661C390.403 188.574 398.407 181.852 395.677 180.882M395.631 180.947C395.635 180.941 395.639 180.935 395.643 180.929M395.631 180.947L395.643 180.929M395.631 180.947C395.638 180.935 395.646 180.924 395.654 180.913M401.726 167.315C403.393 169.128 401.818 173.404 400.801 175.149C399.405 177.546 397.175 178.776 395.654 180.913M401.726 167.315C401.576 167.151 401.399 167.007 401.192 166.887C400.292 166.364 396.877 165.878 398.841 166.003C400.585 166.114 401.611 165.828 401.726 167.315ZM401.726 167.315C401.741 167.508 401.741 167.732 401.724 167.99M395.654 180.913C395.662 180.902 395.669 180.892 395.677 180.882M395.654 180.913C395.651 180.918 395.647 180.924 395.643 180.929M410.755 167.962C409.518 168.037 409.68 175.408 409.604 176.61C409.349 180.629 408.316 184.315 407.63 188.212C405.88 198.16 399.036 208.104 392.686 215.531M418.101 166.022C418.187 168.385 419.561 171.188 420.373 173.418C421.249 175.821 421.685 178.336 422.584 180.742C424.468 185.786 424.479 191.361 425.325 196.553C425.899 200.077 425.334 203.787 425.107 207.365L424.841 211.559C424.763 212.781 425.724 215.799 424.612 215.152M385.576 166.364C385.494 167.654 386.376 170.386 387.37 171.289M387.37 171.289C387.38 171.125 387.722 171.884 388.152 172.886M387.37 171.289C387.797 171.678 388 172.272 388.152 172.886M388.152 172.886C388.788 174.364 389.619 176.373 389.867 176.727C390.638 177.826 394.437 180.441 395.677 180.882M395.677 180.882C395.665 180.898 395.654 180.913 395.643 180.929M381.642 108.454C381.416 109.644 380.486 110.184 380.385 111.772C380.306 113.024 382.669 113.553 383.654 113.838C385.169 114.277 386.413 114.507 388.052 114.611C388.987 114.67 390.782 112.801 390.723 113.735M393.906 121.254C396.405 119.056 402.538 117.122 402.193 122.564C401.974 126.005 396.566 124.063 394.163 125.452M387.679 128.7C388.064 126.512 392.803 125.481 394.473 124.688C396.694 123.633 399.846 126.579 399.729 128.419M361.728 125.484C361.476 126.81 358.623 127.604 358.371 128.93C358.019 130.782 355.966 131.821 355.956 134.004C355.95 135.273 360.926 134.95 361.605 133.84C362.588 132.229 364.254 126.89 364.135 128.773M343.56 156.215C346.482 153.358 350.51 154.249 348.101 158.855C346.601 161.722 339.451 163.271 339.451 163.271M340.948 164.411C341.189 163.039 343.292 162.469 344.467 162.544C346.558 162.677 346.152 164.84 346.059 166.304C345.827 169.955 339.571 169.624 339.41 172.155M344.101 205.381C343 205.311 340.939 204.776 339.925 205.232C338.386 205.925 339.615 208.021 340.346 208.686C341.951 210.145 346.428 209.711 348.526 209.844M349.312 205.712C349.119 208.741 349.372 210.186 352.067 211.753C354.633 213.246 356.116 212.417 358.814 212.588M368.209 229.387C370.198 227.638 371.85 226.482 374.66 226.661L378.046 226.876C378.781 226.922 380.432 228.072 379.804 228.032M411.957 215.961C411.801 218.415 408.826 220.989 413.19 221.266C415.72 221.427 418.44 221.936 419.607 219.06M446.527 231.745C446.706 228.93 447.195 228.129 444.154 227.936C441.552 227.77 441.061 230.288 440.209 232.39M440.341 230.307C438.461 230.188 437.533 228.142 435.784 227.927C434.008 227.709 431.982 230.128 431.872 231.861M447.758 204.121C447.855 202.586 448.598 201.382 449.569 200.316C450.044 199.795 453.274 198.025 453.266 199.767C453.257 201.58 453.033 203.423 452.919 205.233C452.8 207.101 451.327 206.805 450.653 207.964M448.717 189.024C448.627 190.439 448.84 196.998 452.175 194.064C452.979 193.356 454.709 188.881 454.481 188.867M432.909 133.139C435.182 133.078 437.057 132.128 438.037 134.771C438.538 136.121 439.041 139.669 436.681 139.651C433.146 139.622 430.056 137.662 426.881 137.46M438.211 140.27C438.109 141.879 437.37 144.22 438.949 145.138C440.182 145.855 442.119 146.791 443.546 146.882M447.118 156.516C447.005 158.287 445.341 161.104 446.721 162.763C447.787 164.045 451.305 165.208 451.733 166.217M448.706 164.457C447.057 166.269 448.297 168.385 448.88 169.957C449.346 171.214 452.754 171.615 453.974 172.11" stroke="#418A91" stroke-opacity="0.46" stroke-width="3" stroke-linecap="round"/>
<path fill-rule="evenodd" clip-rule="evenodd" d="M109.634 449.155C110.052 450.24 110.474 451.337 110.788 452.478C111.148 453.783 111.278 455.113 111.407 456.437C111.536 457.755 111.664 459.068 112.017 460.351C112.387 461.694 112.877 463.114 113.378 464.567C114.43 467.614 115.53 470.802 115.672 473.714C115.698 474.233 115.584 474.792 115.469 475.354C115.314 476.112 115.158 476.874 115.344 477.547L118.518 489.067C119.165 491.418 118.723 493.504 117.576 495.512C116.825 496.825 115.835 497.942 114.86 499.043C114.259 499.721 113.664 500.393 113.133 501.101C111.896 502.75 108.469 504.609 106.604 505.472C105.795 505.846 105.041 506.277 104.287 506.707C102.965 507.462 101.644 508.216 100.035 508.658C98.5468 509.068 97.0371 509.532 95.513 509.999L95.5127 510C90.4164 511.564 85.1595 513.178 79.9932 513.01C78.741 512.969 77.5006 513.182 76.2606 513.394C74.9043 513.626 73.5486 513.859 72.1788 513.759C70.059 513.605 67.2052 513.609 65.203 514.044C62.162 514.703 55.513 513.012 54.6043 509.713L52.628 502.54C52.4265 501.808 52.0599 501.032 51.6809 500.23C50.9539 498.691 50.1812 497.055 50.4398 495.45C50.7632 493.446 51.0233 489.888 50.4837 487.929C50.159 486.75 49.6078 485.58 49.0592 484.415C48.4462 483.114 47.8363 481.819 47.5492 480.528C46.7812 477.071 45.6653 473.253 44.5991 469.606L44.5989 469.605C44.0841 467.845 43.5809 466.124 43.1341 464.502C42.9493 463.831 43.1239 463.368 43.5526 463.061C43.8927 463.372 44.3325 463.572 45.1062 463.723C46.1819 463.933 47.3538 463.419 48.4183 463.294C50.9024 463.002 52.7069 465.066 55.0737 464.507C56.1914 464.243 57.3271 464.357 58.4435 464.049C59.241 463.829 59.969 463.675 60.7664 463.587C60.9888 463.6 61.2091 463.613 61.4258 463.626C62.0592 463.664 62.662 463.701 63.1989 463.716C65.9027 463.792 67.9799 462.667 70.1484 461.491C70.4461 461.33 70.7455 461.168 71.0485 461.008C71.072 460.995 71.0955 460.983 71.1192 460.971C71.3045 460.953 71.4825 460.928 71.6466 460.882C72.0002 460.785 72.3005 460.586 72.5874 460.369C73.6581 460.014 74.8368 459.765 75.9713 459.525C76.7721 459.355 77.5509 459.19 78.2542 458.997C80.1396 458.477 83.5109 457.542 85.0349 456.297C86.0306 455.485 88.0242 455.108 89.7172 454.788C90.4143 454.656 91.0605 454.534 91.5649 454.395C92.0628 454.258 92.5519 454.057 93.0339 453.815C94.0224 453.535 94.8141 452.921 95.5639 452.261C95.5867 452.245 95.6094 452.23 95.6321 452.215C96.3864 451.706 97.1293 451.204 97.8677 450.814C98.5258 450.466 99.1586 450.148 99.7836 449.834C100.174 449.638 100.561 449.443 100.95 449.244C102.424 449.264 104.059 448.744 105.267 448.105C106.052 447.69 107.27 447.166 107.531 446.294C107.643 446.258 107.749 446.224 107.847 446.193C108.22 446.074 108.613 446.29 108.731 446.662C108.995 447.495 109.313 448.321 109.634 449.155ZM106.936 485.033C107.587 484.774 108.1 484.033 108.466 483.261C108.808 482.539 109.796 482.253 110.209 482.934C111.443 484.969 110.429 486.828 109.131 488.062C108.303 488.848 107.08 488.896 105.938 488.898C105.147 488.899 104.291 489.051 103.66 489.528C102.166 490.658 100.991 490.982 99.9678 490.545C99.3081 490.264 97.9699 490.216 97.0413 490.233C96.7774 490.238 96.6015 489.966 96.7732 489.766C97.4186 489.014 98.4518 488.866 99.0721 488.777C99.2356 488.753 99.3704 488.734 99.4619 488.709C99.6066 488.669 99.8359 488.665 100.097 488.661C100.743 488.65 101.584 488.636 101.812 488.061C102.131 487.255 105.472 485.616 106.936 485.033ZM53.6287 471.246C54.3383 471.722 55.1591 472.096 55.8502 471.985C57.4068 471.736 61.1154 471.433 61.8029 471.962C62.2928 472.339 63.0219 471.92 63.5828 471.599C63.8091 471.469 64.0079 471.355 64.1527 471.315C64.2441 471.289 64.3698 471.237 64.5223 471.173C65.1007 470.932 66.064 470.531 67.0034 470.846C67.2533 470.93 67.2417 471.254 67.0125 471.385C66.2059 471.845 65.081 472.571 64.6586 473.151C64.0033 474.05 62.8284 474.374 60.9661 474.168C60.1795 474.082 59.3673 474.389 58.6868 474.794C57.7053 475.377 56.6296 475.962 55.5166 475.71C53.7695 475.316 51.9466 474.238 51.9644 471.858C51.9704 471.061 52.9659 470.801 53.6287 471.246ZM110.379 491.629C111.685 491.125 111.928 489.825 111.887 489.237C111.079 487.879 110.208 489.041 109.873 489.792C109.497 490.614 109.073 492.132 110.379 491.629ZM55.238 478.922C55.9495 479.192 57.4172 479.365 59.8481 478.779C62.9837 478.024 60.9003 477.541 59.4666 477.395C58.318 477.27 56.025 477.304 55.0882 478.27C54.8801 478.485 54.9585 478.816 55.238 478.922Z" fill="#418A91" fill-opacity="0.46"/>
<path d="M105.587 442.827C106.889 442.468 107.279 444.676 107.53 445.586C107.601 445.845 107.595 446.08 107.531 446.294M107.531 446.294C107.643 446.258 107.749 446.224 107.847 446.193C108.22 446.074 108.613 446.29 108.731 446.662C108.995 447.495 109.313 448.321 109.634 449.155C110.052 450.24 110.474 451.337 110.788 452.478C111.148 453.783 111.278 455.112 111.407 456.437C111.536 457.755 111.664 459.068 112.017 460.351C112.387 461.694 112.877 463.114 113.378 464.567C114.43 467.614 115.53 470.802 115.672 473.714C115.698 474.233 115.584 474.792 115.469 475.354C115.314 476.112 115.158 476.874 115.344 477.547L118.518 489.067C119.165 491.418 118.723 493.504 117.576 495.511C116.825 496.825 115.835 497.942 114.86 499.043C114.259 499.721 113.664 500.393 113.133 501.101C111.896 502.75 108.469 504.609 106.604 505.472C105.795 505.846 105.041 506.277 104.287 506.707C102.965 507.462 101.644 508.215 100.035 508.658C98.5468 509.068 97.0371 509.532 95.513 509.999L95.5127 510C90.4164 511.564 85.1595 513.178 79.9932 513.01C78.741 512.969 77.5006 513.182 76.2606 513.394C74.9043 513.626 73.5486 513.859 72.1788 513.759C70.059 513.605 67.2052 513.609 65.203 514.044C62.162 514.703 55.513 513.012 54.6043 509.713L52.628 502.54C52.4265 501.808 52.0599 501.032 51.6809 500.23C50.9539 498.691 50.1812 497.055 50.4398 495.45C50.7632 493.446 51.0233 489.888 50.4837 487.929C50.159 486.75 49.6078 485.58 49.0592 484.415C48.4462 483.114 47.8363 481.819 47.5492 480.528C46.7812 477.071 45.6653 473.253 44.5991 469.606L44.599 469.605C44.0841 467.845 43.5809 466.124 43.1341 464.502C42.9493 463.831 43.1239 463.368 43.5526 463.061M107.531 446.294C107.27 447.166 106.052 447.69 105.267 448.105C104.059 448.744 102.424 449.264 100.95 449.244M107.531 446.294C106.291 446.692 104.258 447.377 103.59 447.782C102.673 448.339 101.808 448.803 100.95 449.244M106.406 442.366C107.442 441.674 107.555 441.384 107.243 440.254C107.027 439.47 106.911 438.769 106.314 438.17C105.607 437.46 105.289 437.175 104.32 436.942C103.467 436.736 102.827 436.258 102.035 435.754C101.262 435.263 100.058 435.788 99.4879 435.096C98.9544 434.449 98.6606 434.289 97.9033 433.781C97.0751 433.226 95.8626 433.645 94.9977 433.157C94.3771 432.806 93.6487 432.717 93.0172 432.408C92.374 432.093 91.418 432.652 90.7582 432.795C90.2005 432.916 89.6967 432.249 89.0725 432.305C88.5673 432.351 88.221 432.082 87.7094 432.223L85.9992 432.694C84.9416 432.986 84.2713 432.991 83.18 432.765C81.3367 432.384 79.5365 433.769 77.793 434.249C76.6757 434.557 75.6584 434.98 74.5022 434.803C73.6356 434.67 72.4692 434.539 71.6162 434.774C70.7035 435.025 69.7443 435.214 68.8589 435.547C68.2535 435.774 67.832 436.338 67.2639 436.627C66.1517 437.191 64.6843 437.349 63.4678 437.254C62.6288 437.188 61.9011 437.45 61.0988 437.671C59.7021 438.056 59.321 439.272 58.2701 440.045C56.8214 441.111 54.9073 440.789 53.2272 441.252C52.1899 441.536 50.6872 441.654 50.2353 442.794C49.8734 443.707 50.1374 444.171 49.2848 444.925C48.6286 445.506 47.8518 445.799 47.0824 446.185C44.7224 447.37 41.9427 447.947 42.8015 451.064C43.0714 452.044 43.7118 452.906 43.8192 453.947C43.8806 454.543 42.7244 454.782 42.4743 455.219C41.6264 456.703 45.3467 456.462 45.9829 456.553C46.3182 456.601 48.3232 457.346 47.0186 457.784C46.3377 458.013 45.6227 458.169 44.9298 458.36C43.5729 458.733 41.712 460.309 42.6222 461.767C42.9831 462.344 43.2203 462.756 43.5526 463.061M43.5526 463.061C43.8927 463.372 44.3325 463.572 45.1062 463.723C46.1819 463.933 47.3538 463.419 48.4183 463.294C50.9024 463.002 52.7069 465.066 55.0737 464.507C56.1914 464.243 57.3271 464.357 58.4435 464.049C59.241 463.829 59.969 463.675 60.7664 463.587M43.5526 463.061C44.9968 462.025 49.3254 462.759 52.5228 463.301C54.1981 463.585 55.5629 463.816 56.0394 463.713C57.3464 463.43 59.1156 463.493 60.7664 463.587M90.1979 432.479C90.764 434.534 91.7596 437.46 94.442 436.722M91.2226 436.197C92.0288 435.975 89.4705 436.359 88.804 436.863M50.1624 445.154C52.0257 446.206 53.4849 445.415 55.5208 444.854M99.3698 444.305C98.2365 444.486 96.697 443.014 95.7884 442.468C94.1794 441.501 92.2477 441.594 90.4614 441.165C88.6936 440.74 87.3536 439.991 85.45 439.957C84.6153 439.942 83.7764 440.459 82.9536 440.579C81.7237 440.759 80.4754 441.013 79.2215 440.915C77.1008 440.748 75.1189 441.149 73.0602 440.494C71.5552 440.016 69.6792 440.485 68.2018 440.892C66.7053 441.304 65.4434 442.692 64.1304 443.476C62.8874 444.219 61.9273 446.384 60.5418 446.766M74.9584 445.853C73.3329 445.993 71.8533 446.519 70.2807 446.906C68.775 447.277 67.0711 446.99 65.5698 447.028M65.5698 447.028C64.5401 447.053 63.1871 446.272 62.2399 446.533M65.5698 447.028C65.4445 445.678 66.0696 442.486 69.5717 440.516C67.4067 441.084 62.9095 443.081 62.2399 446.533M62.2399 446.533C61.3116 446.789 60.3832 447.045 59.4548 447.3C58.369 447.599 57.1461 447.78 56.2036 448.379C55.4298 448.87 54.7464 449.537 53.9938 449.994C53.0144 450.589 52.0969 453.499 53.7329 453.818M53.6332 454.316C53.7854 454.867 54.5391 455.148 54.7146 455.664C54.9732 456.424 55.1588 457.189 56.1258 456.923C56.9654 456.691 57.6693 456.262 58.4842 456.038C59.2164 455.836 59.7065 455.036 60.3923 454.806C61.9944 454.269 63.8379 455.533 65.5982 455.241C66.6027 455.074 67.5538 454.599 68.561 454.452C69.5536 454.307 70.5241 454.604 71.5602 454.319C73.2708 453.848 74.5454 452.085 76.1947 451.63C77.1914 451.356 77.8681 452.195 78.8013 452.076C79.8849 451.937 80.8768 451.291 81.7156 450.632C83.0385 449.594 84.2751 448.698 85.9084 448.248C86.9421 447.964 88.3207 448.847 88.5997 449.86M96.0292 443.342C93.8261 443.949 91.6063 444.241 89.4216 444.927C88.1874 445.315 85.9802 446.256 85.8969 447.781M60.7664 463.587C60.9888 463.6 61.2091 463.613 61.4258 463.626C62.0592 463.664 62.662 463.701 63.1989 463.716C65.9027 463.792 67.9799 462.667 70.1484 461.491C70.4461 461.33 70.7455 461.168 71.0485 461.008C71.072 460.995 71.0955 460.983 71.1192 460.971M60.7664 463.587C60.849 463.578 60.9324 463.57 61.0167 463.562C63.0059 463.383 64.9419 464.106 66.5866 462.695C67.2813 462.099 68.3204 461.998 69.0712 461.409C69.6136 460.983 70.4182 461.037 71.1192 460.971M71.1192 460.971C71.3045 460.953 71.4825 460.928 71.6466 460.882C72.0002 460.785 72.3005 460.586 72.5874 460.369M71.1192 460.971C71.5714 460.738 72.0666 460.541 72.5874 460.369M72.5874 460.369C73.6581 460.014 74.8368 459.765 75.9713 459.525C76.7721 459.355 77.5509 459.19 78.2541 458.997C80.1395 458.477 83.5109 457.542 85.0349 456.297C86.0306 455.484 88.0242 455.107 89.7172 454.788C90.4143 454.656 91.0605 454.534 91.5649 454.395C92.0628 454.258 92.5519 454.057 93.0339 453.815M72.5874 460.369C73.0068 460.051 73.3976 459.694 73.8845 459.56C74.6077 459.361 75.2164 459.428 75.9847 459.217C76.7774 458.998 77.5977 458.685 78.0515 457.941C78.6245 457.002 79.5106 457.154 80.5043 457.017C82.2609 456.775 84.059 456.819 85.6849 455.786C86.395 455.335 87.1735 454.58 87.9248 454.281C88.6324 454 88.9418 452.84 89.7638 452.847C90.3427 452.851 89.8763 454.685 90.9143 454.399L93.0031 453.824C93.0134 453.821 93.0237 453.818 93.0339 453.815M93.0339 453.815C94.0224 453.535 94.8141 452.921 95.5639 452.261M93.0339 453.815C93.8971 453.382 94.7375 452.819 95.5639 452.261M95.5639 452.261C95.5867 452.245 95.6094 452.23 95.6321 452.215C96.3864 451.706 97.1293 451.204 97.8677 450.814C98.5258 450.466 99.1586 450.148 99.7836 449.834C100.174 449.638 100.561 449.443 100.95 449.244M95.5639 452.261C96.0029 451.874 96.4275 451.472 96.8689 451.111C97.443 450.642 97.5359 449.516 98.2664 449.315C98.8963 449.141 99.6049 449.094 100.243 449.189C100.472 449.223 100.709 449.241 100.95 449.244M108.466 483.261C108.1 484.033 107.587 484.774 106.936 485.033C105.472 485.616 102.131 487.255 101.812 488.061C101.584 488.636 100.743 488.65 100.097 488.661C99.8359 488.665 99.6066 488.669 99.4619 488.709C99.3704 488.734 99.2356 488.753 99.0721 488.777C98.4518 488.866 97.4186 489.014 96.7732 489.766C96.6015 489.966 96.7774 490.238 97.0413 490.233C97.9699 490.216 99.3081 490.264 99.9678 490.545C100.991 490.982 102.166 490.658 103.66 489.528C104.291 489.051 105.147 488.899 105.938 488.898C107.08 488.896 108.303 488.848 109.131 488.062C110.429 486.828 111.443 484.969 110.209 482.934C109.796 482.252 108.808 482.539 108.466 483.261ZM55.8502 471.985C55.1591 472.096 54.3383 471.722 53.6287 471.246C52.9659 470.801 51.9704 471.061 51.9644 471.858C51.9466 474.238 53.7695 475.316 55.5166 475.71C56.6296 475.962 57.7053 475.377 58.6868 474.794C59.3673 474.389 60.1795 474.082 60.9661 474.168C62.8284 474.374 64.0033 474.05 64.6586 473.151C65.081 472.571 66.2059 471.845 67.0125 471.385C67.2417 471.254 67.2533 470.93 67.0034 470.846C66.064 470.531 65.1007 470.932 64.5223 471.174C64.3698 471.237 64.2441 471.289 64.1527 471.315C64.0079 471.355 63.8091 471.469 63.5828 471.599C63.0219 471.92 62.2928 472.339 61.8029 471.962C61.1154 471.433 57.4068 471.736 55.8502 471.985ZM111.887 489.237C111.928 489.825 111.685 491.125 110.379 491.629C109.073 492.132 109.497 490.614 109.873 489.792C110.208 489.041 111.079 487.879 111.887 489.237ZM59.8481 478.779C57.4172 479.365 55.9495 479.192 55.238 478.922C54.9585 478.816 54.8801 478.485 55.0882 478.27C56.025 477.304 58.318 477.27 59.4666 477.395C60.9003 477.541 62.9837 478.024 59.8481 478.779Z" stroke="#418A91" stroke-opacity="0.46" stroke-width="2" stroke-linecap="round"/>
</g>
</g>
<defs>
<clipPath id="clip0_2_35">
<rect width="533" height="533" fill="white" transform="translate(0.55835 0.0397949)"/>
</clipPath>
</defs>
</svg>
