<svg width="20" height="20" viewBox="0 0 20 20" fill="none" xmlns="http://www.w3.org/2000/svg"><path fill-rule="evenodd" clip-rule="evenodd" d="M17.5564 8.2698C18.6016 6.37496 19 4.8474 19 3.81564C19 2.78388 18.7465 2.48796 18.4893 2.24889C18.232 2.00983 17.0721 1.2947 16.8745 1.16133C16.6769 1.02796 15.9226 0.768773 15.4495 1.44923C14.9765 2.12969 14.0857 3.49591 13.4716 4.40351C12.5079 5.68906 13.2757 6.25339 13.5237 6.59164C13.98 7.21405 14.2427 7.36757 14.2427 8.13184C14.2427 8.8961 12.1068 11.0674 11.5961 11.6024C11.0893 12.1333 8.961 13.999 8.30153 14.0988C7.63741 14.1993 6.74835 13.4962 6.55933 13.3179C5.59773 12.5796 5.05493 13.1393 4.612 13.3826C4.16907 13.6259 2.16782 14.8729 1.54766 15.2933C0.963972 15.7136 1.00045 16.3633 1.00045 16.3633C1.00045 16.3633 2.2043 18.2739 2.35022 18.5032C2.53262 18.7707 2.97038 19 3.95535 19C4.94032 19 5.99271 18.8201 8.49377 17.4446C10.5402 16.3191 12.4911 14.5567 13.5125 13.525C14.5705 12.4932 16.3626 10.4342 17.5564 8.2698Z" fill="white" stroke="#003E66"></path>
</svg>