<svg width="13" height="18" viewBox="0 0 13 18" fill="none" xmlns="http://www.w3.org/2000/svg">
<path d="M6.5 0C2.9159 0 0 2.8388 0 6.32812C0 7.50705 0.335436 8.65758 0.97027 9.65574L6.13001 17.7507C6.22884 17.9058 6.40297 18 6.59024 18H6.59454C6.78344 17.9986 6.95793 17.9014 7.05496 17.7436L12.0832 9.57023C12.683 8.59317 13 7.47207 13 6.32812C13 2.8388 10.0841 0 6.5 0ZM11.1535 9.02876L6.58204 16.4597L1.89103 9.10005C1.36262 8.26924 1.07611 7.31074 1.07611 6.32812C1.07611 3.42035 3.51325 1.04766 6.5 1.04766C9.48675 1.04766 11.9203 3.42035 11.9203 6.32812C11.9203 7.2816 11.6527 8.21559 11.1535 9.02876Z" fill="#003E66"/>
<path d="M8.50966 6.65217C8.50966 7.73273 7.60991 8.6087 6.5 8.6087C5.39009 8.6087 4.49034 7.73273 4.49034 6.65217C4.49034 5.57162 5.39009 4.69565 6.5 4.69565C7.60991 4.69565 8.50966 5.57162 8.50966 6.65217Z" fill="#003E66"/>
</svg>
