<svg width="20" height="25" viewBox="0 0 20 25" fill="none" xmlns="http://www.w3.org/2000/svg">
<path d="M16.1507 6.45716L16.1507 6.45714L16.1507 6.45712L16.1716 6.42935C16.5268 7.03088 17.5691 8.85572 18.0444 10.3285L18.0444 10.3285C18.1035 10.5116 18.1612 10.6874 18.2171 10.8577C18.6875 12.2903 19.0275 13.3259 18.9454 14.9058C18.698 19.6663 14.8977 23.8956 9.9913 23.8954C5.23256 23.8952 1.39718 20.2641 1.06406 15.6142C0.89384 13.2382 1.75481 11.5739 2.83491 9.60252L2.86253 9.55211L2.88088 9.49763C2.88189 9.49462 2.88392 9.48904 2.89253 9.46838L2.89253 9.46839L2.89373 9.46547C3.11079 8.93735 3.8081 7.2154 4.45336 5.34282C4.49071 6.06539 4.67067 6.67343 4.99326 7.21735C5.40923 7.91871 6.03108 8.4566 6.7192 8.98231L7.35692 9.46952L7.70103 8.7445C7.78348 8.57076 7.88309 8.39572 8.00059 8.19135C8.00567 8.18252 8.01078 8.17364 8.01592 8.1647C8.12597 7.97338 8.24978 7.75812 8.36462 7.52676C8.61043 7.03155 8.82531 6.44411 8.86412 5.70025L8.86413 5.70018C8.97841 3.50537 8.43255 2.0013 8.15314 1.38762C8.93693 1.77412 11.0569 2.97243 12.4909 5.22131C13.1035 6.18222 13.3861 6.94606 13.7399 8.18557L14.1915 9.76755L14.9432 8.3041C15.1305 7.93932 15.4271 7.48264 15.6888 7.1028C15.8174 6.91611 15.9336 6.75377 16.0175 6.63825C16.0594 6.58056 16.0931 6.53472 16.1161 6.50357L16.1424 6.46826L16.1489 6.45955L16.1504 6.45756L16.1506 6.45718L16.1507 6.45716Z" stroke="#003E66" stroke-width="1.3"/>
<circle cx="10.0001" cy="16.9555" r="4.17335" stroke="#003E66" stroke-width="1.3"/>
<path fill-rule="evenodd" clip-rule="evenodd" d="M9.66118 20.573C9.66118 19.9571 9.47967 19.5017 9.33808 19.1465L9.33015 19.1266C9.1879 18.7695 9.09141 18.5152 9.09141 18.1613C9.09141 17.8126 9.24018 17.3894 9.31399 17.2331C9.4301 16.9874 9.66118 16.3656 9.66118 15.7496C9.66118 15.1337 9.47967 14.6783 9.33808 14.3231L9.33015 14.3032C9.1879 13.9461 9.09141 13.6918 9.09141 13.3379C9.09141 12.9893 9.24018 12.566 9.31399 12.4098L8.96312 12.244C8.5833 12.3272 8.22024 12.4553 7.87975 12.6222C7.82818 12.8456 7.79141 13.0922 7.79141 13.3379C7.79141 13.9538 7.97292 14.4092 8.11451 14.7644L8.12244 14.7843C8.26469 15.1414 8.36118 15.3957 8.36118 15.7496C8.36118 16.0983 8.21241 16.5215 8.1386 16.6777C8.02249 16.9235 7.79141 17.5453 7.79141 18.1613C7.79141 18.7772 7.97292 19.2325 8.11451 19.5878L8.12244 19.6077C8.26469 19.9647 8.36118 20.2191 8.36118 20.573C8.36118 20.8728 8.25116 21.2278 8.1734 21.4207C8.57151 21.5838 8.99627 21.6952 9.43933 21.7465C9.54735 21.4405 9.66118 21.0053 9.66118 20.573ZM12.1198 21.2895C11.7796 21.4563 11.4167 21.5841 11.0372 21.6672L10.6858 21.5012C10.7596 21.3449 10.9084 20.9217 10.9084 20.573C10.9084 20.2191 10.8119 19.9648 10.6696 19.6077L10.6617 19.5878C10.5201 19.2326 10.3386 18.7772 10.3386 18.1613C10.3386 17.5453 10.5697 16.9235 10.6858 16.6778C10.7596 16.5216 10.9084 16.0983 10.9084 15.7497C10.9084 15.3957 10.8119 15.1414 10.6696 14.7844L10.6617 14.7645C10.5201 14.4092 10.3386 13.9539 10.3386 13.338C10.3386 12.9056 10.4525 12.4703 10.5605 12.1643C11.0036 12.2155 11.4284 12.3268 11.8266 12.4898C11.7488 12.6825 11.6386 13.0379 11.6386 13.338C11.6386 13.6919 11.7351 13.9462 11.8773 14.3033L11.8853 14.3232C12.0269 14.6784 12.2084 15.1338 12.2084 15.7497C12.2084 16.3657 11.9773 16.9875 11.8612 17.2332C11.7874 17.3894 11.6386 17.8127 11.6386 18.1613C11.6386 18.5152 11.7351 18.7695 11.8773 19.1266L11.8853 19.1465C12.0269 19.5017 12.2084 19.9571 12.2084 20.573C12.2084 20.819 12.1715 21.066 12.1198 21.2895Z" fill="#003E66"/>
</svg>
