<svg width="24" height="17" viewBox="0 0 24 17" fill="none" xmlns="http://www.w3.org/2000/svg">
<path fill-rule="evenodd" clip-rule="evenodd" d="M24 6H0C0 6.33709 0.0151626 6.67064 0.044843 7C0.550072 12.6065 5.26196 17 11 17H13C18.738 17 23.4499 12.6065 23.9552 7C23.9848 6.67064 24 6.33709 24 6ZM22.9506 7H1.04938C1.5511 12.0533 5.81465 16 11 16H13C18.1853 16 22.4489 12.0533 22.9506 7Z" fill="#003E66"/>
<path d="M6.00004 1H5.00004V4H4.00004V1C4.00004 0.447716 4.44775 0 5.00004 0H6.00004C6.55232 0 7.00004 0.447715 7.00004 1V4H6.00004V1Z" fill="#D9D9D9"/>
<path d="M16.744 4C16.1262 2.25221 14.4594 1 12.5 1C10.5407 1 8.87385 2.25221 8.2561 4H9.33685C9.89859 2.81753 11.1038 2 12.5 2C13.8962 2 15.1015 2.81753 15.6632 4H16.744Z" fill="#D9D9D9"/>
<path d="M23.3403 4C23.7582 3.33846 24 2.55461 24 1.71428V0H22.2858C20.0148 0 18.1564 1.76628 18.0094 4H19.0123C19.1571 2.31913 20.5674 1 22.2858 1H23V1.71429C23 2.60262 22.6475 3.40861 22.0747 4H23.3403Z" fill="#D9D9D9"/>
<path d="M3.00004 4V2C3.00004 1.44772 2.55232 1 2.00004 1H1.00004C0.447753 1 3.8147e-05 1.44772 3.8147e-05 2V4H1.00004V2H2.00004V4H3.00004Z" fill="#D9D9D9"/>
<path fill-rule="evenodd" clip-rule="evenodd" d="M22.9878 2C22.9575 2.35214 22.8716 2.68841 22.739 3C22.5798 3.37396 22.3533 3.71236 22.0747 4H23.3403C23.7221 3.39556 23.957 2.68902 23.9947 1.93058C23.9982 1.85892 24 1.78681 24 1.71428V0H22.2858C21.1863 0 20.1836 0.413992 19.4249 1.09459C18.8594 1.60193 18.4295 2.25742 18.1962 3C18.0961 3.31888 18.0322 3.65383 18.0094 4H19.0123C19.149 2.41329 20.4133 1.14893 22 1.01225C22.0942 1.00414 22.1895 1 22.2858 1H23V1.71429C23 1.81055 22.9959 1.90584 22.9878 2ZM12.7827 2.01125C12.6895 2.0038 12.5952 2 12.5 2C12.3774 2 12.2562 2.00631 12.1368 2.01863C11.7398 2.05959 11.3623 2.16692 11.0157 2.32941C10.2807 2.67413 9.6851 3.26693 9.33685 4H8.2561C8.38194 3.64397 8.5513 3.30851 8.75781 3C9.438 1.98385 10.5211 1.26019 11.7785 1.05754C12.0134 1.01968 12.2544 1 12.5 1C12.7457 1 12.9867 1.01968 13.2216 1.05755C14.479 1.26021 15.5621 1.98386 16.2423 3C16.4488 3.30851 16.6181 3.64397 16.744 4H15.6632C15.315 3.26693 14.7194 2.67413 13.9844 2.32941C13.6144 2.15596 13.2092 2.04536 12.7827 2.01125ZM2.00004 2V4H3.00004V2C3.00004 1.44772 2.55232 1 2.00004 1H1.00004C0.447753 1 3.8147e-05 1.44772 3.8147e-05 2V4H1.00004V2H2.00004ZM5.00004 1H6.00004V4H7.00004V1C7.00004 0.447715 6.55232 0 6.00004 0H5.00004C4.44775 0 4.00004 0.447716 4.00004 1V4H5.00004V1Z" fill="#003E66"/>
</svg>
