<svg width="25" height="18" viewBox="0 0 25 18" fill="none" xmlns="http://www.w3.org/2000/svg">
<path fill-rule="evenodd" clip-rule="evenodd" d="M23.8008 7.67334H1.80078V14.6733C1.80078 15.7779 2.69621 16.6733 3.80078 16.6733H21.8008C22.9054 16.6733 23.8008 15.7779 23.8008 14.6733V7.67334ZM0.800781 6.67334V14.6733C0.800781 16.3302 2.14393 17.6733 3.80078 17.6733H21.8008C23.4576 17.6733 24.8008 16.3302 24.8008 14.6733V6.67334H0.800781Z" fill="#003E66"/>
<path fill-rule="evenodd" clip-rule="evenodd" d="M3.80078 4.67334L21.8008 4.67334C22.9053 4.67334 23.8008 3.77791 23.8008 2.67334V1.67334L1.80078 1.67334L1.80078 2.67334C1.80078 3.77791 2.69621 4.67334 3.80078 4.67334ZM21.8008 5.67334C23.4576 5.67334 24.8008 4.3302 24.8008 2.67334V0.673342L0.800782 0.67334L0.800782 2.67334C0.800781 4.33019 2.14393 5.67334 3.80078 5.67334L21.8008 5.67334Z" fill="#003E66"/>
<path d="M12.7557 5.67334H11.7362C11.9266 4.63931 12.3368 3.70148 12.5698 3.27399C12.8139 2.8263 13.2733 1.73348 13.367 0.67334H14.3701C14.2766 1.95798 13.7313 3.23276 13.4478 3.75267C13.2561 4.10434 12.9315 4.85407 12.7557 5.67334Z" fill="#003E66"/>
<path d="M19.0886 5.67334L18.0691 5.67334C18.2595 4.63931 18.6697 3.70148 18.9027 3.27399C19.1468 2.8263 19.6062 1.73348 19.6999 0.67334H20.703C20.6095 1.95798 20.0642 3.23276 19.7807 3.75267C19.589 4.10434 19.2644 4.85407 19.0886 5.67334Z" fill="#003E66"/>
<path d="M8.03717 0.67334C7.94371 1.95798 7.39836 3.23276 7.1149 3.75267C6.92317 4.10434 6.59858 4.85407 6.42277 5.67334H5.40332C5.59372 4.63931 6.00385 3.70148 6.23691 3.27399C6.481 2.8263 6.94041 1.73348 7.03405 0.67334H8.03717Z" fill="#003E66"/>
</svg>
