<svg width="24" height="23" viewBox="0 0 24 23" fill="none" xmlns="http://www.w3.org/2000/svg">
<path fill-rule="evenodd" clip-rule="evenodd" d="M4.78538 7.84969L4.15845 7.93697C2.93079 8.10787 1.98535 9.16361 1.98535 10.4385C1.98535 11.8334 3.1162 12.9643 4.51117 12.9643C5.22841 12.9643 5.87445 12.6666 6.33546 12.1854L7.05757 11.4316L7.77969 12.1854C8.2407 12.6666 8.88671 12.9642 9.60394 12.9642C10.3212 12.9642 10.9672 12.6666 11.4282 12.1854L12.1503 11.4316L12.8724 12.1854C13.3334 12.6666 13.9795 12.9642 14.6967 12.9642C15.4139 12.9642 16.06 12.6666 16.521 12.1854L17.2431 11.4316L17.9652 12.1854C18.4262 12.6666 19.0723 12.9642 19.7895 12.9642C21.1845 12.9642 22.3153 11.8334 22.3153 10.4384C22.3153 9.16348 21.3698 8.10772 20.142 7.93689L19.5151 7.84964L19.3257 7.24562C18.3684 4.19266 15.5164 1.97968 12.1502 1.97968C8.78398 1.97968 5.932 4.1927 4.97476 7.2457L4.78538 7.84969ZM20.2799 6.94643C19.1956 3.48842 15.9659 0.979675 12.1502 0.979675C8.33453 0.979675 5.1048 3.48847 4.02056 6.94652C2.30553 7.18527 0.985352 8.6577 0.985352 10.4385C0.985352 12.3857 2.56391 13.9643 4.51117 13.9643C5.40266 13.9643 6.21688 13.6334 6.83772 13.0878C6.914 13.0207 6.98736 12.9505 7.05758 12.8772C7.12781 12.9505 7.20117 13.0207 7.27745 13.0878C7.89829 13.6334 8.71247 13.9642 9.60394 13.9642C10.4954 13.9642 11.3096 13.6334 11.9305 13.0878C12.0067 13.0207 12.0801 12.9504 12.1503 12.8771C12.2206 12.9504 12.2939 13.0207 12.3702 13.0878C12.991 13.6334 13.8052 13.9642 14.6967 13.9642C15.5882 13.9642 16.4024 13.6334 17.0232 13.0878C17.0995 13.0207 17.1729 12.9504 17.2431 12.8771C17.3133 12.9504 17.3867 13.0207 17.463 13.0878C18.0838 13.6334 18.898 13.9642 19.7895 13.9642C21.7367 13.9642 23.3153 12.3857 23.3153 10.4384C23.3153 8.65756 21.995 7.18508 20.2799 6.94643Z" fill="#003E66"/>
<path fill-rule="evenodd" clip-rule="evenodd" d="M3.14789 13.1566C3.11682 12.998 3.1249 12.8422 3.16472 12.6983C3.42415 12.8056 3.69916 12.8827 3.98542 12.9254C4.15673 12.951 4.33273 12.9643 4.51117 12.9643C5.46805 12.9643 6.33523 12.5831 6.97049 11.9643H7.14335C7.7786 12.5831 8.64709 12.9642 9.60394 12.9642C10.5608 12.9642 11.4279 12.5831 12.0632 11.9643H12.2361C12.8714 12.5831 13.7399 12.9642 14.6967 12.9642C15.6536 12.9642 16.5207 12.5831 17.156 11.9643H17.3289C17.9641 12.5831 18.8326 12.9642 19.7895 12.9642C20.1033 12.9642 20.4069 12.9232 20.6966 12.8463C20.9101 12.7895 21.1157 12.7133 21.3113 12.6195C21.3722 12.7845 21.3904 12.9685 21.3535 13.1566L19.9037 20.5566C19.7198 21.4951 18.8973 22.1721 17.941 22.1721H6.56046C5.60415 22.1721 4.78165 21.4951 4.59778 20.5566L3.14789 13.1566ZM20.1796 13.9475L18.9223 20.3644C18.8304 20.8336 18.4191 21.1721 17.941 21.1721H6.56046C6.08231 21.1721 5.67106 20.8336 5.57912 20.3644L4.32442 13.9605C4.38616 13.963 4.44886 13.9643 4.51117 13.9643C5.45497 13.9643 6.33164 13.6746 7.05693 13.1803C7.7822 13.6746 8.66018 13.9642 9.60394 13.9642C10.5477 13.9642 11.4244 13.6746 12.1497 13.1803C12.8749 13.6746 13.7529 13.9642 14.6967 13.9642C15.6405 13.9642 16.5171 13.6746 17.2424 13.1803C17.9677 13.6746 18.8457 13.9642 19.7895 13.9642C19.921 13.9642 20.0507 13.9586 20.1796 13.9475Z" fill="#003E66"/>
</svg>
