<svg width="11" height="25" viewBox="0 0 11 25" fill="none" xmlns="http://www.w3.org/2000/svg">
<path fill-rule="evenodd" clip-rule="evenodd" d="M2 24L8 24C8.55228 24 9 23.5523 9 23L9 8.99999L1 8.99999L1 23C1 23.5523 1.44771 24 2 24ZM8 25C9.10457 25 10 24.1046 10 23L10 8.99999C10 8.44771 9.55229 7.99999 9 7.99999L1 7.99999C0.447716 7.99999 1.2722e-06 8.44771 1.22392e-06 8.99999L0 23C-9.65636e-08 24.1046 0.89543 25 2 25L8 25Z" fill="#003E66"/>
<path fill-rule="evenodd" clip-rule="evenodd" d="M4.85669 17.7134C5.88211 17.7134 6.71338 16.8821 6.71338 15.8567C6.71338 14.8313 5.88211 14 4.85669 14C3.83127 14 3 14.8313 3 15.8567C3 16.8821 3.83127 17.7134 4.85669 17.7134ZM4.85669 18.7134C6.4344 18.7134 7.71338 17.4344 7.71338 15.8567C7.71338 14.279 6.4344 13 4.85669 13C3.27898 13 2 14.279 2 15.8567C2 17.4344 3.27898 18.7134 4.85669 18.7134Z" fill="#003E66"/>
<path fill-rule="evenodd" clip-rule="evenodd" d="M6.33521 2.94006L9.66803 2.94006V1.94006L5.8487 1.94006L5.84744 1.94011L5.70971 1.95706L5.5739 1.93607L4.21025 6.30229L5.3406 6.30233L6.33521 2.94006ZM6.29952 6.58599C6.17384 7.01084 5.7836 7.30234 5.34056 7.30233L4.21021 7.30229C3.53567 7.30226 3.05464 6.64808 3.25571 6.0042L4.61919 1.63807C4.76842 1.16023 5.24372 0.873179 5.72528 0.947597C5.76572 0.94262 5.80691 0.940057 5.8487 0.940057L9.66803 0.940057C10.2203 0.940057 10.668 1.38777 10.668 1.94006V2.94006C10.668 3.49234 10.2203 3.94006 9.66803 3.94006L7.08223 3.94006L6.29952 6.58599Z" fill="#003E66"/>
</svg>
