<svg width="25" height="25" viewBox="0 0 25 25" fill="none" xmlns="http://www.w3.org/2000/svg">
<path fill-rule="evenodd" clip-rule="evenodd" d="M1.80078 12.6733C1.80078 18.7485 6.72565 23.6733 12.8008 23.6733C18.8759 23.6733 23.8008 18.7485 23.8008 12.6733C23.8008 6.59821 18.8759 1.67334 12.8008 1.67334C6.72565 1.67334 1.80078 6.59821 1.80078 12.6733ZM12.8008 0.67334C6.17336 0.67334 0.800781 6.04592 0.800781 12.6733C0.800781 19.3008 6.17336 24.6733 12.8008 24.6733C19.4282 24.6733 24.8008 19.3008 24.8008 12.6733C24.8008 6.04592 19.4282 0.67334 12.8008 0.67334Z" fill="#003E66"/>
<path fill-rule="evenodd" clip-rule="evenodd" d="M12.8008 18.6733C16.1145 18.6733 18.8008 15.9871 18.8008 12.6733C18.8008 9.35963 16.1145 6.67334 12.8008 6.67334C9.48707 6.67334 6.80078 9.35963 6.80078 12.6733C6.80078 15.9871 9.48707 18.6733 12.8008 18.6733ZM12.8008 19.6733C16.6668 19.6733 19.8008 16.5393 19.8008 12.6733C19.8008 8.80735 16.6668 5.67334 12.8008 5.67334C8.93479 5.67334 5.80078 8.80735 5.80078 12.6733C5.80078 16.5393 8.93479 19.6733 12.8008 19.6733Z" fill="#003E66"/>
<path d="M10.039 17.755C10.039 16.8647 9.7386 16.2113 9.48007 15.649L9.4704 15.6279C9.20812 15.0573 8.99316 14.5782 8.99316 13.9185C8.99316 13.2698 9.2998 12.5243 9.45509 12.2395C9.64841 11.8849 10.039 10.9678 10.039 10.0819C10.039 9.19155 9.7386 8.53811 9.48007 7.97578L9.4704 7.95475C9.28228 7.54548 9.11851 7.1833 9.04093 6.76777C8.73536 6.96272 8.44592 7.18074 8.17509 7.41938C8.28259 7.76512 8.42261 8.06967 8.55212 8.35136L8.56179 8.37239C8.82407 8.94301 9.03902 9.4221 9.03902 10.0819C9.03902 10.7305 8.73239 11.476 8.5771 11.7608C8.38377 12.1154 7.99316 13.0325 7.99316 13.9185C7.99316 14.8088 8.29359 15.4622 8.55212 16.0245L8.56179 16.0456C8.82407 16.6162 9.03903 17.0953 9.03903 17.755C9.03903 18.002 8.99458 18.263 8.93095 18.5073C9.21546 18.6964 9.51459 18.8652 9.82628 19.0118C9.94495 18.6321 10.039 18.1898 10.039 17.755Z" fill="#003E66"/>
<path d="M13.3686 19.6507C13.1813 19.6657 12.9919 19.6733 12.8008 19.6733C12.8007 19.6733 12.8008 19.6733 12.8008 19.6733L12.3616 19.434C12.5169 19.1492 12.8236 18.4037 12.8236 17.755C12.8236 17.0953 12.6086 16.6162 12.3463 16.0456L12.3367 16.0245C12.0781 15.4622 11.7777 14.8088 11.7777 13.9185C11.7777 13.0325 12.1683 12.1154 12.3616 11.7608C12.5169 11.476 12.8236 10.7305 12.8236 10.0819C12.8236 9.4221 12.6086 8.94301 12.3463 8.37239L12.3367 8.35136C12.0781 7.78903 11.7777 7.13559 11.7777 6.24527C11.7777 6.07732 11.7917 5.90825 11.8158 5.7421C12.1376 5.69678 12.4665 5.67334 12.8008 5.67334C12.8149 5.67334 12.8291 5.67339 12.8432 5.67347C12.8032 5.86321 12.7777 6.05826 12.7777 6.24527C12.7777 6.90504 12.9927 7.38413 13.2549 7.95475L13.2646 7.97579C13.5232 8.53811 13.8236 9.19155 13.8236 10.0819C13.8236 10.9678 13.433 11.8849 13.2396 12.2395C13.0843 12.5243 12.7777 13.2698 12.7777 13.9185C12.7777 14.5782 12.9927 15.0573 13.2549 15.6279L13.2646 15.649C13.5232 16.2113 13.8236 16.8647 13.8236 17.755C13.8236 18.471 13.5685 19.2073 13.3686 19.6507Z" fill="#003E66"/>
<path d="M17.6081 17.7615C17.2586 18.0919 16.875 18.3866 16.4632 18.6399C16.5459 18.3593 16.6081 18.0474 16.6081 17.755C16.6081 17.0953 16.3932 16.6162 16.1309 16.0456L16.1212 16.0245C15.8627 15.4622 15.5623 14.8088 15.5623 13.9185C15.5623 13.0325 15.9529 12.1154 16.1462 11.7608C16.3015 11.476 16.6081 10.7305 16.6081 10.0819C16.6081 9.4221 16.3932 8.94301 16.1309 8.37239L16.1212 8.35136C15.8627 7.78903 15.5623 7.13559 15.5623 6.24527C15.5623 6.24322 15.5623 6.24117 15.5623 6.23912C15.9313 6.39772 16.284 6.58715 16.6171 6.80416C16.6972 7.20456 16.8569 7.55747 17.0395 7.95475L17.0492 7.97578C17.3077 8.53811 17.6081 9.19155 17.6081 10.0819C17.6081 10.9678 17.2175 11.8849 17.0242 12.2395C16.8689 12.5243 16.5623 13.2698 16.5623 13.9185C16.5623 14.5782 16.7772 15.0573 17.0395 15.6279L17.0492 15.649C17.3077 16.2113 17.6081 16.8647 17.6081 17.755C17.6081 17.7572 17.6081 17.7594 17.6081 17.7615Z" fill="#003E66"/>
</svg>
