<svg width="25" height="21" viewBox="0 0 25 21" fill="none" xmlns="http://www.w3.org/2000/svg">
<path fill-rule="evenodd" clip-rule="evenodd" d="M11.0771 18.1014V14.6734C11.0771 12.0702 8.9669 9.95999 6.36377 9.95999C3.76064 9.95999 1.65039 12.0702 1.65039 14.6734V18.1014C1.65039 18.8113 2.22586 19.3867 2.93574 19.3867H9.7918C10.5017 19.3867 11.0771 18.8113 11.0771 18.1014ZM6.36377 8.95999C3.20836 8.95999 0.650391 11.518 0.650391 14.6734V18.1014C0.650391 19.3636 1.67358 20.3867 2.93574 20.3867H9.7918C11.054 20.3867 12.0771 19.3636 12.0771 18.1014V14.6734C12.0771 11.518 9.51918 8.95999 6.36377 8.95999Z" fill="#003E66"/>
<path fill-rule="evenodd" clip-rule="evenodd" d="M23.6504 18.1014V14.6734C23.6504 12.0702 21.5401 9.95999 18.937 9.95999C16.3339 9.95999 14.2236 12.0702 14.2236 14.6734V18.1014C14.2236 18.8113 14.7991 19.3867 15.509 19.3867H22.365C23.0749 19.3867 23.6504 18.8113 23.6504 18.1014ZM18.937 8.95999C15.7816 8.95999 13.2236 11.518 13.2236 14.6734V18.1014C13.2236 19.3636 14.2468 20.3867 15.509 20.3867H22.365C23.6272 20.3867 24.6504 19.3636 24.6504 18.1014V14.6734C24.6504 11.518 22.0924 8.95999 18.937 8.95999Z" fill="#003E66"/>
<path fill-rule="evenodd" clip-rule="evenodd" d="M6.36353 16.5301C7.38895 16.5301 8.22021 15.6988 8.22021 14.6734C8.22021 13.6479 7.38895 12.8167 6.36353 12.8167C5.3381 12.8167 4.50684 13.6479 4.50684 14.6734C4.50684 15.6988 5.3381 16.5301 6.36353 16.5301ZM6.36353 17.5301C7.94123 17.5301 9.22021 16.2511 9.22021 14.6734C9.22021 13.0957 7.94123 11.8167 6.36353 11.8167C4.78582 11.8167 3.50684 13.0957 3.50684 14.6734C3.50684 16.2511 4.78582 17.5301 6.36353 17.5301Z" fill="#003E66"/>
<path fill-rule="evenodd" clip-rule="evenodd" d="M18.9368 16.5301C19.9622 16.5301 20.7935 15.6988 20.7935 14.6734C20.7935 13.6479 19.9622 12.8167 18.9368 12.8167C17.9113 12.8167 17.0801 13.6479 17.0801 14.6734C17.0801 15.6988 17.9113 16.5301 18.9368 16.5301ZM18.9368 17.5301C20.5145 17.5301 21.7935 16.2511 21.7935 14.6734C21.7935 13.0957 20.5145 11.8167 18.9368 11.8167C17.3591 11.8167 16.0801 13.0957 16.0801 14.6734C16.0801 16.2511 17.3591 17.5301 18.9368 17.5301Z" fill="#003E66"/>
<path fill-rule="evenodd" clip-rule="evenodd" d="M12.112 8.43323H11.8263C10.9584 8.43323 10.2549 7.72967 10.2549 6.8618C10.2549 3.86368 12.6853 1.43323 15.6835 1.43323L18.2549 1.43323V2.29037C18.2549 5.68298 15.5046 8.43323 12.112 8.43323ZM11.8263 9.43323C10.4062 9.43323 9.25488 8.28196 9.25488 6.8618C9.25488 3.3114 12.1331 0.433228 15.6835 0.433228L19.2549 0.433228V2.29037C19.2549 6.23526 16.0569 9.43323 12.112 9.43323H11.8263Z" fill="#003E66"/>
</svg>
