<svg width="25" height="25" viewBox="0 0 25 25" fill="none" xmlns="http://www.w3.org/2000/svg">
<path fill-rule="evenodd" clip-rule="evenodd" d="M23.1504 21.6733V12.6733C23.1504 6.59815 18.2255 1.67328 12.1504 1.67328C6.07526 1.67328 1.15039 6.59815 1.15039 12.6733V21.6733C1.15039 22.7778 2.04582 23.6733 3.15039 23.6733H21.1504C22.255 23.6733 23.1504 22.7778 23.1504 21.6733ZM12.1504 0.673279C5.52297 0.673279 0.150391 6.04586 0.150391 12.6733V21.6733C0.150391 23.3301 1.49354 24.6733 3.15039 24.6733H21.1504C22.8072 24.6733 24.1504 23.3301 24.1504 21.6733V12.6733C24.1504 6.04586 18.7778 0.673279 12.1504 0.673279Z" fill="#003E66"/>
<path fill-rule="evenodd" clip-rule="evenodd" d="M12.1504 18.6733C15.4641 18.6733 18.1504 15.987 18.1504 12.6733C18.1504 9.35957 15.4641 6.67328 12.1504 6.67328C8.83668 6.67328 6.15039 9.35957 6.15039 12.6733C6.15039 15.987 8.83668 18.6733 12.1504 18.6733ZM12.1504 19.6733C16.0164 19.6733 19.1504 16.5393 19.1504 12.6733C19.1504 8.80729 16.0164 5.67328 12.1504 5.67328C8.2844 5.67328 5.15039 8.80729 5.15039 12.6733C5.15039 16.5393 8.2844 19.6733 12.1504 19.6733Z" fill="#003E66"/>
<path fill-rule="evenodd" clip-rule="evenodd" d="M9.38863 17.755C9.38863 16.8647 9.08821 16.2112 8.82968 15.6489L8.82001 15.6279C8.55773 15.0572 8.34277 14.5782 8.34277 13.9184C8.34277 13.2697 8.6494 12.5243 8.8047 12.2394C8.99802 11.8848 9.38863 10.9678 9.38863 10.0818C9.38863 9.19149 9.08821 8.53805 8.82968 7.97572L8.82001 7.95469C8.63189 7.54542 8.46812 7.18323 8.39054 6.7677C8.08497 6.96266 7.79553 7.18068 7.5247 7.41931C7.6322 7.76505 7.77222 8.0696 7.90173 8.35129L7.9114 8.37232C8.17368 8.94295 8.38863 9.42203 8.38863 10.0818C8.38863 10.7305 8.082 11.4759 7.92671 11.7608C7.73338 12.1154 7.34277 13.0324 7.34277 13.9184C7.34277 14.8087 7.6432 15.4621 7.90173 16.0245L7.9114 16.0455C8.17368 16.6161 8.38863 17.0952 8.38863 17.755C8.38863 18.002 8.34418 18.263 8.28056 18.5072C8.56507 18.6963 8.86419 18.8652 9.17589 19.0117C9.29456 18.6321 9.38863 18.1898 9.38863 17.755ZM12.7182 19.6506C12.5309 19.6656 12.3415 19.6733 12.1504 19.6733L11.7113 19.4339C11.8666 19.1491 12.1732 18.4037 12.1732 17.755C12.1732 17.0952 11.9582 16.6161 11.6959 16.0455L11.6863 16.0245C11.4277 15.4621 11.1273 14.8087 11.1273 13.9184C11.1273 13.0324 11.5179 12.1154 11.7113 11.7608C11.8666 11.4759 12.1732 10.7305 12.1732 10.0818C12.1732 9.42203 11.9582 8.94295 11.6959 8.37232L11.6863 8.35129C11.4277 7.78897 11.1273 7.13552 11.1273 6.24521C11.1273 6.07725 11.1414 5.90818 11.1654 5.74203C11.4872 5.69671 11.8161 5.67328 12.1504 5.67328C12.1645 5.67328 12.1787 5.67332 12.1928 5.6734C12.1528 5.86314 12.1273 6.0582 12.1273 6.24521C12.1273 6.90498 12.3423 7.38406 12.6046 7.95469L12.6142 7.97572C12.8728 8.53805 13.1732 9.19149 13.1732 10.0818C13.1732 10.9678 12.7826 11.8848 12.5892 12.2394C12.434 12.5243 12.1273 13.2697 12.1273 13.9184C12.1273 14.5782 12.3423 15.0572 12.6046 15.6279L12.6142 15.6489C12.8728 16.2112 13.1732 16.8647 13.1732 17.755C13.1732 18.471 12.9181 19.2073 12.7182 19.6506ZM16.9577 17.7615C16.6082 18.0918 16.2246 18.3866 15.8128 18.6399C15.8955 18.3593 15.9577 18.0473 15.9577 17.755C15.9577 17.0952 15.7428 16.6161 15.4805 16.0455L15.4708 16.0245C15.2123 15.4621 14.9119 14.8087 14.9119 13.9184C14.9119 13.0324 15.3025 12.1153 15.4958 11.7608C15.6511 11.4759 15.9577 10.7305 15.9577 10.0818C15.9577 9.42203 15.7428 8.94295 15.4805 8.37232L15.4708 8.35129C15.2123 7.78896 14.9119 7.13552 14.9119 6.24521C14.9119 6.24316 14.9119 6.2411 14.9119 6.23905C15.2809 6.39765 15.6336 6.58708 15.9667 6.80409C16.0468 7.2045 16.2065 7.55741 16.3891 7.95469L16.3988 7.97572C16.6573 8.53804 16.9577 9.19149 16.9577 10.0818C16.9577 10.9678 16.5671 11.8848 16.3738 12.2394C16.2185 12.5243 15.9119 13.2697 15.9119 13.9184C15.9119 14.5782 16.1268 15.0572 16.3891 15.6279L16.3988 15.6489C16.6573 16.2112 16.9577 16.8647 16.9577 17.755C16.9577 17.7571 16.9577 17.7593 16.9577 17.7615Z" fill="#003E66"/>
</svg>
