<svg width="25" height="23" viewBox="0 0 25 23" fill="none" xmlns="http://www.w3.org/2000/svg">
<path d="M24.2784 9.17334H1.3783C1.84138 6.89129 3.85949 5.17334 6.27836 5.17334C6.49279 5.17334 6.70383 5.18681 6.91074 5.2129L7.34096 5.26714L7.45552 4.84892C8.03598 2.72988 9.97604 1.17334 12.2784 1.17334C14.3456 1.17334 16.1209 2.42797 16.8823 4.2193L17.0698 4.66047L17.5184 4.49172C18.0652 4.28607 18.658 4.17334 19.2784 4.17334C22.0398 4.17334 24.2784 6.41192 24.2784 9.17334ZM1.30078 12.4067C1.30078 12.2778 1.40525 12.1733 1.53411 12.1733H24.0674C24.1963 12.1733 24.3008 12.2778 24.3008 12.4067C24.3008 17.8007 19.9281 22.1733 14.5341 22.1733H11.0674C5.67347 22.1733 1.30078 17.8007 1.30078 12.4067Z" stroke="#003E66"/>
</svg>
