<svg width="26" height="26" viewBox="0 0 26 26" fill="none" xmlns="http://www.w3.org/2000/svg">
<path fill-rule="evenodd" clip-rule="evenodd" d="M6 13C8.76142 13 11 10.7614 11 8C11 5.23858 8.76142 3 6 3C3.23858 3 1 5.23858 1 8C1 10.7614 3.23858 13 6 13ZM6 14C9.31371 14 12 11.3137 12 8C12 4.68629 9.31371 2 6 2C2.68629 2 0 4.68629 0 8C0 11.3137 2.68629 14 6 14Z" fill="#003E66"/>
<path fill-rule="evenodd" clip-rule="evenodd" d="M25 1H14V11C14 11.5523 14.4477 12 15 12H24C24.5523 12 25 11.5523 25 11V1ZM14 0C13.4477 0 13 0.447715 13 1V11C13 12.1046 13.8954 13 15 13H24C25.1046 13 26 12.1046 26 11V1C26 0.447715 25.5523 0 25 0H14Z" fill="#003E66"/>
<path fill-rule="evenodd" clip-rule="evenodd" d="M15.5 3C15.2239 3 15 3.22386 15 3.5C15 3.77614 15.2239 4 15.5 4H23.5C23.7761 4 24 3.77614 24 3.5C24 3.22386 23.7761 3 23.5 3H15.5Z" fill="#003E66"/>
<path fill-rule="evenodd" clip-rule="evenodd" d="M6 10C7.10457 10 8 9.10457 8 8C8 6.89543 7.10457 6 6 6C4.89543 6 4 6.89543 4 8C4 9.10457 4.89543 10 6 10ZM6 11C7.65685 11 9 9.65685 9 8C9 6.34315 7.65685 5 6 5C4.34315 5 3 6.34315 3 8C3 9.65685 4.34315 11 6 11Z" fill="#003E66"/>
<path fill-rule="evenodd" clip-rule="evenodd" d="M6 25C8.76142 25 11 22.7614 11 20C11 17.2386 8.76142 15 6 15C3.23858 15 1 17.2386 1 20C1 22.7614 3.23858 25 6 25ZM6 26C9.31371 26 12 23.3137 12 20C12 16.6863 9.31371 14 6 14C2.68629 14 0 16.6863 0 20C0 23.3137 2.68629 26 6 26Z" fill="#003E66"/>
<path fill-rule="evenodd" clip-rule="evenodd" d="M6 22C7.10457 22 8 21.1046 8 20C8 18.8954 7.10457 18 6 18C4.89543 18 4 18.8954 4 20C4 21.1046 4.89543 22 6 22ZM6 23C7.65685 23 9 21.6569 9 20C9 18.3431 7.65685 17 6 17C4.34315 17 3 18.3431 3 20C3 21.6569 4.34315 23 6 23Z" fill="#003E66"/>
<path fill-rule="evenodd" clip-rule="evenodd" d="M18 25C20.7614 25 23 22.7614 23 20C23 17.2386 20.7614 15 18 15C15.2386 15 13 17.2386 13 20C13 22.7614 15.2386 25 18 25ZM18 26C21.3137 26 24 23.3137 24 20C24 16.6863 21.3137 14 18 14C14.6863 14 12 16.6863 12 20C12 23.3137 14.6863 26 18 26Z" fill="#003E66"/>
<path fill-rule="evenodd" clip-rule="evenodd" d="M18 22C19.1046 22 20 21.1046 20 20C20 18.8954 19.1046 18 18 18C16.8954 18 16 18.8954 16 20C16 21.1046 16.8954 22 18 22ZM18 23C19.6569 23 21 21.6569 21 20C21 18.3431 19.6569 17 18 17C16.3431 17 15 18.3431 15 20C15 21.6569 16.3431 23 18 23Z" fill="#003E66"/>
</svg>
