<svg width="25" height="24" viewBox="0 0 25 24" fill="none" xmlns="http://www.w3.org/2000/svg">
<path fill-rule="evenodd" clip-rule="evenodd" d="M6.65039 11C9.41181 11 11.6504 8.76142 11.6504 6C11.6504 3.23858 9.41181 1 6.65039 1C3.88897 1 1.65039 3.23858 1.65039 6C1.65039 8.76142 3.88897 11 6.65039 11ZM6.65039 12C9.9641 12 12.6504 9.31371 12.6504 6C12.6504 2.68629 9.9641 0 6.65039 0C3.33668 0 0.650391 2.68629 0.650391 6C0.650391 9.31371 3.33668 12 6.65039 12Z" fill="#003E66"/>
<path fill-rule="evenodd" clip-rule="evenodd" d="M6.65039 8C7.75496 8 8.65039 7.10457 8.65039 6C8.65039 4.89543 7.75496 4 6.65039 4C5.54582 4 4.65039 4.89543 4.65039 6C4.65039 7.10457 5.54582 8 6.65039 8ZM6.65039 9C8.30724 9 9.65039 7.65685 9.65039 6C9.65039 4.34315 8.30724 3 6.65039 3C4.99354 3 3.65039 4.34315 3.65039 6C3.65039 7.65685 4.99354 9 6.65039 9Z" fill="#003E66"/>
<path fill-rule="evenodd" clip-rule="evenodd" d="M6.65039 23C9.41181 23 11.6504 20.7614 11.6504 18C11.6504 15.2386 9.41181 13 6.65039 13C3.88897 13 1.65039 15.2386 1.65039 18C1.65039 20.7614 3.88897 23 6.65039 23ZM6.65039 24C9.9641 24 12.6504 21.3137 12.6504 18C12.6504 14.6863 9.9641 12 6.65039 12C3.33668 12 0.650391 14.6863 0.650391 18C0.650391 21.3137 3.33668 24 6.65039 24Z" fill="#003E66"/>
<path fill-rule="evenodd" clip-rule="evenodd" d="M6.65039 20C7.75496 20 8.65039 19.1046 8.65039 18C8.65039 16.8954 7.75496 16 6.65039 16C5.54582 16 4.65039 16.8954 4.65039 18C4.65039 19.1046 5.54582 20 6.65039 20ZM6.65039 21C8.30724 21 9.65039 19.6569 9.65039 18C9.65039 16.3431 8.30724 15 6.65039 15C4.99354 15 3.65039 16.3431 3.65039 18C3.65039 19.6569 4.99354 21 6.65039 21Z" fill="#003E66"/>
<path fill-rule="evenodd" clip-rule="evenodd" d="M18.6504 11C21.4118 11 23.6504 8.76142 23.6504 6C23.6504 3.23858 21.4118 1 18.6504 1C15.889 1 13.6504 3.23858 13.6504 6C13.6504 8.76142 15.889 11 18.6504 11ZM18.6504 12C21.9641 12 24.6504 9.31371 24.6504 6C24.6504 2.68629 21.9641 0 18.6504 0C15.3367 0 12.6504 2.68629 12.6504 6C12.6504 9.31371 15.3367 12 18.6504 12Z" fill="#003E66"/>
<path fill-rule="evenodd" clip-rule="evenodd" d="M18.6504 8C19.755 8 20.6504 7.10457 20.6504 6C20.6504 4.89543 19.755 4 18.6504 4C17.5458 4 16.6504 4.89543 16.6504 6C16.6504 7.10457 17.5458 8 18.6504 8ZM18.6504 9C20.3072 9 21.6504 7.65685 21.6504 6C21.6504 4.34315 20.3072 3 18.6504 3C16.9935 3 15.6504 4.34315 15.6504 6C15.6504 7.65685 16.9935 9 18.6504 9Z" fill="#003E66"/>
<path fill-rule="evenodd" clip-rule="evenodd" d="M18.6504 23C21.4118 23 23.6504 20.7614 23.6504 18C23.6504 15.2386 21.4118 13 18.6504 13C15.889 13 13.6504 15.2386 13.6504 18C13.6504 20.7614 15.889 23 18.6504 23ZM18.6504 24C21.9641 24 24.6504 21.3137 24.6504 18C24.6504 14.6863 21.9641 12 18.6504 12C15.3367 12 12.6504 14.6863 12.6504 18C12.6504 21.3137 15.3367 24 18.6504 24Z" fill="#003E66"/>
<path fill-rule="evenodd" clip-rule="evenodd" d="M18.6504 20C19.755 20 20.6504 19.1046 20.6504 18C20.6504 16.8954 19.755 16 18.6504 16C17.5458 16 16.6504 16.8954 16.6504 18C16.6504 19.1046 17.5458 20 18.6504 20ZM18.6504 21C20.3072 21 21.6504 19.6569 21.6504 18C21.6504 16.3431 20.3072 15 18.6504 15C16.9935 15 15.6504 16.3431 15.6504 18C15.6504 19.6569 16.9935 21 18.6504 21Z" fill="#003E66"/>
</svg>
