<svg width="25" height="22" viewBox="0 0 25 22" fill="none" xmlns="http://www.w3.org/2000/svg">
<path fill-rule="evenodd" clip-rule="evenodd" d="M12.8008 10.1734C11.3621 10.1734 9.93637 10.4685 8.60477 11.0431C7.27306 11.6177 6.06032 12.461 5.03691 13.5271C4.01341 14.5932 3.19948 15.8611 2.64347 17.2594C2.21016 18.3491 1.9404 19.5006 1.84247 20.6734H12.8008C14.2395 20.6734 15.6652 20.3783 16.9968 19.8037C18.3285 19.2291 19.5413 18.3858 20.5647 17.3197C21.5882 16.2536 22.4021 14.9857 22.9581 13.5874C23.3914 12.4977 23.6612 11.3462 23.7591 10.1734L12.8008 10.1734ZM12.8008 9.1734C11.2249 9.1734 9.66451 9.49672 8.2086 10.1249C6.75269 10.7531 5.42982 11.6738 4.31552 12.8346C3.20122 13.9953 2.3173 15.3733 1.71425 16.8899C1.23387 18.0979 0.939196 19.3751 0.839185 20.6744C0.796799 21.225 1.24851 21.6734 1.8008 21.6734H12.8008C14.3767 21.6734 15.9371 21.3501 17.393 20.7219C18.8489 20.0937 20.1718 19.173 21.2861 18.0122C22.4004 16.8515 23.2843 15.4735 23.8874 13.9569C24.3677 12.7489 24.6624 11.4718 24.7624 10.1724C24.8048 9.62178 24.3531 9.1734 23.8008 9.1734H12.8008Z" fill="#003E66"/>
<path fill-rule="evenodd" clip-rule="evenodd" d="M12.8008 1.6734C11.3621 1.6734 9.93637 1.96853 8.60477 2.54309C7.27306 3.11768 6.06032 3.96104 5.03691 5.0271C4.01341 6.09324 3.19948 7.36112 2.64347 8.75936C2.47844 9.17439 2.3267 9.7756 2.1985 10.4784C3.19794 9.06578 4.35543 7.77922 5.82868 6.8262C7.44357 5.78158 9.38247 5.1734 11.8008 5.1734H23.8008L23.8008 1.6734L12.8008 1.6734ZM12.8008 0.673401C11.2249 0.673401 9.66451 0.996724 8.2086 1.62491C6.75269 2.25309 5.42982 3.17383 4.31552 4.33457C3.20122 5.4953 2.3173 6.87329 1.71425 8.38986C1.46536 9.01575 1.26633 9.91566 1.11839 10.8722C0.961103 11.8892 2.19412 12.2567 2.77251 11.4056C4.80869 8.40919 7.32509 6.1734 11.8008 6.1734H23.802C24.3543 6.1734 24.8008 5.72687 24.8008 5.17458L24.8008 1.67255C24.8008 1.12027 24.3546 0.673401 23.8023 0.673401H12.8008Z" fill="#003E66"/>
<path fill-rule="evenodd" clip-rule="evenodd" d="M17.8008 5.6734L19.7373 0.950501L20.6626 1.32988L18.726 6.05278L17.8008 5.6734Z" fill="#003E66"/>
<path fill-rule="evenodd" clip-rule="evenodd" d="M11.8008 5.6734L13.6763 0.9505L14.6057 1.31957L12.7302 6.04247L11.8008 5.6734Z" fill="#003E66"/>
<path fill-rule="evenodd" clip-rule="evenodd" d="M5.69875 7.11572L7.74025 2.05438L8.66765 2.42845L6.62615 7.48979L5.69875 7.11572Z" fill="#003E66"/>
</svg>
